<svg width="100" height="100" viewBox="0 0 14 13" fill="none" xmlns="http://www.w3.org/2000/svg">
    <path
        d="M2.8418 9.33333H12.3333V1.33333H1.66659V10.2567L2.8418 9.33333ZM3.30295 10.6667L0.333252 13V0.666667C0.333252 0.29848 0.631732 0 0.999919 0H12.9999C13.3681 0 13.6666 0.29848 13.6666 0.666667V10C13.6666 10.3682 13.3681 10.6667 12.9999 10.6667H3.30295ZM6.33325 7.33333H7.66658V8.66667H6.33325V7.33333ZM4.71146 3.87564C4.92417 2.80613 5.86792 2 6.99992 2C8.28858 2 9.33325 3.04467 9.33325 4.33333C9.33325 5.622 8.28858 6.66667 6.99992 6.66667H6.33325V5.33333H6.99992C7.55219 5.33333 7.99992 4.8856 7.99992 4.33333C7.99992 3.78105 7.55219 3.33333 6.99992 3.33333C6.51478 3.33333 6.11032 3.67882 6.01912 4.13718L4.71146 3.87564Z"
        fill="#616160" />
</svg>