<svg width="60" height="60" viewBox="0 0 60 60" fill="none" xmlns="http://www.w3.org/2000/svg">
<path d="M30 35V40C21.7157 40 15 46.7158 15 55H10C10 43.9543 18.9543 35 30 35ZM30 32.5C21.7125 32.5 15 25.7875 15 17.5C15 9.2125 21.7125 2.5 30 2.5C38.2875 2.5 45 9.2125 45 17.5C45 25.7875 38.2875 32.5 30 32.5ZM30 27.5C35.525 27.5 40 23.025 40 17.5C40 11.975 35.525 7.5 30 7.5C24.475 7.5 20 11.975 20 17.5C20 23.025 24.475 27.5 30 27.5ZM36.4865 47.0288C36.3317 46.3778 36.25 45.6985 36.25 45C36.25 44.3018 36.3317 43.6225 36.4862 42.9715L34.0072 41.5403L36.5072 37.21L38.988 38.6423C39.9707 37.7127 41.169 37.0085 42.5 36.6123V33.75H47.5V36.6123C48.831 37.0085 50.029 37.7127 51.0117 38.6423L53.4928 37.2097L55.993 41.54L53.5138 42.9712C53.6683 43.6225 53.75 44.3018 53.75 45C53.75 45.6982 53.6683 46.3775 53.5138 47.0285L55.993 48.4597L53.493 52.79L51.012 51.3575C50.0293 52.2872 48.8312 52.9915 47.5002 53.3875V56.25H42.5002V53.3878C41.1692 52.9918 39.971 52.2875 38.9882 51.3577L36.5075 52.7903L34.0072 48.46L36.4865 47.0288ZM45 48.75C47.071 48.75 48.75 47.071 48.75 45C48.75 42.929 47.071 41.25 45 41.25C42.929 41.25 41.25 42.929 41.25 45C41.25 47.071 42.929 48.75 45 48.75Z" fill="#0064C7"/>
</svg>
