<svg width="612" height="473" viewBox="0 0 612 473" fill="none" xmlns="http://www.w3.org/2000/svg">
<g clip-path="url(#clip0_381_2124)">
<path d="M305.343 234.86C307.317 242.772 304.672 250.194 299.443 251.444C294.213 252.688 288.374 247.285 286.4 239.373C285.563 236.224 285.525 232.916 286.294 229.744L278.367 196.115L294.839 192.754L300.904 226.262C303.082 228.741 304.604 231.695 305.343 234.867V234.86Z" fill="#EC9C9F"/>
<path d="M236.27 427.153L237.287 449.193L236.27 455.289L239.826 462.41L267.781 465.454L269.311 452.245L254.572 444.619L254.143 432.164L236.27 427.153Z" fill="#FEE6CC"/>
<path d="M265.755 460.375L264.232 462.41L234.959 453.97C234.959 453.97 236.278 466.983 236.278 469.523C236.278 472.062 284.562 472.062 291.826 471.045C299.089 470.028 296.761 463.419 296.761 463.419L266.629 449.156L265.755 460.368V460.375Z" fill="#333333"/>
<path d="M163.444 410.93L157.348 432.134L154.439 437.589L155.532 445.463L181.038 457.301L186.712 445.267L175.183 433.332L182.417 414.585L163.444 410.93Z" fill="#FEE6CC"/>
<path d="M180.737 451.838L178.643 453.277L153.604 435.917C153.604 435.917 150.688 448.666 149.882 451.069C149.075 453.473 194.813 468.927 202.024 470.291C209.235 471.655 209.137 464.647 209.137 464.647L185.153 441.492L180.737 451.838Z" fill="#333333"/>
<path d="M238.244 63.265L239.314 80.5955L206.943 82.2381L216.965 59.3995L238.244 63.265Z" fill="#FEE6CC"/>
<path d="M240.135 78.0035C231.462 81.8765 217.582 80.814 201.857 78.0035L199.4 186.96C199.4 186.96 248.596 196.853 265.513 178.603L256.614 89.5848L240.142 78.011V78.0035L240.135 78.0035Z" fill="#0064C7"/>
<path d="M260.17 181.271L190.713 188.135L156.443 420.854H182.703L227.672 261.391L231.236 442.103H255.273L275.745 220.882L260.17 181.271Z" fill="#333333"/>
<path d="M211.727 71.3275L188.391 85.1391C179.553 90.3684 175.386 100.933 178.272 110.788L196.303 172.387C196.303 172.387 166.939 222.841 176.479 227.287C197.923 237.286 229.924 234.852 229.924 234.852L222.774 114.059L211.727 71.3275Z" fill="#333333"/>
<path d="M239.125 77.5439L265.513 87.7915L271.744 163.903L289.195 225.223C259.635 236.013 262.393 230.987 262.393 230.987L257.495 125.18L239.125 77.5439Z" fill="#333333"/>
<path d="M277.666 223.934L277.576 223.52L250.608 98.7775C249.854 95.2888 250.819 91.8001 253.253 89.193C255.687 86.5859 259.107 85.3878 262.634 85.9002C266.989 86.5331 270.47 89.7054 271.51 93.9777L301.138 215.751L277.666 223.942L277.666 223.934Z" fill="#333333"/>
<path d="M224.199 67.8689C238.702 67.8689 250.458 56.1121 250.458 41.6094C250.458 27.1066 238.702 15.3499 224.199 15.3499C209.696 15.3499 197.939 27.1066 197.939 41.6094C197.939 56.1121 209.696 67.8689 224.199 67.8689Z" fill="#FEE6CC"/>
<path d="M236.691 7.58127C242.478 9.61572 245.786 10.7761 248.815 13.6997C253.939 18.6351 254.782 25.2283 255.566 31.3542C256.184 36.1465 256.975 42.3403 254.165 49.4232C253.208 51.8419 248.559 62.6019 239.667 63.9658C237.919 64.2295 233.82 64.3048 235.003 63.4308C245.944 55.3532 250.608 50.4781 250.224 38.0378C249.983 30.3069 238.168 21.9581 231.153 20.4586C228.199 19.8257 224.266 20.4059 221.44 22.7191C215.54 27.5566 215.796 47.5771 209.58 51.759C207.026 53.477 208.728 41.3682 206.928 43.3273C203.371 47.2003 205.654 53.1379 206.295 55.3984C209.324 66.1208 215.035 67.1681 217.997 76.3307C221.191 86.2166 217.168 95.5224 216.218 97.7301C214.561 101.573 211.712 108.159 205.21 111.323C196.951 115.339 190.441 110.11 186.606 114.593C184.458 117.095 185.619 119.747 181.746 127.539C180.48 130.078 179.847 131.351 179.289 131.306C176.637 131.095 172.349 109.877 179.289 90.1198C182.205 81.8312 185.054 73.7085 192.702 67.3565C196.748 63.9959 200.139 62.7903 201.103 58.8645C202.482 53.2585 196.755 50.8699 195.61 42.0313C194.826 35.9882 194.276 27.338 196.409 21.7998C198.428 16.563 200.176 12.0194 204.758 7.90526C205.858 6.91817 214.734 0.189405 224.153 0.00102543C228.485 -0.0893946 231.673 5.82559 236.698 7.58879H236.691C236.691 7.58879 236.691 7.58126 236.691 7.58127Z" fill="#333333"/>
<path d="M606.339 360.699H243.506C241.099 360.699 239.141 358.741 239.141 356.334V132.231C239.141 129.824 241.099 127.866 243.506 127.866H606.339C608.746 127.866 610.705 129.824 610.705 132.231V356.334C610.705 358.741 608.746 360.699 606.339 360.699Z" fill="white"/>
<path d="M606.339 360.699H243.506C241.099 360.699 239.141 358.741 239.141 356.334V132.231C239.141 129.824 241.099 127.866 243.506 127.866H606.339C608.746 127.866 610.705 129.824 610.705 132.231V356.334C610.705 358.741 608.746 360.699 606.339 360.699Z" stroke="#2F2E43" stroke-miterlimit="10"/>
<path d="M267.76 147.268H251.268C248.861 147.268 246.902 145.31 246.902 142.903V140.962C246.902 138.555 248.861 136.597 251.268 136.597H267.76C270.168 136.597 272.126 138.555 272.126 140.962V142.903C272.126 145.31 270.168 147.268 267.76 147.268Z" fill="#107CE8"/>
<path d="M559.772 147.268H550.071C547.663 147.268 545.705 145.31 545.705 142.903V140.962C545.705 138.555 547.663 136.597 550.071 136.597H559.772C562.179 136.597 564.138 138.555 564.138 140.962V142.903C564.138 145.31 562.18 147.268 559.772 147.268Z" fill="#D7D7D7"/>
<path d="M494.773 205.477C493.435 205.477 492.348 206.565 492.348 207.902V209.843C492.348 211.18 493.435 212.268 494.773 212.268H551.041C552.379 212.268 553.467 211.18 553.467 209.843V207.902C553.467 206.565 552.379 205.477 551.041 205.477H494.773Z" fill="#D7D7D7"/>
<path d="M476.341 304.431H251.268C248.861 304.431 246.902 302.473 246.902 300.066V157.455C246.902 155.048 248.861 153.089 251.268 153.089H476.341C478.748 153.089 480.706 155.048 480.706 157.455V300.066C480.706 302.473 478.748 304.431 476.341 304.431Z" fill="#D7D7D7"/>
<path d="M477.309 351.968H373.504C371.097 351.968 369.139 350.01 369.139 347.603V313.648C369.139 311.24 371.097 309.282 373.504 309.282H477.309C479.717 309.282 481.675 311.24 481.675 313.648V347.603C481.675 350.01 479.717 351.968 477.309 351.968Z" fill="#D7D7D7"/>
<path d="M354.655 351.73H250.85C248.443 351.73 246.484 349.772 246.484 347.365V313.41C246.484 311.002 248.443 309.044 250.85 309.044H354.655C357.062 309.044 359.021 311.002 359.021 313.41V347.365C359.021 349.772 357.062 351.73 354.655 351.73Z" fill="#D7D7D7"/>
<path d="M598.577 309.282C600.984 309.282 602.943 311.24 602.943 313.648V347.603C602.943 350.01 600.984 351.968 598.577 351.968H494.772C492.365 351.968 490.406 350.01 490.406 347.603V313.648C490.406 311.24 492.365 309.282 494.772 309.282" fill="#D7D7D7"/>
<path d="M494.773 220.999C493.435 220.999 492.348 222.087 492.348 223.424C492.348 224.762 493.435 225.85 494.773 225.85H581.116C582.453 225.85 583.541 224.762 583.541 223.424C583.541 222.087 582.453 220.999 581.116 220.999H494.773Z" fill="#D7D7D7"/>
<path d="M494.773 234.581C493.435 234.581 492.348 235.669 492.348 237.006C492.348 238.344 493.435 239.432 494.773 239.432H581.116C582.453 239.432 583.541 238.344 583.541 237.006C583.541 235.669 582.453 234.581 581.116 234.581H494.773Z" fill="#D7D7D7"/>
<path d="M494.773 247.193C493.435 247.193 492.348 248.281 492.348 249.618C492.348 250.956 493.435 252.044 494.773 252.044H551.041C552.379 252.044 553.467 250.956 553.467 249.618C553.467 248.281 552.379 247.193 551.041 247.193" fill="#D7D7D7"/>
<path d="M579.174 147.268H569.473C567.066 147.268 565.107 145.31 565.107 142.903V140.962C565.107 138.555 567.066 136.597 569.473 136.597H579.174C581.582 136.597 583.54 138.555 583.54 140.962V142.903C583.54 145.31 581.582 147.268 579.174 147.268Z" fill="#D7D7D7"/>
<path d="M598.579 147.268H588.877C586.47 147.268 584.512 145.31 584.512 142.903V140.962C584.512 138.555 586.47 136.597 588.877 136.597H598.579C600.986 136.597 602.944 138.555 602.944 140.962V142.903C602.944 145.31 600.986 147.268 598.579 147.268Z" fill="#D7D7D7"/>
<path d="M237.965 159.66C246.073 158.809 253.058 162.456 253.562 167.813C254.067 173.171 247.904 178.197 239.788 179.048C236.548 179.432 233.278 179.01 230.234 177.812L195.829 180.977L194.797 164.196L228.825 162.855C231.583 161.047 234.717 159.947 237.965 159.653L237.965 159.66Z" fill="#FEE6CC"/>
<path d="M196.048 85.9303C187.722 84.7548 179.908 90.2328 178.175 98.461C172.139 127.177 161.296 188.339 178.318 189.363C200.576 190.697 221.938 185.355 221.938 185.355L216.596 154.642L199.235 152.864L209.445 105.099C211.381 96.0272 205.225 87.2188 196.04 85.9303L196.048 85.9303Z" fill="#333333"/>
<path d="M0 471.521H519.426" stroke="#333333" stroke-width="1.5" stroke-miterlimit="10"/>
</g>
<defs>
<clipPath id="clip0_381_2124">
<rect width="611.205" height="472.271" fill="white"/>
</clipPath>
</defs>
</svg>
