<svg width="415" height="276" viewBox="0 0 415 276" fill="none" xmlns="http://www.w3.org/2000/svg">
    <g clip-path="url(#clip0_791_2878)">
        <path
            d="M148.861 158.84C163.083 133.804 190.212 114.58 218.93 116.431C197.747 139.485 185.394 169.293 184.058 200.583C183.586 212.652 184.318 226.125 176.31 235.162C171.328 240.785 163.712 243.509 156.224 244.08C148.736 244.651 141.249 243.297 133.861 241.949L132.069 242.5C131.386 213.708 134.639 183.877 148.861 158.84Z"
            fill="#D1FCEC" />
        <path
            d="M218.973 117.034C197.736 127.265 179.628 144.352 168.512 165.191C166.108 169.696 164.062 174.476 163.17 179.529C162.277 184.585 162.9 189.398 164.626 194.2C166.203 198.59 168.325 202.897 168.809 207.594C169.319 212.545 167.498 217.175 164.222 220.849C160.212 225.344 154.828 228.13 149.468 230.671C143.517 233.492 137.291 236.328 133.076 241.594C132.565 242.232 131.606 241.402 132.116 240.765C139.449 231.603 152.002 229.881 160.707 222.501C164.769 219.058 167.819 214.368 167.626 208.874C167.458 204.069 165.274 199.625 163.638 195.194C161.921 190.541 161.065 185.863 161.68 180.903C162.31 175.828 164.174 170.959 166.452 166.412C171.588 156.157 178.618 146.742 186.671 138.604C195.926 129.25 206.712 121.548 218.562 115.833C219.296 115.48 219.702 116.683 218.973 117.034Z"
            fill="#F7F7F7" />
        <path
            d="M171.768 158.226C168.512 155.844 166.209 152.381 165.269 148.456C164.329 144.531 164.814 140.4 166.637 136.799C167.008 136.072 168.155 136.616 167.783 137.344C166.079 140.693 165.628 144.542 166.511 148.195C167.393 151.848 169.552 155.065 172.596 157.266C173.258 157.745 172.425 158.703 171.768 158.226Z"
            fill="#F7F7F7" />
        <path
            d="M163.533 192.079C171.691 190.886 179.1 186.66 184.283 180.243C184.796 179.607 185.755 180.437 185.243 181.073C179.837 187.74 172.118 192.122 163.626 193.345C162.816 193.461 162.728 192.194 163.533 192.079Z"
            fill="#F7F7F7" />
        <path
            d="M196.552 130.811C197.62 131.996 198.965 132.896 200.467 133.432C201.968 133.968 203.579 134.122 205.155 133.88C205.962 133.754 206.05 135.021 205.248 135.146C203.506 135.405 201.727 135.233 200.066 134.644C198.406 134.056 196.915 133.07 195.724 131.772C195.601 131.659 195.526 131.504 195.514 131.338C195.502 131.171 195.553 131.007 195.658 130.877C195.768 130.75 195.924 130.672 196.092 130.66C196.259 130.648 196.425 130.702 196.552 130.811Z"
            fill="#F7F7F7" />
        <path
            d="M276.071 195.413C275.569 195.506 275.067 195.599 274.56 195.702C267.817 196.99 261.189 198.823 254.742 201.184C254.241 201.359 253.736 201.544 253.24 201.732C237.769 207.587 223.519 216.266 211.214 227.326C206.322 231.732 201.771 236.504 197.602 241.601C191.845 248.64 186.163 256.731 178.64 261.32C177.86 261.808 177.051 262.247 176.218 262.634L132.879 244.645C132.801 244.555 132.718 244.474 132.64 244.383L130.877 243.744C131.073 243.466 131.283 243.182 131.48 242.904C131.593 242.743 131.716 242.585 131.83 242.423C131.909 242.317 131.988 242.211 132.053 242.11C132.079 242.074 132.105 242.039 132.127 242.013C132.192 241.913 132.263 241.826 132.324 241.736C133.493 240.145 134.675 238.56 135.871 236.98C135.875 236.97 135.875 236.97 135.889 236.964C145.029 224.951 155.252 213.595 166.872 204.154C167.221 203.87 167.575 203.576 167.944 203.3C173.206 199.073 178.803 195.284 184.682 191.97C187.906 190.165 191.22 188.525 194.61 187.056C203.377 183.277 212.684 180.902 222.189 180.017C241.137 178.257 260.437 182.58 274.969 194.492C275.341 194.797 275.703 195.098 276.071 195.413Z"
            fill="#D1FCEC" />
        <path
            d="M275.745 195.923C252.633 191.297 227.895 194.029 206.482 203.97C201.853 206.119 197.344 208.703 193.591 212.2C189.836 215.699 187.439 219.917 185.928 224.791C184.546 229.246 183.649 233.964 181.209 238.006C178.637 242.266 174.399 244.866 169.572 245.825C163.666 246.999 157.691 245.979 151.883 244.778C145.434 243.445 138.756 241.959 132.223 243.623C131.431 243.825 131.165 242.584 131.955 242.383C143.322 239.486 154.381 245.675 165.772 245.027C171.087 244.725 176.343 242.818 179.495 238.315C182.251 234.377 183.181 229.513 184.541 224.99C185.969 220.24 188.1 215.989 191.576 212.399C195.132 208.727 199.549 205.962 204.103 203.704C214.374 198.611 225.651 195.329 236.977 193.683C249.995 191.791 263.24 192.14 276.14 194.717C276.938 194.877 276.538 196.082 275.745 195.923Z"
            fill="#F7F7F7" />
        <path
            d="M213.272 200.371C212.106 196.508 212.35 192.355 213.961 188.655C215.572 184.954 218.445 181.948 222.066 180.172C222.801 179.815 223.389 180.939 222.654 181.297C219.279 182.945 216.603 185.746 215.11 189.194C213.617 192.643 213.405 196.512 214.512 200.103C214.752 200.884 213.511 201.148 213.272 200.371Z"
            fill="#F7F7F7" />
        <path
            d="M186.331 222.439C193.562 226.402 202.02 227.492 210.019 225.491C210.811 225.292 211.078 226.533 210.287 226.732C201.959 228.798 193.16 227.646 185.643 223.506C184.927 223.111 185.619 222.046 186.331 222.439Z"
            fill="#F7F7F7" />
        <path
            d="M249.555 193.415C249.695 195.004 250.227 196.533 251.104 197.866C251.98 199.198 253.174 200.292 254.577 201.048C255.298 201.434 254.606 202.499 253.89 202.115C252.343 201.272 251.027 200.062 250.055 198.593C249.083 197.123 248.486 195.437 248.315 193.683C248.285 193.519 248.319 193.35 248.409 193.209C248.5 193.069 248.64 192.969 248.801 192.928C248.966 192.894 249.137 192.926 249.278 193.017C249.419 193.108 249.519 193.251 249.555 193.415Z"
            fill="#F7F7F7" />
        <path
            d="M193.514 225.093C187.444 195.724 179.857 185.933 179.857 185.933L176.959 183.683L173.473 180.974L173.49 180.625L172.664 180.344L172.469 180.193L172.151 179.949L172.1 180.004L171.992 180.116L156.22 174.751L136.21 167.949L126.944 155.896C125.435 153.933 123.492 152.347 121.268 151.261C119.043 150.175 116.598 149.62 114.123 149.638L84.531 149.857C80.5298 149.887 76.6844 151.413 73.7508 154.136L54.3003 172.191L23.9927 186.677L23.9416 186.625L23.6233 186.853L18.9405 189.094L19.1338 190.1L16.2354 192.193C16.2354 192.193 8.6486 201.304 2.57912 228.631C1.03511 235.584 0.275096 250.5 0.000770911 268.88C-0.0130084 269.81 0.158056 270.733 0.504012 271.596C0.849968 272.459 1.36392 273.245 2.01598 273.908C2.66803 274.57 3.44519 275.096 4.30226 275.455C5.15933 275.815 6.0792 276 7.00841 276H168.887L189.092 276C190.02 276 190.939 275.815 191.796 275.456C192.652 275.097 193.429 274.571 194.081 273.91C194.733 273.248 195.247 272.463 195.594 271.601C195.94 270.739 196.112 269.817 196.099 268.888C195.831 248.887 195.072 232.633 193.514 225.093Z"
            fill="#107CE8" />
        <path
            d="M214.283 25.6118C207.985 25.6118 201.945 28.1155 197.492 32.5722C193.039 37.0289 190.537 43.0734 190.537 49.3761C190.537 55.6788 193.039 61.7233 197.492 66.18C201.945 70.6367 207.985 73.1404 214.283 73.1404H391.253C397.551 73.1404 403.591 70.6367 408.045 66.18C412.498 61.7233 415 55.6788 415 49.3761C415 43.0734 412.498 37.0289 408.045 32.5722C403.591 28.1155 397.551 25.6118 391.253 25.6118H214.283Z"
            fill="#D9D9D9" />
        <path
            d="M214.283 30.4211C209.26 30.4211 204.442 32.4182 200.89 35.9729C197.338 39.5276 195.343 44.3489 195.343 49.376C195.343 54.4031 197.338 59.2244 200.89 62.7791C204.442 66.3338 209.26 68.3308 214.283 68.3308H391.253C396.277 68.3308 401.094 66.3338 404.646 62.7791C408.199 59.2244 410.194 54.4031 410.194 49.376C410.194 44.3489 408.199 39.5276 404.646 35.9729C401.094 32.4182 396.277 30.4211 391.253 30.4211H214.283Z"
            fill="#F7F7F7" />
        <path
            d="M103.974 138.512C125.385 138.512 142.743 121.142 142.743 99.7152C142.743 78.2881 125.385 60.918 103.974 60.918C82.5629 60.918 65.2056 78.2881 65.2056 99.7152C65.2056 121.142 82.5629 138.512 103.974 138.512Z"
            fill="#FEE6CC" />
        <path
            d="M94.0565 136.613C93.8909 136.248 93.7257 135.882 93.561 135.514C93.6245 135.516 93.6874 135.525 93.7508 135.527L94.0565 136.613Z"
            fill="#2F2E41" />
        <path
            d="M64.1275 62.6824C66.0883 61.1171 68.38 59.6768 70.887 59.7577C73.3939 59.8386 75.9361 62.1045 75.4168 64.5602C80.0215 56.4011 87.3509 50.1258 96.1184 46.8358C104.886 43.5458 114.531 43.4513 123.361 46.569C129.592 48.7689 135.702 53.17 137.134 59.6251C137.501 61.2821 137.58 63.099 138.614 64.4446C139.917 66.1411 142.411 66.5249 144.465 65.9281C144.486 65.9221 144.506 65.9161 144.527 65.9099C144.873 65.7914 145.248 65.7797 145.602 65.8765C145.955 65.9732 146.272 66.1739 146.51 66.4527C146.748 66.7314 146.898 67.0752 146.939 67.4398C146.98 67.8044 146.91 68.1729 146.74 68.4976L144.977 71.788C147.199 72.2838 149.508 72.2346 151.708 71.6448C152.073 71.5489 152.459 71.5685 152.813 71.7008C153.167 71.8332 153.471 72.0718 153.684 72.384C153.897 72.6963 154.008 73.0667 154.002 73.4447C153.996 73.8226 153.874 74.1895 153.651 74.495C147.838 82.4821 138.126 87.6398 128.215 87.5792C121.171 87.5362 114.054 85.1067 107.199 86.7278C104.547 87.3549 102.069 88.5683 99.9461 90.2789C97.8237 91.9895 96.1109 94.1539 94.9334 96.6133C93.7559 99.0728 93.1436 101.765 93.1413 104.492C93.1391 107.219 93.747 109.912 94.9204 112.374C92.8143 110.068 88.7432 110.614 86.5888 112.874C84.4346 115.135 83.8769 118.508 84.094 121.624C84.4259 126.39 86.2918 130.881 88.2588 135.251C71.7671 134.732 56.1686 123.154 50.9182 107.496C45.6457 91.7719 51.1714 73.0255 64.1275 62.6824Z"
            fill="#333333" />
        <path opacity="0.2" d="M38.1584 216.226L49.0322 275.431L55.5567 276L38.1584 216.226Z" fill="black" />
        <path opacity="0.2" d="M157.935 211.761L147.061 275.389L140.536 276L157.935 211.761Z" fill="black" />
        <path
            d="M73.4019 42.7568C71.317 43.6281 69.1415 42.6733 68.2291 40.4867C67.3028 38.2667 68.168 36.0131 70.2863 35.128C72.4048 34.2427 74.5415 35.1998 75.4827 37.4556C76.4099 39.6776 75.5542 41.8575 73.4019 42.7568ZM69.4081 30.7583L67.7504 31.451C67.3363 31.622 66.8731 31.6312 66.4525 31.4768C66.0319 31.3225 65.6845 31.0157 65.4791 30.6173L65.3971 30.4568C63.6134 27.2376 63.4092 23.3252 64.7933 18.8342C66.0755 14.8056 66.6081 11.9723 65.5371 9.40548C64.2988 6.43775 61.6545 5.50811 58.2825 6.85481C56.9747 7.40131 56.5585 7.3926 55.5293 8.41432C55.3055 8.63928 55.0386 8.81681 54.7447 8.93633C54.4508 9.05586 54.1358 9.11493 53.8186 9.11002C53.512 9.10641 53.2092 9.04103 52.9283 8.91779C52.6474 8.79455 52.3942 8.61596 52.1838 8.39269C51.7785 7.96241 51.5514 7.39422 51.5484 6.80286C51.5454 6.21151 51.7668 5.64105 52.1678 5.2067C53.8977 3.39449 55.9842 1.9608 58.2956 0.996104C65.5405 -2.03138 69.1877 2.43827 70.8567 6.43819C72.4892 10.3506 71.5709 13.9806 70.0954 18.6819C68.8589 22.5883 68.931 25.4829 70.3355 28.3611C70.4369 28.5787 70.4933 28.8145 70.5014 29.0545C70.5094 29.2945 70.4689 29.5336 70.3823 29.7575C70.2957 29.9814 70.1647 30.1854 69.9973 30.3574C69.8299 30.5294 69.6295 30.6658 69.4081 30.7583Z"
            fill="#0064C7" />
        <path
            d="M253.374 60.7099H218.163C218.052 60.7107 217.941 60.6893 217.837 60.647C217.734 60.6047 217.639 60.5423 217.56 60.4634C217.481 60.3845 217.418 60.2907 217.375 60.1873C217.332 60.084 217.31 59.9731 217.31 59.8612C217.31 59.7492 217.332 59.6384 217.375 59.5351C217.418 59.4317 217.481 59.3379 217.56 59.259C217.639 59.1801 217.734 59.1177 217.837 59.0754C217.941 59.0331 218.052 59.0117 218.163 59.0125H253.374C253.598 59.014 253.812 59.1041 253.97 59.2631C254.128 59.4221 254.216 59.6371 254.216 59.8612C254.216 60.0853 254.128 60.3003 253.97 60.4593C253.812 60.6183 253.598 60.7084 253.374 60.7099Z"
            fill="#0064C7" />
        <path
            d="M298.04 60.9929H262.83C262.718 60.9936 262.607 60.9723 262.504 60.9299C262.4 60.8876 262.306 60.8252 262.227 60.7463C262.147 60.6675 262.084 60.5736 262.041 60.4703C261.998 60.3669 261.976 60.2561 261.976 60.1442C261.976 60.0322 261.998 59.9214 262.041 59.818C262.084 59.7147 262.147 59.6208 262.227 59.542C262.306 59.4631 262.4 59.4007 262.504 59.3584C262.607 59.3161 262.718 59.2947 262.83 59.2954H298.04C298.152 59.2947 298.263 59.3161 298.367 59.3584C298.47 59.4007 298.564 59.4631 298.644 59.542C298.723 59.6208 298.786 59.7147 298.829 59.818C298.872 59.9214 298.894 60.0322 298.894 60.1442C298.894 60.2561 298.872 60.3669 298.829 60.4703C298.786 60.5736 298.723 60.6675 298.644 60.7463C298.564 60.8252 298.47 60.8876 298.367 60.9299C298.263 60.9723 298.152 60.9936 298.04 60.9929Z"
            fill="#0064C7" />
        <path
            d="M342.707 61.2758H307.496C307.272 61.2743 307.058 61.1842 306.9 61.0252C306.742 60.8662 306.654 60.6512 306.654 60.4271C306.654 60.203 306.742 59.988 306.9 59.829C307.058 59.67 307.272 59.5799 307.496 59.5784H342.707C342.818 59.5776 342.929 59.599 343.033 59.6413C343.136 59.6836 343.231 59.746 343.31 59.8249C343.389 59.9038 343.452 59.9976 343.495 60.101C343.538 60.2043 343.56 60.3152 343.56 60.4271C343.56 60.5391 343.538 60.6499 343.495 60.7532C343.452 60.8566 343.389 60.9504 343.31 61.0293C343.231 61.1082 343.136 61.1706 343.033 61.2129C342.929 61.2552 342.818 61.2766 342.707 61.2758Z"
            fill="#0064C7" />
        <path
            d="M387.373 61.5588H352.163C351.939 61.5573 351.725 61.4672 351.567 61.3082C351.409 61.1492 351.32 60.9341 351.32 60.71C351.32 60.4859 351.409 60.2709 351.567 60.1119C351.725 59.9529 351.939 59.8629 352.163 59.8613H387.373C387.597 59.8629 387.811 59.9529 387.969 60.1119C388.127 60.2709 388.215 60.4859 388.215 60.71C388.215 60.9341 388.127 61.1492 387.969 61.3082C387.811 61.4672 387.597 61.5573 387.373 61.5588Z"
            fill="#0064C7" />
        <path
            d="M235.691 52.8989C239.305 52.8989 242.235 49.9669 242.235 46.35C242.235 42.7331 239.305 39.801 235.691 39.801C232.077 39.801 229.147 42.7331 229.147 46.35C229.147 49.9669 232.077 52.8989 235.691 52.8989Z"
            fill="#0064C7" />
        <path
            d="M280.628 52.8989C284.242 52.8989 287.172 49.9669 287.172 46.35C287.172 42.7331 284.242 39.801 280.628 39.801C277.013 39.801 274.083 42.7331 274.083 46.35C274.083 49.9669 277.013 52.8989 280.628 52.8989Z"
            fill="#0064C7" />
        <path
            d="M325.564 52.8989C329.178 52.8989 332.108 49.9669 332.108 46.35C332.108 42.7331 329.178 39.801 325.564 39.801C321.949 39.801 319.02 42.7331 319.02 46.35C319.02 49.9669 321.949 52.8989 325.564 52.8989Z"
            fill="#0064C7" />
        <path
            d="M370.5 52.8989C374.114 52.8989 377.044 49.9669 377.044 46.35C377.044 42.7331 374.114 39.801 370.5 39.801C366.886 39.801 363.956 42.7331 363.956 46.35C363.956 49.9669 366.886 52.8989 370.5 52.8989Z"
            fill="#0064C7" />
    </g>
    <defs>
        <clipPath id="clip0_791_2878">
            <rect width="415" height="276" fill="white" />
        </clipPath>
    </defs>
</svg>