<svg width="411" height="380" viewBox="0 0 411 380" fill="none" xmlns="http://www.w3.org/2000/svg">
<g clip-path="url(#clip0_2646_2937)">
<path d="M177.096 379.234C274.481 379.234 353.427 300.288 353.427 202.904C353.427 105.519 274.481 26.5732 177.096 26.5732C79.7115 26.5732 0.765625 105.519 0.765625 202.904C0.765625 300.288 79.7115 379.234 177.096 379.234Z" stroke="#D9D9D9" stroke-width="3"/>
<path d="M199.869 0H210.411C210.799 0.00187739 211.171 0.157052 211.446 0.431803C211.721 0.706553 211.876 1.07868 211.878 1.46729V12.0129C211.876 12.4011 211.721 12.7728 211.446 13.0468C211.171 13.3208 210.799 13.475 210.411 13.4756H199.867C199.479 13.4756 199.106 13.3216 198.832 13.0473C198.557 12.773 198.403 12.401 198.402 12.0129V1.46779C198.403 1.07889 198.558 0.7061 198.833 0.431008C199.108 0.155917 199.48 0.000944338 199.869 0ZM210.411 13.002C210.674 13.0016 210.926 12.8972 211.112 12.7116C211.298 12.526 211.404 12.2743 211.405 12.0114V1.46729C211.403 1.20394 211.298 0.951844 211.112 0.765716C210.925 0.579588 210.673 0.474446 210.41 0.473108H199.871C199.607 0.473647 199.355 0.578561 199.168 0.76489C198.982 0.95122 198.877 1.20378 198.876 1.46729V12.0119C198.877 12.2744 198.981 12.5262 199.167 12.7117C199.353 12.8973 199.605 13.0015 199.867 13.0015L210.411 13.002Z" fill="#F5FAFF"/>
<path d="M210.408 18.2061H199.868C199.706 18.2061 199.546 18.2381 199.396 18.3001C199.247 18.362 199.111 18.4528 198.997 18.5673C198.883 18.6818 198.792 18.8176 198.73 18.9671C198.668 19.1166 198.637 19.2768 198.637 19.4386V29.9832C198.637 30.1445 198.669 30.3041 198.731 30.453C198.793 30.6018 198.884 30.737 198.998 30.8507C199.113 30.9645 199.248 31.0546 199.397 31.1159C199.547 31.1772 199.706 31.2085 199.868 31.2081H210.408C210.733 31.2082 211.045 31.0794 211.276 30.8498C211.507 30.6203 211.637 30.3087 211.639 29.9832V19.4386C211.638 19.1124 211.508 18.7998 211.277 18.5692C211.046 18.3385 210.734 18.2085 210.408 18.2076V18.2061Z" fill="#F5FAFF"/>
<path d="M210.408 36.1748H199.868C199.541 36.1749 199.228 36.3047 198.997 36.5355C198.767 36.7663 198.637 37.0794 198.637 37.4058V47.9463C198.636 48.1081 198.668 48.2683 198.73 48.4178C198.791 48.5673 198.882 48.7031 198.997 48.8175C199.111 48.9319 199.247 49.0226 199.396 49.0843C199.546 49.146 199.706 49.1777 199.868 49.1773H210.408C210.734 49.1772 211.047 49.0474 211.278 48.8166C211.509 48.5858 211.639 48.2728 211.639 47.9463V37.4058C211.638 37.0796 211.508 36.767 211.277 36.5364C211.046 36.3057 210.734 36.1757 210.408 36.1748Z" fill="#F5FAFF"/>
<path d="M211.62 55.1571C211.567 54.8735 211.418 54.6171 211.196 54.4321C210.975 54.2471 210.696 54.145 210.408 54.1436H199.868C199.541 54.1437 199.228 54.2734 198.997 54.5043C198.767 54.7351 198.637 55.0481 198.637 55.3745V65.9146C198.636 66.0763 198.668 66.2365 198.73 66.386C198.791 66.5355 198.882 66.6714 198.997 66.7858C199.111 66.9001 199.247 66.9908 199.396 67.0525C199.546 67.1143 199.706 67.1459 199.868 67.1456H210.408C210.734 67.1454 211.047 67.0157 211.278 66.7849C211.509 66.554 211.639 66.241 211.639 65.9146V55.3766C211.64 55.3035 211.633 55.2305 211.62 55.1587V55.1571Z" fill="#F5FAFF"/>
<path d="M210.886 72.2072C210.734 72.1444 210.572 72.1122 210.408 72.1123H199.868C199.706 72.112 199.546 72.1436 199.396 72.2053C199.247 72.2671 199.111 72.3577 198.997 72.4721C198.882 72.5865 198.791 72.7223 198.73 72.8718C198.668 73.0213 198.636 73.1816 198.637 73.3433V83.8843C198.636 84.0462 198.667 84.2067 198.729 84.3564C198.79 84.5061 198.881 84.6421 198.995 84.7566C199.11 84.8711 199.246 84.9617 199.396 85.0233C199.545 85.0849 199.706 85.1161 199.868 85.1153H210.408C210.734 85.1151 211.047 84.9853 211.278 84.7545C211.509 84.5237 211.638 84.2107 211.639 83.8843V73.3438C211.638 73.1015 211.567 72.8647 211.433 72.6627C211.299 72.4606 211.109 72.3023 210.886 72.2072Z" fill="#F5FAFF"/>
<path d="M232.548 0.236328H222.008C221.682 0.236463 221.369 0.366203 221.138 0.597031C220.907 0.827858 220.777 1.14088 220.777 1.46732V12.0119C220.778 12.1732 220.81 12.3328 220.872 12.4817C220.934 12.6305 221.025 12.7657 221.139 12.8795C221.253 12.9932 221.389 13.0833 221.538 13.1446C221.687 13.206 221.847 13.2373 222.008 13.2368H232.548C232.874 13.2369 233.186 13.1081 233.417 12.8786C233.648 12.649 233.778 12.3374 233.779 12.0119V1.46732C233.778 1.14113 233.648 0.828571 233.418 0.597918C233.187 0.367266 232.875 0.237271 232.548 0.236328Z" fill="#F5FAFF"/>
<path d="M232.548 18.2061H222.008C221.847 18.2061 221.686 18.2381 221.537 18.3001C221.388 18.362 221.252 18.4528 221.138 18.5673C221.023 18.6818 220.933 18.8176 220.871 18.9671C220.809 19.1166 220.777 19.2768 220.777 19.4386V29.9832C220.778 30.1445 220.81 30.3041 220.872 30.453C220.934 30.6018 221.025 30.737 221.139 30.8507C221.253 30.9645 221.389 31.0546 221.538 31.1159C221.687 31.1772 221.847 31.2085 222.008 31.2081H232.548C232.874 31.2082 233.186 31.0794 233.417 30.8498C233.648 30.6203 233.778 30.3087 233.779 29.9832V19.4386C233.778 19.1124 233.648 18.7998 233.418 18.5692C233.187 18.3385 232.875 18.2085 232.548 18.2076V18.2061Z" fill="#107CE8"/>
<path d="M232.548 36.1748H222.008C221.682 36.1749 221.369 36.3047 221.138 36.5355C220.907 36.7663 220.777 37.0794 220.777 37.4058V47.9463C220.777 48.1081 220.809 48.2683 220.87 48.4178C220.932 48.5673 221.023 48.7031 221.137 48.8175C221.252 48.9319 221.387 49.0226 221.537 49.0843C221.686 49.146 221.847 49.1777 222.008 49.1773H232.548C232.875 49.1772 233.188 49.0474 233.419 48.8166C233.649 48.5858 233.779 48.2728 233.779 47.9463V37.4058C233.778 37.0796 233.648 36.767 233.418 36.5364C233.187 36.3057 232.875 36.1757 232.548 36.1748Z" fill="#107CE8"/>
<path d="M232.548 54.1436H222.008C221.75 54.1434 221.499 54.2247 221.289 54.3761C221.08 54.5274 220.924 54.7409 220.844 54.9862C220.8 55.111 220.777 55.2423 220.777 55.3746V65.9146C220.777 66.0763 220.809 66.2366 220.87 66.3861C220.932 66.5356 221.023 66.6714 221.137 66.7858C221.252 66.9001 221.387 66.9908 221.537 67.0526C221.686 67.1143 221.847 67.1459 222.008 67.1456H232.548C232.875 67.1454 233.188 67.0157 233.419 66.7849C233.649 66.554 233.779 66.241 233.779 65.9146V55.3761C233.779 55.0497 233.649 54.7368 233.418 54.5058C233.187 54.2749 232.875 54.1446 232.548 54.1436Z" fill="#107CE8"/>
<path d="M232.548 72.1133H222.008C221.847 72.1129 221.686 72.1446 221.537 72.2063C221.387 72.268 221.252 72.3587 221.137 72.4731C221.023 72.5875 220.932 72.7233 220.87 72.8728C220.809 73.0223 220.777 73.1825 220.777 73.3443V83.8848C220.777 84.0466 220.809 84.2068 220.87 84.3563C220.932 84.5058 221.023 84.6416 221.137 84.756C221.252 84.8704 221.387 84.961 221.537 85.0228C221.686 85.0845 221.847 85.1161 222.008 85.1158H232.548C232.875 85.1157 233.188 84.9859 233.419 84.7551C233.649 84.5243 233.779 84.2112 233.779 83.8848V73.3443C233.779 73.0178 233.649 72.7048 233.419 72.474C233.188 72.2432 232.875 72.1134 232.548 72.1133Z" fill="#F5FAFF"/>
<path d="M254.689 0.236328H244.149C243.823 0.236463 243.51 0.366203 243.279 0.597031C243.048 0.827858 242.918 1.14088 242.918 1.46732V12.0119C242.918 12.1732 242.95 12.3328 243.012 12.4817C243.075 12.6305 243.165 12.7657 243.28 12.8795C243.394 12.9932 243.53 13.0833 243.679 13.1446C243.828 13.206 243.988 13.2373 244.149 13.2368H254.689C255.014 13.2369 255.327 13.1081 255.557 12.8786C255.788 12.649 255.919 12.3374 255.92 12.0119V1.46732C255.919 1.14113 255.789 0.828571 255.558 0.597918C255.328 0.367266 255.016 0.237271 254.689 0.236328Z" fill="#107CE8"/>
<path d="M254.689 18.2061H244.148C243.987 18.2062 243.827 18.2382 243.677 18.3002C243.528 18.3622 243.392 18.453 243.278 18.5675C243.164 18.6819 243.073 18.8178 243.011 18.9672C242.95 19.1167 242.918 19.2769 242.918 19.4386V29.9832C242.918 30.1445 242.95 30.3041 243.012 30.453C243.075 30.6018 243.165 30.737 243.28 30.8507C243.394 30.9645 243.53 31.0546 243.679 31.1159C243.828 31.1772 243.988 31.2085 244.149 31.2081H254.689C255.014 31.2082 255.327 31.0794 255.557 30.8498C255.788 30.6203 255.919 30.3087 255.92 29.9832V19.4386C255.919 19.1124 255.789 18.7998 255.558 18.5692C255.328 18.3385 255.015 18.2085 254.689 18.2076V18.2061Z" fill="#107CE8"/>
<path d="M254.689 36.1748H244.149C243.823 36.1749 243.51 36.3047 243.279 36.5355C243.048 36.7663 242.918 37.0794 242.918 37.4058V47.9463C242.918 48.1081 242.949 48.2683 243.011 48.4178C243.073 48.5673 243.163 48.7031 243.278 48.8175C243.392 48.9319 243.528 49.0226 243.678 49.0843C243.827 49.146 243.987 49.1777 244.149 49.1773H254.689C255.015 49.1772 255.328 49.0474 255.559 48.8166C255.79 48.5858 255.92 48.2728 255.92 47.9463V37.4058C255.919 37.0797 255.789 36.7672 255.559 36.5366C255.328 36.3059 255.016 36.1759 254.689 36.1748Z" fill="#F5FAFF"/>
<path d="M254.689 54.1436H244.149C243.823 54.1437 243.51 54.2734 243.279 54.5043C243.048 54.7351 242.918 55.0481 242.918 55.3746V65.9146C242.918 66.0763 242.949 66.2366 243.011 66.3861C243.073 66.5356 243.163 66.6714 243.278 66.7858C243.392 66.9001 243.528 66.9908 243.678 67.0526C243.827 67.1143 243.987 67.1459 244.149 67.1456H254.689C255.015 67.1454 255.328 67.0157 255.559 66.7849C255.79 66.554 255.92 66.241 255.92 65.9146V55.3761C255.919 55.0497 255.79 54.7368 255.559 54.5059C255.329 54.2749 255.016 54.1446 254.689 54.1436Z" fill="#107CE8"/>
<path d="M254.689 72.1133H244.149C243.987 72.1129 243.827 72.1446 243.678 72.2063C243.528 72.268 243.392 72.3587 243.278 72.4731C243.163 72.5875 243.073 72.7233 243.011 72.8728C242.949 73.0223 242.918 73.1825 242.918 73.3443V83.8848C242.918 84.0466 242.949 84.2068 243.011 84.3563C243.073 84.5058 243.163 84.6416 243.278 84.756C243.392 84.8704 243.528 84.961 243.678 85.0228C243.827 85.0845 243.987 85.1161 244.149 85.1158H254.689C255.015 85.1155 255.328 84.9858 255.559 84.755C255.79 84.5242 255.92 84.2112 255.92 83.8848V73.3443C255.92 73.0178 255.79 72.7048 255.559 72.474C255.328 72.2432 255.016 72.1134 254.689 72.1133Z" fill="#107CE8"/>
<path d="M276.83 0.236328H266.29C265.963 0.236463 265.65 0.366203 265.419 0.597031C265.188 0.827858 265.059 1.14088 265.059 1.46732V12.0119C265.059 12.1732 265.091 12.3328 265.153 12.4816C265.215 12.6304 265.306 12.7656 265.42 12.8793C265.535 12.993 265.67 13.0832 265.819 13.1445C265.969 13.2058 266.128 13.2372 266.29 13.2368H276.83C277.155 13.2369 277.467 13.1081 277.698 12.8786C277.929 12.649 278.059 12.3374 278.061 12.0119V1.46732C278.06 1.14113 277.93 0.828571 277.699 0.597918C277.468 0.367266 277.156 0.237271 276.83 0.236328Z" fill="#107CE8"/>
<path d="M266.292 17.9697H276.832C277.221 17.9716 277.593 18.1268 277.868 18.4015C278.143 18.6763 278.298 19.0484 278.3 19.437V29.9826C278.298 30.3708 278.143 30.7425 277.868 31.0167C277.593 31.2908 277.221 31.4451 276.833 31.4459H266.288C265.9 31.4459 265.528 31.2918 265.254 31.0175C264.979 30.7433 264.825 30.3712 264.824 29.9832V19.4375C264.825 19.0485 264.98 18.6755 265.255 18.4004C265.53 18.1253 265.903 17.9704 266.292 17.9697ZM276.832 30.9717C277.095 30.9713 277.347 30.8669 277.533 30.6814C277.72 30.4958 277.825 30.2441 277.826 29.9811V19.437C277.825 19.1737 277.719 18.9216 277.533 18.7354C277.347 18.5493 277.094 18.4442 276.831 18.4428H266.292C266.029 18.4434 265.776 18.5483 265.59 18.7346C265.403 18.9209 265.298 19.1735 265.298 19.437V29.9816C265.298 30.2442 265.403 30.4959 265.588 30.6814C265.774 30.867 266.026 30.9712 266.288 30.9712L276.832 30.9717Z" fill="#F5FAFF"/>
<path d="M266.292 35.9385H276.832C277.221 35.9404 277.593 36.0955 277.868 36.3703C278.143 36.645 278.298 37.0172 278.3 37.4058V47.9463C278.299 48.3354 278.144 48.7083 277.869 48.9834C277.594 49.2586 277.221 49.4134 276.832 49.4141H266.289C266.097 49.4146 265.906 49.3769 265.728 49.3033C265.551 49.2296 265.389 49.1214 265.253 48.9849C264.979 48.7087 264.825 48.3352 264.824 47.9458V37.4063C264.825 37.0172 264.98 36.6442 265.255 36.3691C265.53 36.094 265.903 35.9392 266.292 35.9385ZM276.832 48.9405C277.096 48.9399 277.348 48.835 277.534 48.6487C277.721 48.4624 277.826 48.2098 277.826 47.9463V37.4063C277.825 37.1429 277.719 36.8908 277.533 36.7047C277.347 36.5186 277.094 36.4134 276.831 36.4121H266.292C266.028 36.4126 265.776 36.5176 265.589 36.7041C265.403 36.8905 265.298 37.1432 265.298 37.4068V47.9468C265.298 48.2105 265.402 48.4635 265.588 48.6506C265.68 48.7429 265.789 48.8162 265.91 48.866C266.03 48.9159 266.159 48.9413 266.289 48.941L276.832 48.9405Z" fill="#F5FAFF"/>
<path d="M276.83 54.1436H266.29C265.963 54.1437 265.65 54.2734 265.419 54.5043C265.188 54.7351 265.059 55.0481 265.059 55.3746V65.9146C265.058 66.0763 265.09 66.2366 265.152 66.3861C265.213 66.5356 265.304 66.6714 265.418 66.7858C265.533 66.9001 265.669 66.9908 265.818 67.0526C265.968 67.1143 266.128 67.1459 266.29 67.1456H276.83C277.156 67.1454 277.469 67.0157 277.7 66.7849C277.931 66.554 278.06 66.241 278.061 65.9146V55.3761C278.06 55.0496 277.93 54.7367 277.7 54.5057C277.469 54.2747 277.156 54.1445 276.83 54.1436Z" fill="#F5FAFF"/>
<path d="M276.83 72.1133H266.29C266.128 72.1129 265.968 72.1446 265.818 72.2063C265.669 72.268 265.533 72.3587 265.418 72.4731C265.304 72.5875 265.213 72.7233 265.152 72.8728C265.09 73.0223 265.058 73.1825 265.059 73.3443V83.8848C265.058 84.0465 265.09 84.2067 265.152 84.3562C265.214 84.5057 265.304 84.6415 265.419 84.7559C265.533 84.8702 265.669 84.9609 265.818 85.0226C265.968 85.0844 266.128 85.1161 266.29 85.1158H276.83C277.156 85.1157 277.469 84.9859 277.7 84.7551C277.931 84.5243 278.06 84.2112 278.061 83.8848V73.3443C278.06 73.0178 277.931 72.7048 277.7 72.474C277.469 72.2432 277.156 72.1134 276.83 72.1133Z" fill="#107CE8"/>
<path d="M288.427 0H298.973C299.361 0.00187739 299.733 0.157052 300.008 0.431803C300.283 0.706553 300.438 1.07868 300.44 1.46729V12.0129C300.439 12.4011 300.283 12.7728 300.008 13.0469C299.734 13.321 299.361 13.4753 298.973 13.4761H288.428C288.04 13.4755 287.668 13.3211 287.394 13.0468C287.12 12.7725 286.965 12.4007 286.965 12.0129V1.46779C286.965 1.07964 287.119 0.707462 287.393 0.432472C287.667 0.157483 288.039 0.00202125 288.427 0ZM298.973 13.002C299.236 13.0016 299.488 12.8972 299.674 12.7116C299.86 12.526 299.966 12.2743 299.967 12.0114V1.46729C299.965 1.20394 299.86 0.951844 299.674 0.765716C299.487 0.579588 299.235 0.474446 298.972 0.473108H288.429C288.166 0.474455 287.914 0.579739 287.728 0.765996C287.543 0.952253 287.438 1.20436 287.438 1.46729V12.0119C287.438 12.2742 287.543 12.5257 287.728 12.7112C287.914 12.8967 288.165 13.0011 288.428 13.0015L298.973 13.002Z" fill="#F5FAFF"/>
<path d="M288.427 17.9697H298.973C299.361 17.9716 299.733 18.1268 300.008 18.4015C300.283 18.6763 300.438 19.0484 300.44 19.437V29.9826C300.439 30.3708 300.283 30.7425 300.008 31.0167C299.734 31.2908 299.361 31.4451 298.973 31.4459H288.428C288.04 31.4453 287.668 31.291 287.394 31.0167C287.119 30.7424 286.965 30.3705 286.965 29.9826V19.4375C286.965 19.0494 287.119 18.6772 287.393 18.4022C287.667 18.1272 288.039 17.9717 288.427 17.9697ZM288.427 30.9717H298.972C299.235 30.9713 299.487 30.8669 299.673 30.6814C299.86 30.4958 299.965 30.2441 299.966 29.9811V19.437C299.965 19.1737 299.859 18.9216 299.673 18.7354C299.487 18.5493 299.235 18.4442 298.971 18.4428H288.429C288.166 18.4442 287.914 18.5495 287.728 18.7357C287.543 18.922 287.438 19.1741 287.438 19.437V29.9816C287.438 30.2441 287.542 30.4958 287.728 30.6814C287.913 30.867 288.165 30.9715 288.427 30.9717Z" fill="#F5FAFF"/>
<path d="M288.427 35.9385H298.973C299.361 35.9404 299.733 36.0955 300.008 36.3703C300.283 36.645 300.438 37.0172 300.441 37.4058V47.9463C300.44 48.3354 300.285 48.7083 300.01 48.9834C299.735 49.2586 299.362 49.4134 298.973 49.4141H288.428C288.236 49.414 288.045 49.3759 287.867 49.302C287.689 49.2281 287.528 49.1198 287.392 48.9834C287.256 48.847 287.148 48.6852 287.075 48.5071C287.002 48.3291 286.964 48.1383 286.965 47.9458V37.4063C286.965 37.0181 287.119 36.6459 287.393 36.3709C287.667 36.096 288.039 35.9405 288.427 35.9385ZM288.427 48.9405H298.972C299.235 48.9399 299.488 48.835 299.674 48.6487C299.86 48.4624 299.965 48.2098 299.966 47.9463V37.4063C299.964 37.1429 299.859 36.8908 299.673 36.7047C299.486 36.5186 299.234 36.4134 298.971 36.4121H288.429C288.166 36.4134 287.914 36.5187 287.728 36.705C287.543 36.8912 287.438 37.1434 287.438 37.4063V47.9463C287.438 48.0766 287.463 48.2057 287.512 48.3262C287.562 48.4467 287.635 48.5562 287.727 48.6486C287.819 48.7409 287.928 48.8142 288.048 48.8643C288.168 48.9144 288.297 48.9403 288.427 48.9405Z" fill="#F5FAFF"/>
<path d="M298.973 54.1436H288.428C288.103 54.145 287.791 54.2754 287.561 54.5061C287.332 54.7368 287.203 55.0491 287.203 55.3746V65.9146C287.203 66.0759 287.234 66.2356 287.295 66.3848C287.357 66.534 287.447 66.6696 287.56 66.7839C287.674 66.8982 287.809 66.989 287.958 67.0511C288.107 67.1131 288.267 67.1452 288.428 67.1456H298.973C299.299 67.1454 299.612 67.0157 299.843 66.7849C300.074 66.554 300.203 66.241 300.204 65.9146V55.3761C300.203 55.0499 300.072 54.7375 299.842 54.5068C299.611 54.2762 299.299 54.1462 298.973 54.1451V54.1436Z" fill="#107CE8"/>
<path d="M298.973 72.1133H288.428C288.267 72.1137 288.107 72.1459 287.958 72.2079C287.809 72.27 287.674 72.3608 287.561 72.4751C287.447 72.5894 287.357 72.725 287.295 72.8741C287.234 73.0233 287.203 73.183 287.203 73.3443V83.8848C287.203 84.0461 287.234 84.2059 287.295 84.355C287.357 84.5042 287.447 84.6398 287.56 84.7541C287.674 84.8685 287.809 84.9592 287.958 85.0213C288.107 85.0834 288.267 85.1155 288.428 85.1158H298.973C299.299 85.1157 299.612 84.9859 299.843 84.7551C300.074 84.5243 300.203 84.2112 300.204 83.8848V73.3443C300.203 73.0178 300.074 72.7048 299.843 72.474C299.612 72.2432 299.299 72.1134 298.973 72.1133Z" fill="#F5FAFF"/>
<path d="M310.568 0H321.115C321.503 0.00187739 321.876 0.157052 322.15 0.431803C322.425 0.706553 322.581 1.07868 322.583 1.46729V12.0129C322.581 12.4011 322.425 12.7728 322.151 13.0469C321.876 13.321 321.504 13.4753 321.115 13.4761H310.568C310.18 13.4756 309.809 13.3212 309.534 13.0469C309.26 12.7726 309.106 12.4008 309.105 12.0129V1.46779C309.106 1.07964 309.26 0.707462 309.534 0.432472C309.808 0.157483 310.18 0.00202125 310.568 0ZM321.115 13.002C321.378 13.0016 321.63 12.8972 321.816 12.7116C322.002 12.526 322.108 12.2743 322.109 12.0114V1.46729C322.107 1.20394 322.002 0.951844 321.816 0.765716C321.629 0.579588 321.377 0.474446 321.114 0.473108H310.569C310.306 0.474455 310.055 0.579739 309.869 0.765996C309.683 0.952253 309.579 1.20436 309.579 1.46729V12.0119C309.579 12.2742 309.683 12.5257 309.869 12.7112C310.054 12.8967 310.306 13.0011 310.568 13.0015L321.115 13.002Z" fill="#F5FAFF"/>
<path d="M310.568 17.9697H321.115C321.503 17.9716 321.876 18.1268 322.15 18.4015C322.425 18.6763 322.581 19.0484 322.583 19.437V29.9826C322.581 30.3708 322.425 30.7425 322.151 31.0167C321.876 31.2908 321.504 31.4451 321.115 31.4459H310.568C310.18 31.4452 309.809 31.2908 309.534 31.0165C309.26 30.7422 309.106 30.3705 309.105 29.9826V19.4375C309.106 19.0494 309.26 18.6772 309.534 18.4022C309.808 18.1272 310.18 17.9717 310.568 17.9697ZM310.568 30.9717H321.115C321.378 30.9713 321.63 30.8669 321.816 30.6814C322.002 30.4958 322.108 30.2441 322.109 29.9811V19.437C322.107 19.1737 322.002 18.9216 321.816 18.7354C321.629 18.5493 321.377 18.4442 321.114 18.4428H310.569C310.306 18.4442 310.055 18.5495 309.869 18.7357C309.683 18.922 309.579 19.1741 309.579 19.437V29.9816C309.579 30.2441 309.683 30.4957 309.869 30.6813C310.054 30.8669 310.306 30.9713 310.568 30.9717H310.568Z" fill="#F5FAFF"/>
<path d="M321.113 36.1748H310.569C310.243 36.1763 309.932 36.3067 309.702 36.5374C309.472 36.7681 309.344 37.0803 309.344 37.4058V47.9463C309.343 48.1076 309.375 48.2674 309.436 48.4166C309.497 48.5657 309.587 48.7013 309.701 48.8157C309.815 48.93 309.95 49.0208 310.099 49.0828C310.248 49.1449 310.407 49.177 310.569 49.1773H321.113C321.44 49.1772 321.753 49.0474 321.984 48.8166C322.214 48.5858 322.344 48.2728 322.344 47.9463V37.4058C322.343 37.0796 322.213 36.767 321.983 36.5364C321.752 36.3057 321.439 36.1757 321.113 36.1748Z" fill="#107CE8"/>
<path d="M321.113 54.1436H310.569C310.243 54.1452 309.932 54.2756 309.702 54.5063C309.473 54.7369 309.344 55.0491 309.344 55.3746V65.9146C309.343 66.0759 309.375 66.2356 309.436 66.3848C309.497 66.534 309.587 66.6696 309.701 66.7839C309.815 66.8982 309.95 66.989 310.099 67.0511C310.248 67.1131 310.407 67.1452 310.569 67.1456H321.113C321.44 67.1454 321.753 67.0157 321.984 66.7849C322.214 66.554 322.344 66.241 322.344 65.9146V55.3761C322.343 55.0499 322.213 54.7373 321.983 54.5067C321.752 54.276 321.439 54.146 321.113 54.1451V54.1436Z" fill="#F5FAFF"/>
<path d="M310.568 71.877H321.115C321.504 71.8776 321.877 72.0325 322.152 72.3076C322.427 72.5827 322.582 72.9557 322.583 73.3448V83.8848C322.582 84.2739 322.427 84.6468 322.152 84.9219C321.877 85.197 321.504 85.3519 321.115 85.3526H310.569C310.376 85.3524 310.185 85.3143 310.008 85.2404C309.83 85.1665 309.668 85.0582 309.532 84.9217C309.396 84.7853 309.289 84.6234 309.216 84.4453C309.142 84.2672 309.105 84.0763 309.105 83.8838V73.3448C309.105 73.1523 309.142 72.9616 309.216 72.7837C309.289 72.6057 309.397 72.4439 309.533 72.3076C309.668 72.1713 309.83 72.0631 310.007 71.9892C310.185 71.9153 310.376 71.8772 310.568 71.877ZM321.115 84.879C321.378 84.8784 321.631 84.7734 321.817 84.587C322.004 84.4006 322.109 84.1479 322.109 83.8843V73.3448C322.108 73.0812 322.003 72.8285 321.817 72.6422C321.631 72.4558 321.378 72.351 321.114 72.3506H310.57C310.44 72.3507 310.311 72.3765 310.191 72.4265C310.07 72.4766 309.961 72.5498 309.869 72.6421C309.777 72.7344 309.704 72.8439 309.655 72.9644C309.605 73.0849 309.58 73.214 309.58 73.3442V83.8848C309.58 84.0151 309.605 84.1442 309.654 84.2647C309.704 84.3853 309.777 84.4948 309.869 84.5872C309.961 84.6796 310.07 84.7528 310.19 84.8029C310.31 84.853 310.439 84.8788 310.57 84.879H321.115Z" fill="#F5FAFF"/>
<path d="M343.254 0.236328H332.709C332.384 0.237813 332.072 0.368174 331.843 0.598884C331.613 0.829594 331.484 1.14185 331.484 1.46732V12.0119C331.484 12.3368 331.613 12.6483 331.843 12.878C332.073 13.1078 332.384 13.2368 332.709 13.2368H343.254C343.58 13.2369 343.892 13.1081 344.123 12.8786C344.354 12.649 344.484 12.3374 344.485 12.0119V1.46732C344.484 1.14104 344.354 0.828398 344.124 0.597732C343.893 0.367064 343.58 0.237136 343.254 0.236328Z" fill="#107CE8"/>
<path d="M343.254 18.2061H332.709C332.384 18.2075 332.072 18.3379 331.843 18.5686C331.613 18.7993 331.484 19.1116 331.484 19.4371V29.9817C331.484 30.3065 331.613 30.6181 331.843 30.8478C332.073 31.0775 332.384 31.2065 332.709 31.2065H343.254C343.58 31.2067 343.892 31.0779 344.123 30.8483C344.354 30.6187 344.484 30.3071 344.485 29.9817V19.4386C344.485 19.112 344.355 18.799 344.124 18.568C343.893 18.337 343.58 18.2069 343.254 18.2061Z" fill="#107CE8"/>
<path d="M343.254 36.1748H332.709C332.384 36.1763 332.072 36.3067 331.843 36.5374C331.613 36.7681 331.484 37.0803 331.484 37.4058V47.9463C331.484 48.1076 331.515 48.2674 331.577 48.4166C331.638 48.5657 331.728 48.7013 331.842 48.8157C331.955 48.93 332.091 49.0208 332.239 49.0828C332.388 49.1449 332.548 49.177 332.709 49.1773H343.254C343.58 49.1772 343.893 49.0474 344.124 48.8166C344.355 48.5858 344.485 48.2728 344.485 47.9463V37.4058C344.484 37.0796 344.354 36.767 344.123 36.5364C343.893 36.3057 343.58 36.1757 343.254 36.1748Z" fill="#F5FAFF"/>
<path d="M332.706 53.9072H343.252C343.64 53.9091 344.013 54.0643 344.288 54.339C344.562 54.6138 344.718 54.9859 344.72 55.3745V65.9151C344.719 66.3041 344.564 66.6771 344.289 66.9522C344.014 67.2273 343.641 67.3822 343.252 67.3829H332.709C332.517 67.3827 332.326 67.3446 332.148 67.2707C331.971 67.1968 331.809 67.0886 331.673 66.9522C331.537 66.8158 331.43 66.654 331.356 66.4759C331.283 66.2978 331.246 66.1071 331.246 65.9145V55.375C331.247 54.9873 331.401 54.6155 331.674 54.3406C331.948 54.0657 332.318 53.9099 332.706 53.9072ZM343.252 66.9092C343.515 66.9087 343.768 66.8038 343.954 66.6175C344.141 66.4311 344.246 66.1786 344.246 65.9151V55.375C344.244 55.1117 344.139 54.8596 343.953 54.6735C343.766 54.4873 343.514 54.3822 343.251 54.3808H332.709C332.446 54.3822 332.195 54.4875 332.009 54.6738C331.823 54.86 331.719 55.1121 331.719 55.375V65.9151C331.718 66.0454 331.744 66.1745 331.793 66.295C331.843 66.4156 331.916 66.5252 332.008 66.6175C332.099 66.7099 332.209 66.7832 332.329 66.8332C332.449 66.8833 332.578 66.9091 332.709 66.9092H343.252Z" fill="#F5FAFF"/>
<path d="M343.254 72.1133H332.709C332.548 72.1136 332.388 72.1457 332.239 72.2078C332.091 72.2698 331.955 72.3606 331.842 72.4749C331.728 72.5893 331.638 72.7249 331.577 72.8741C331.515 73.0232 331.484 73.183 331.484 73.3443V83.8848C331.484 84.0461 331.515 84.2059 331.577 84.355C331.638 84.5042 331.728 84.6398 331.842 84.7541C331.955 84.8685 332.091 84.9592 332.239 85.0213C332.388 85.0834 332.548 85.1155 332.709 85.1158H343.254C343.58 85.1157 343.893 84.9859 344.124 84.7551C344.355 84.5243 344.485 84.2112 344.485 83.8848V73.3443C344.485 73.0178 344.355 72.7048 344.124 72.474C343.893 72.2432 343.58 72.1134 343.254 72.1133Z" fill="#107CE8"/>
<path d="M365.395 0.236328H354.85C354.524 0.237813 354.213 0.368174 353.983 0.598884C353.754 0.829594 353.625 1.14185 353.625 1.46732V12.0119C353.625 12.3368 353.754 12.6483 353.984 12.878C354.213 13.1078 354.525 13.2368 354.85 13.2368H365.395C365.72 13.2369 366.033 13.1081 366.263 12.8786C366.494 12.649 366.625 12.3374 366.626 12.0119V1.46732C366.625 1.14104 366.495 0.828398 366.264 0.597732C366.033 0.367064 365.721 0.237136 365.395 0.236328Z" fill="#107CE8"/>
<path d="M365.395 18.2061H354.85C354.524 18.2075 354.213 18.3379 353.983 18.5686C353.754 18.7993 353.625 19.1116 353.625 19.4371V29.9817C353.625 30.3065 353.754 30.6181 353.984 30.8478C354.213 31.0775 354.525 31.2065 354.85 31.2065H365.395C365.72 31.2067 366.033 31.0779 366.263 30.8483C366.494 30.6187 366.625 30.3071 366.626 29.9817V19.4386C366.625 19.112 366.496 18.799 366.265 18.568C366.034 18.337 365.721 18.2069 365.395 18.2061Z" fill="#107CE8"/>
<path d="M365.395 36.1748H354.85C354.524 36.1763 354.213 36.3067 353.983 36.5374C353.754 36.7681 353.625 37.0803 353.625 37.4058V47.9463C353.625 48.1076 353.656 48.2674 353.717 48.4166C353.778 48.5657 353.869 48.7013 353.982 48.8157C354.096 48.93 354.231 49.0208 354.38 49.0828C354.529 49.1449 354.689 49.177 354.85 49.1773H365.395C365.721 49.1772 366.034 49.0474 366.265 48.8166C366.496 48.5858 366.625 48.2728 366.625 47.9463V37.4058C366.625 37.0796 366.495 36.767 366.264 36.5364C366.033 36.3057 365.721 36.1757 365.395 36.1748Z" fill="#F5FAFF"/>
<path d="M365.395 54.1436H354.85C354.524 54.145 354.213 54.2754 353.983 54.5061C353.754 54.7368 353.625 55.0491 353.625 55.3746V65.9146C353.625 66.0759 353.656 66.2356 353.717 66.3848C353.778 66.534 353.869 66.6696 353.982 66.7839C354.096 66.8982 354.231 66.989 354.38 67.0511C354.529 67.1131 354.689 67.1452 354.85 67.1456H365.395C365.721 67.1454 366.034 67.0157 366.265 66.7849C366.496 66.554 366.625 66.241 366.625 65.9146V55.3761C366.625 55.0499 366.495 54.7373 366.264 54.5067C366.033 54.276 365.721 54.146 365.395 54.1451V54.1436Z" fill="#107CE8"/>
<path d="M365.395 72.1133H354.85C354.689 72.1136 354.529 72.1457 354.38 72.2078C354.231 72.2698 354.096 72.3606 353.982 72.4749C353.869 72.5893 353.778 72.7249 353.717 72.8741C353.656 73.0232 353.625 73.183 353.625 73.3443V83.8848C353.625 84.0461 353.656 84.2059 353.717 84.355C353.778 84.5042 353.869 84.6398 353.982 84.7541C354.096 84.8685 354.231 84.9592 354.38 85.0213C354.529 85.0834 354.689 85.1155 354.85 85.1158H365.395C365.721 85.1157 366.034 84.9859 366.265 84.7551C366.496 84.5243 366.625 84.2112 366.625 83.8848V73.3443C366.625 73.0178 366.496 72.7048 366.265 72.474C366.034 72.2432 365.721 72.1134 365.395 72.1133Z" fill="#107CE8"/>
<path d="M387.535 0.236328H376.991C376.665 0.237813 376.353 0.368174 376.124 0.598884C375.894 0.829594 375.765 1.14185 375.766 1.46732V12.0119C375.766 12.3368 375.895 12.6483 376.124 12.878C376.354 13.1078 376.666 13.2368 376.991 13.2368H387.536C387.861 13.2369 388.173 13.1081 388.404 12.8786C388.635 12.649 388.765 12.3374 388.767 12.0119V1.46732C388.766 1.14104 388.636 0.828398 388.405 0.597732C388.174 0.367064 387.861 0.237136 387.535 0.236328Z" fill="#F5FAFF"/>
<path d="M387.535 18.2061H376.991C376.665 18.2075 376.353 18.3379 376.124 18.5686C375.894 18.7993 375.765 19.1116 375.766 19.4371V29.9817C375.766 30.3065 375.895 30.6181 376.124 30.8478C376.354 31.0775 376.666 31.2065 376.991 31.2065H387.536C387.861 31.2067 388.173 31.0779 388.404 30.8483C388.635 30.6187 388.765 30.3071 388.767 29.9817V19.4386C388.766 19.112 388.636 18.799 388.405 18.568C388.175 18.337 387.862 18.2069 387.535 18.2061Z" fill="#107CE8"/>
<path d="M387.535 36.1748H376.991C376.665 36.1763 376.353 36.3067 376.124 36.5374C375.894 36.7681 375.765 37.0803 375.766 37.4058V47.9463C375.765 48.1076 375.796 48.2674 375.858 48.4166C375.919 48.5657 376.009 48.7013 376.123 48.8157C376.237 48.93 376.372 49.0208 376.521 49.0828C376.67 49.1449 376.829 49.177 376.991 49.1773H387.535C387.862 49.1772 388.175 49.0474 388.405 48.8166C388.636 48.5858 388.766 48.2728 388.766 47.9463V37.4058C388.765 37.0796 388.635 36.767 388.405 36.5364C388.174 36.3057 387.861 36.1757 387.535 36.1748Z" fill="#107CE8"/>
<path d="M387.535 54.1436H376.991C376.665 54.145 376.353 54.2754 376.124 54.5061C375.894 54.7368 375.765 55.0491 375.766 55.3746V65.9146C375.765 66.0759 375.796 66.2356 375.858 66.3848C375.919 66.534 376.009 66.6696 376.123 66.7839C376.237 66.8982 376.372 66.989 376.521 67.0511C376.67 67.1131 376.829 67.1452 376.991 67.1456H387.535C387.862 67.1454 388.175 67.0157 388.405 66.7849C388.636 66.554 388.766 66.241 388.766 65.9146V55.3761C388.765 55.0499 388.635 54.7373 388.405 54.5067C388.174 54.276 387.861 54.146 387.535 54.1451V54.1436Z" fill="#107CE8"/>
<path d="M387.535 72.1133H376.991C376.829 72.1137 376.67 72.1459 376.521 72.2079C376.372 72.27 376.237 72.3608 376.123 72.4751C376.009 72.5894 375.919 72.725 375.858 72.8741C375.797 73.0233 375.765 73.183 375.766 73.3443V83.8848C375.765 84.0461 375.796 84.2059 375.858 84.355C375.919 84.5042 376.009 84.6398 376.123 84.7541C376.237 84.8685 376.372 84.9592 376.521 85.0213C376.67 85.0834 376.829 85.1155 376.991 85.1158H387.535C387.862 85.1157 388.175 84.9859 388.405 84.7551C388.636 84.5243 388.766 84.2112 388.766 83.8848V73.3443C388.766 73.0178 388.636 72.7048 388.405 72.474C388.175 72.2432 387.862 72.1134 387.535 72.1133Z" fill="#F5FAFF"/>
<path d="M409.676 0.236328H399.131C398.806 0.237813 398.494 0.368174 398.264 0.598884C398.035 0.829594 397.906 1.14185 397.906 1.46732V12.0119C397.906 12.3368 398.035 12.6483 398.265 12.878C398.495 13.1078 398.806 13.2368 399.131 13.2368H409.676C410.002 13.2369 410.314 13.1081 410.545 12.8786C410.775 12.649 410.906 12.3374 410.907 12.0119V1.46732C410.906 1.14113 410.776 0.828571 410.546 0.597918C410.315 0.367266 410.002 0.237271 409.676 0.236328H409.676Z" fill="#F5FAFF"/>
<path d="M409.676 18.2061H399.131C398.806 18.2075 398.494 18.3379 398.264 18.5686C398.035 18.7993 397.906 19.1116 397.906 19.4371V29.9817C397.906 30.3065 398.035 30.6181 398.265 30.8478C398.495 31.0775 398.806 31.2065 399.131 31.2065H409.676C410.002 31.2067 410.314 31.0779 410.545 30.8483C410.775 30.6187 410.906 30.3071 410.907 29.9817V19.4386C410.907 19.112 410.777 18.799 410.546 18.568C410.315 18.337 410.002 18.2069 409.676 18.2061Z" fill="#F5FAFF"/>
<path d="M409.676 36.1748H399.131C398.806 36.1763 398.494 36.3067 398.264 36.5374C398.035 36.7681 397.906 37.0803 397.906 37.4058V47.9463C397.906 48.1076 397.937 48.2674 397.998 48.4166C398.06 48.5657 398.15 48.7013 398.264 48.8157C398.377 48.93 398.513 49.0208 398.661 49.0828C398.81 49.1449 398.97 49.177 399.131 49.1773H409.676C410.002 49.1772 410.315 49.0474 410.546 48.8166C410.777 48.5858 410.907 48.2728 410.907 47.9463V37.4058C410.906 37.0796 410.776 36.767 410.545 36.5364C410.314 36.3057 410.002 36.1757 409.676 36.1748Z" fill="#107CE8"/>
<path d="M409.676 54.1436H399.131C398.806 54.1452 398.494 54.2756 398.265 54.5063C398.035 54.7369 397.906 55.0491 397.906 55.3746V65.9146C397.906 66.0759 397.937 66.2356 397.998 66.3848C398.06 66.534 398.15 66.6696 398.264 66.7839C398.377 66.8982 398.513 66.989 398.661 67.0511C398.81 67.1131 398.97 67.1452 399.131 67.1456H409.676C410.002 67.1454 410.315 67.0157 410.546 66.7849C410.777 66.554 410.907 66.241 410.907 65.9146V55.3761C410.906 55.0499 410.776 54.7373 410.545 54.5067C410.314 54.276 410.002 54.146 409.676 54.1451V54.1436Z" fill="#F5FAFF"/>
<path d="M409.676 72.1133H399.131C398.97 72.1136 398.81 72.1457 398.661 72.2078C398.513 72.2698 398.377 72.3606 398.264 72.4749C398.15 72.5893 398.06 72.7249 397.998 72.8741C397.937 73.0232 397.906 73.183 397.906 73.3443V83.8848C397.906 84.0461 397.937 84.2058 397.999 84.355C398.06 84.5041 398.15 84.6397 398.264 84.754C398.377 84.8683 398.513 84.9591 398.661 85.0212C398.81 85.0832 398.97 85.1154 399.131 85.1158H409.676C410.002 85.1157 410.315 84.9859 410.546 84.7551C410.777 84.5243 410.907 84.2112 410.907 83.8848V73.3443C410.907 73.0178 410.777 72.7048 410.546 72.474C410.315 72.2432 410.002 72.1134 409.676 72.1133Z" fill="#F5FAFF"/>
<mask id="mask0_2646_2937" style="mask-type:luminance" maskUnits="userSpaceOnUse" x="0" y="25" width="355" height="355">
<path d="M177.096 380C274.903 380 354.192 300.711 354.192 202.904C354.192 105.096 274.903 25.8076 177.096 25.8076C79.2886 25.8076 0 105.096 0 202.904C0 300.711 79.2886 380 177.096 380Z" fill="white"/>
</mask>
<g mask="url(#mask0_2646_2937)">
<path d="M135.244 140.129H106.664V166.668H135.244V140.129Z" fill="#FEE6CC"/>
<path d="M180.862 380.154C179.676 380.182 178.485 380.196 177.289 380.196C148.913 380.196 107.562 370.978 75.1731 348.771C72.4932 346.934 75.4967 338.23 75.1731 321.441L145.056 311.62L180.132 340.004L180.862 380.154Z" fill="#333333"/>
<path d="M144.333 341.948H144.039L144.29 341.915L144.333 341.948Z" fill="#9C9C9C"/>
<path d="M119.104 145.45C136.97 145.45 151.454 130.966 151.454 113.1C151.454 95.2335 136.97 80.75 119.104 80.75C101.237 80.75 86.7539 95.2335 86.7539 113.1C86.7539 130.966 101.237 145.45 119.104 145.45Z" fill="#FEE6CC"/>
<path d="M147.433 89.3819C147.433 89.3819 155.894 73.2069 137.279 71.7366C137.279 71.7366 121.41 57.3413 105.235 69.1051C105.235 69.1051 96.4122 69.1051 91.5878 79.0889C91.5878 79.0889 84.6468 76.4574 83.1239 83.5004C83.1239 83.5004 78.0463 98.205 83.1239 111.439C88.2015 124.673 89.8877 126.144 89.8877 126.144C89.8877 126.144 81.5443 98.3979 101.853 96.9276C122.161 95.4572 144.887 82.7655 146.579 98.9404C148.272 115.115 150.818 119.1 150.818 119.1C150.818 119.1 166.894 95.9992 147.433 89.3819Z" fill="#333333"/>
<path d="M202.786 192.826L202.684 193.375L201.514 199.55L193.431 242.259L192.953 244.773L191.949 250.091L190.576 257.345L187.532 273.421L186.66 278.028L186.334 279.756L186.22 280.363L185.316 285.131L185.041 286.57L182.835 302.92V319.229L180.988 341.912L180.993 341.945L73.1348 340.493C68.9681 337.794 64.3101 310.794 67.3677 285.519L67.3488 285.126L67.0885 279.752L67.0553 279.06L67.0043 278.023L66.005 257.341L65.9861 257L65.683 250.73L65.3987 244.769L65.2757 242.255L64.059 217.098L63.2352 200.015L62.5156 185.143L65.4089 184.163L96.3517 173.646L109.167 156.984L135.844 157.183L148.903 157.283L170.695 177.493L175.653 179.861L175.691 179.88L179.246 181.58L188.261 185.884L197.793 190.439L202.684 192.773L202.786 192.826Z" fill="#F7F7F7"/>
<path d="M112.611 293.417C110.656 294.174 108.559 294.494 106.468 294.353C104.376 294.212 102.341 293.614 100.505 292.601C98.6695 291.589 97.0781 290.186 95.8432 288.492C94.6083 286.798 93.7597 284.854 93.3573 282.797L42.9023 275.638L60.442 255.798L105.666 265.637C109.167 265.19 112.711 266.043 115.626 268.034C118.541 270.025 120.624 273.017 121.48 276.442C122.336 279.866 121.906 283.486 120.272 286.615C118.637 289.744 115.911 292.164 112.611 293.417Z" fill="#FEE6CC"/>
<path d="M90.1181 257.344C89.1835 256.16 87.8604 255.343 86.3823 255.039L65.6809 250.735L63.5547 250.294C62.3192 250.036 61.152 249.521 60.1296 248.781C59.1072 248.04 58.2526 247.093 57.6218 246C56.9674 244.852 56.5715 243.576 56.4617 242.259C56.3631 241.062 56.5064 239.858 56.8833 238.717L64.0569 217.102L68.7115 203.078C69.2755 201.386 69.6084 199.626 69.701 197.845C69.96 192.918 68.4354 188.062 65.4063 184.168C62.7431 180.744 59.0493 178.268 54.8705 177.104C50.6918 175.941 46.2497 176.153 42.2006 177.709C42.0822 177.752 41.9592 177.799 41.8408 177.846C38.937 179.006 36.3425 180.825 34.2626 183.159C32.1827 185.494 30.6742 188.28 29.8565 191.298L24.7998 209.693L14.3685 247.613C13.3243 251.413 13.1134 255.393 13.7501 259.282C14.3868 263.17 15.8562 266.875 18.0577 270.143C20.2591 273.411 23.1406 276.165 26.5051 278.216C29.8695 280.267 33.6373 281.567 37.5507 282.027L67.3666 285.521L81.1643 287.14C82.7598 287.332 84.3689 286.916 85.6711 285.974C86.9733 285.033 87.873 283.635 88.191 282.06C88.213 281.974 88.23 281.887 88.242 281.8L88.5738 279.754L91.3808 262.528L91.4093 262.353C91.5558 261.474 91.5165 260.575 91.2941 259.712C91.0717 258.849 90.6711 258.043 90.1181 257.344Z" fill="#F7F7F7"/>
<path d="M144.755 293.968C146.797 294.442 148.918 294.463 150.969 294.028C153.02 293.594 154.951 292.715 156.625 291.454C158.3 290.192 159.678 288.579 160.661 286.728C161.645 284.877 162.211 282.832 162.319 280.739L211.26 266.537L191.096 249.367L147.712 265.485C144.181 265.536 140.792 266.88 138.187 269.263C135.582 271.646 133.942 274.901 133.577 278.413C133.213 281.925 134.149 285.448 136.21 288.315C138.27 291.182 141.31 293.194 144.755 293.968Z" fill="#FEE6CC"/>
<path d="M235.557 234.768L212.28 181.196C210.376 176.798 206.976 173.216 202.682 171.087C201.355 170.434 199.961 169.926 198.525 169.572C198.302 169.515 198.08 169.463 197.857 169.419C194.811 168.754 191.652 168.812 188.633 169.589C185.874 170.298 183.294 171.581 181.064 173.354C178.833 175.126 177.001 177.35 175.688 179.878C175.674 179.899 175.661 179.921 175.65 179.944C174.183 182.783 173.403 185.926 173.372 189.121C173.342 192.316 174.062 195.474 175.475 198.34L175.764 198.918L192.213 231.953C192.775 233.083 193.091 234.319 193.142 235.58C193.193 236.84 192.976 238.097 192.507 239.269C192.037 240.44 191.326 241.498 190.418 242.375C189.511 243.252 188.428 243.926 187.242 244.355L186.086 244.772L165.309 252.275C163.75 252.831 162.468 253.97 161.732 255.453C160.997 256.936 160.865 258.647 161.365 260.224L161.416 260.39L167.24 279.027C167.268 279.112 167.297 279.197 167.33 279.282C167.381 279.443 167.444 279.599 167.519 279.75C168.138 281.139 169.232 282.26 170.604 282.914C171.977 283.568 173.537 283.71 175.005 283.316L186.217 280.356L188.504 279.749L217.46 272.108C221.27 271.102 224.817 269.283 227.859 266.778C230.901 264.273 233.365 261.141 235.084 257.595C236.803 254.049 237.735 250.173 237.816 246.233C237.898 242.294 237.127 238.383 235.557 234.769V234.768Z" fill="#F7F7F7"/>
<path d="M17.7305 279.755C22.0757 288.019 23.4792 295.678 31.1954 302.918H242.12C244.182 302.921 246.158 303.742 247.616 305.201C249.074 306.659 249.893 308.636 249.895 310.698L250.201 364.927C263.367 358.878 275.696 351.155 286.883 341.948C289.989 339.396 292.999 336.734 295.912 333.961C297.82 332.152 299.683 330.299 301.5 328.402C315.119 314.214 330.839 297.749 338.777 279.755H17.7305Z" fill="#333333"/>
<path d="M301.501 328.401C299.688 330.3 297.826 332.153 295.914 333.96H250.359V328.401H301.501Z" fill="white"/>
<path d="M202.358 150.608C202.133 150.193 201.8 149.846 201.394 149.604C200.988 149.363 200.525 149.235 200.052 149.235H44.8225C44.1265 149.237 43.4596 149.515 42.9679 150.007C42.4762 150.5 42.1998 151.167 42.1992 151.863V244.772H202.68V151.863C202.683 151.424 202.572 150.992 202.358 150.608Z" fill="#333333"/>
<path d="M42.0586 242.257V253.722C42.0586 254.682 42.4399 255.603 43.1187 256.282C43.7975 256.96 44.7181 257.342 45.6781 257.342H104.91V279.968H104.123C104.062 279.968 104.001 279.98 103.943 280.004C103.886 280.027 103.835 280.062 103.791 280.106C103.747 280.149 103.713 280.201 103.689 280.258C103.665 280.315 103.653 280.376 103.653 280.438V282.012C103.653 282.136 103.703 282.256 103.791 282.344C103.879 282.432 103.999 282.482 104.123 282.482H140.895C141.019 282.482 141.139 282.432 141.227 282.344C141.315 282.256 141.365 282.136 141.365 282.012V280.436C141.365 280.311 141.315 280.192 141.227 280.104C141.139 280.016 141.019 279.966 140.895 279.966H140.108V257.342H199.34C200.3 257.342 201.221 256.96 201.9 256.282C202.578 255.603 202.96 254.682 202.96 253.722V242.257H42.0586Z" fill="#333333"/>
<path d="M120.566 209.351C128.752 209.351 135.389 202.714 135.389 194.528C135.389 186.341 128.752 179.704 120.566 179.704C112.379 179.704 105.742 186.341 105.742 194.528C105.742 202.714 112.379 209.351 120.566 209.351Z" fill="#107CE8"/>
<path d="M158.335 111.333H155.969C155.969 93.4349 138.256 81.7062 120.386 81.697C117.787 81.6894 115.193 81.9416 112.644 82.4498C109.775 83.023 106.797 83.7094 103.871 84.6041C92.332 88.1409 81.6307 94.9782 81.6307 111.333C81.6281 114.509 82.0322 117.672 82.8331 120.746L80.5415 121.343C79.6924 118.074 79.2636 114.71 79.2656 111.333C79.2656 97.0426 85.1323 87.2273 95.265 81.3745C100.592 78.297 107.093 76.3127 114.541 75.3471C117.64 74.9347 120.774 74.8395 123.892 75.0628C144.435 76.5403 158.335 92.2983 158.335 111.333Z" fill="#107CE8"/>
<path d="M162.277 112.645L161.343 105.75C161.207 104.757 160.874 103.801 160.364 102.937C159.854 102.074 159.176 101.322 158.371 100.724C157.567 100.126 156.651 99.6947 155.677 99.4553C154.703 99.2159 153.692 99.1732 152.702 99.3297L151.221 99.5338C150.403 99.6447 149.662 100.076 149.161 100.733C148.661 101.39 148.441 102.219 148.551 103.037L150.705 118.918C150.794 119.566 151.084 120.169 151.535 120.642C151.985 121.116 152.573 121.435 153.215 121.556C153.405 121.594 153.599 121.613 153.793 121.613C153.932 121.613 154.071 121.603 154.209 121.585L155.866 121.362C156.877 121.228 157.849 120.889 158.723 120.365C159.598 119.842 160.356 119.145 160.952 118.318C161.079 118.138 161.203 117.953 161.316 117.763C162.203 116.214 162.542 114.41 162.277 112.645Z" fill="#107CE8"/>
<path d="M162.28 112.644L161.349 105.748C161.118 104.007 160.28 102.404 158.98 101.222L161.124 117.022C161.157 117.276 161.222 117.524 161.318 117.76C162.206 116.211 162.545 114.408 162.28 112.642L162.28 112.644Z" fill="#333333"/>
<path d="M90.1547 127.763L86.5087 112.605C86.3786 112.058 86.09 111.562 85.6789 111.179C85.2679 110.796 84.7528 110.542 84.1983 110.451C84.0416 110.426 83.8833 110.414 83.7247 110.413C83.5011 110.414 83.2784 110.441 83.0612 110.494L81.65 110.835C79.8329 111.274 78.2641 112.416 77.2881 114.01C76.3121 115.604 76.0087 117.521 76.4443 119.339L78.0775 126.138C78.4502 127.74 79.3385 129.174 80.6058 130.221C80.8112 130.387 81.0263 130.54 81.2499 130.681C82.0436 131.178 82.929 131.511 83.8537 131.661C84.7783 131.811 85.7236 131.774 86.6337 131.552L88.0398 131.211C88.4116 131.124 88.7614 130.961 89.0672 130.733C89.5227 130.401 89.8694 129.942 90.0631 129.413C90.2567 128.884 90.2886 128.31 90.1547 127.763Z" fill="#107CE8"/>
<path d="M77.2718 116.338C77.1713 115.916 76.9826 115.521 76.7181 115.178C76.2056 116.505 76.1114 117.957 76.4481 119.34L78.0813 126.139C78.4539 127.741 79.3423 129.175 80.6096 130.222L77.2718 116.338Z" fill="#333333"/>
</g>
</g>
<defs>
<clipPath id="clip0_2646_2937">
<rect width="410.905" height="380" fill="white"/>
</clipPath>
</defs>
</svg>
