<svg width="450" height="314" viewBox="0 0 450 314" fill="none" xmlns="http://www.w3.org/2000/svg">
    <g clip-path="url(#clip0_10_509)">
        <path
            d="M89.6595 313.088C139.177 313.088 179.319 310.04 179.319 306.279C179.319 302.518 139.177 299.469 89.6595 299.469C40.1419 299.469 0 302.518 0 306.279C0 310.04 40.1419 313.088 89.6595 313.088Z"
            fill="#D9D9D9" />
        <path
            d="M68.5341 69.4688C84.1375 62.8321 103.572 67.037 122.552 69.9554C122.728 66.4212 124.869 62.1199 122.626 59.6543C119.902 56.6588 120.153 53.5113 121.792 50.3457C125.985 42.2508 119.978 33.6374 113.913 26.4755C112.547 24.8649 110.819 23.5994 108.871 22.7818C106.923 21.9642 104.81 21.6176 102.703 21.7702L91.4686 22.5726C88.7348 22.7679 86.1258 23.7934 83.9908 25.5119C81.8558 27.2305 80.2966 29.5601 79.5217 32.189C76.8392 35.8373 75.4034 39.4755 76.3074 43.0948C72.2894 45.8407 71.6143 49.1552 73.4198 52.8918C74.9509 55.2444 74.9346 57.5346 73.3502 59.7613C71.2694 62.6002 69.6757 65.7657 68.6345 69.1279L68.5341 69.4688Z"
            fill="#333333" />
        <path
            d="M439.337 270.66H121.319C118.491 270.66 115.779 269.537 113.779 267.537C111.779 265.537 110.656 262.825 110.656 259.997C225.937 246.599 339.052 246.599 450 259.997C450 262.825 448.877 265.537 446.877 267.537C444.877 269.537 442.165 270.66 439.337 270.66Z"
            fill="#616160" />
        <path
            d="M450 260.624L110.656 259.997L149.985 193.821L150.173 193.508V47.665C150.173 45.8948 150.521 44.1418 151.199 42.5064C151.876 40.8709 152.869 39.3848 154.121 38.1331C155.372 36.8813 156.858 35.8884 158.494 35.2111C160.129 34.5337 161.882 34.1852 163.652 34.1853H395.122C396.892 34.1852 398.645 34.5337 400.28 35.2111C401.916 35.8884 403.402 36.8813 404.653 38.1331C405.905 39.3848 406.898 40.8709 407.575 42.5064C408.253 44.1418 408.601 45.8948 408.601 47.665V194.511L450 260.624Z"
            fill="#616160" />
        <path
            d="M163.345 43.5942C162.181 43.5955 161.065 44.0586 160.242 44.8817C159.419 45.7049 158.956 46.8209 158.954 47.985V180.963C158.956 182.127 159.419 183.243 160.242 184.066C161.065 184.889 162.181 185.352 163.345 185.354H397.311C398.475 185.352 399.591 184.889 400.414 184.066C401.237 183.243 401.7 182.127 401.702 180.963V47.985C401.7 46.8209 401.237 45.7049 400.414 44.8818C399.591 44.0586 398.475 43.5956 397.311 43.5942H163.345Z"
            fill="white" />
        <path
            d="M164.325 202.917C163.966 202.917 163.614 203.021 163.311 203.215C163.008 203.409 162.767 203.685 162.616 204.012L150.497 230.356C150.365 230.643 150.308 230.958 150.33 231.273C150.351 231.588 150.452 231.892 150.622 232.158C150.793 232.424 151.027 232.642 151.304 232.794C151.581 232.945 151.891 233.025 152.207 233.025H407.051C407.372 233.025 407.687 232.943 407.967 232.786C408.247 232.63 408.483 232.405 408.652 232.132C408.82 231.859 408.916 231.548 408.931 231.227C408.945 230.907 408.877 230.588 408.734 230.301L395.561 203.957C395.406 203.643 395.166 203.38 394.868 203.196C394.571 203.012 394.228 202.915 393.879 202.917H164.325Z"
            fill="#9C9C9C" />
        <path
            d="M279.387 41.3987C280.946 41.3987 282.21 40.135 282.21 38.5761C282.21 37.0172 280.946 35.7534 279.387 35.7534C277.828 35.7534 276.564 37.0172 276.564 38.5761C276.564 40.135 277.828 41.3987 279.387 41.3987Z"
            fill="white" />
        <path
            d="M254.338 238.043C253.924 238.043 253.522 238.18 253.194 238.431C252.866 238.683 252.629 239.036 252.521 239.435L249.481 250.726C249.406 251.005 249.396 251.297 249.452 251.58C249.508 251.864 249.629 252.13 249.805 252.36C249.98 252.589 250.206 252.775 250.465 252.902C250.724 253.03 251.009 253.097 251.298 253.097H309.108C309.408 253.097 309.704 253.025 309.97 252.888C310.237 252.75 310.467 252.551 310.641 252.306C310.815 252.062 310.928 251.78 310.97 251.483C311.013 251.186 310.984 250.883 310.886 250.599L306.978 239.309C306.85 238.939 306.609 238.619 306.291 238.392C305.972 238.165 305.591 238.043 305.199 238.043H254.338Z"
            fill="#616160" />
        <path d="M408.601 191.312V193.821H149.984L150.179 193.508V191.312H408.601Z" fill="#616160" />
        <path
            d="M401.388 87.8155C425.637 87.8155 445.296 68.1573 445.296 43.9078C445.296 19.6582 425.637 0 401.388 0C377.138 0 357.48 19.6582 357.48 43.9078C357.48 68.1573 377.138 87.8155 401.388 87.8155Z"
            fill="#0064C7" />
        <path
            d="M419.578 63.0391H383.197C382.532 63.0384 381.894 62.7738 381.424 62.3035C380.954 61.8331 380.689 61.1953 380.688 60.53V38.5761C380.689 37.9109 380.954 37.2732 381.424 36.8028C381.895 36.3324 382.532 36.0678 383.197 36.0671H419.578C420.243 36.0678 420.881 36.3324 421.352 36.8028C421.822 37.2732 422.087 37.9109 422.087 38.5761V60.53C422.087 61.1953 421.822 61.8331 421.352 62.3035C420.881 62.7738 420.243 63.0384 419.578 63.0391ZM383.197 38.5762V60.53H419.58L419.578 38.5761L383.197 38.5762Z"
            fill="white" />
        <path
            d="M412.678 38.576H390.097V28.54C390.097 21.2708 394.846 15.9949 401.388 15.9949C407.93 15.9949 412.678 21.2708 412.678 28.54L412.678 38.576ZM392.606 36.067H410.169V28.54C410.169 22.6309 406.558 18.5039 401.388 18.5039C396.217 18.5039 392.606 22.631 392.606 28.54L392.606 36.067Z"
            fill="white" />
        <path
            d="M401.388 51.4348C402.774 51.4348 403.897 50.3115 403.897 48.9258C403.897 47.5401 402.774 46.4167 401.388 46.4167C400.002 46.4167 398.879 47.5401 398.879 48.9258C398.879 50.3115 400.002 51.4348 401.388 51.4348Z"
            fill="white" />
        <path
            d="M370.736 140.249H189.919C189.032 140.248 188.181 139.894 187.553 139.267C186.925 138.639 186.572 137.788 186.571 136.9V92.0472C186.572 91.1594 186.925 90.3084 187.553 89.6806C188.181 89.0529 189.032 88.6998 189.919 88.6987H370.736C371.624 88.6998 372.475 89.0529 373.103 89.6806C373.731 90.3084 374.084 91.1594 374.085 92.0472V136.9C374.084 137.788 373.731 138.639 373.103 139.267C372.475 139.894 371.624 140.248 370.736 140.249ZM189.919 90.0381C189.387 90.0387 188.876 90.2506 188.499 90.6272C188.123 91.0039 187.911 91.5145 187.91 92.0472V136.9C187.911 137.433 188.123 137.944 188.499 138.32C188.876 138.697 189.387 138.909 189.919 138.909H370.736C371.269 138.909 371.78 138.697 372.156 138.32C372.533 137.944 372.745 137.433 372.745 136.9V92.0472C372.745 91.5145 372.533 91.0038 372.156 90.6272C371.78 90.2505 371.269 90.0387 370.736 90.0381L189.919 90.0381Z"
            fill="#0064C7" />
        <path
            d="M218.015 126.393C225.548 126.393 231.654 120.286 231.654 112.753C231.654 105.22 225.548 99.113 218.015 99.113C210.482 99.113 204.375 105.22 204.375 112.753C204.375 120.286 210.482 126.393 218.015 126.393Z"
            fill="#0064C7" />
        <path
            d="M249.516 103.66C249.217 103.659 248.921 103.718 248.645 103.832C248.369 103.946 248.118 104.113 247.906 104.324C247.695 104.535 247.527 104.786 247.413 105.062C247.298 105.338 247.239 105.634 247.239 105.933C247.239 106.232 247.298 106.528 247.413 106.804C247.527 107.08 247.695 107.331 247.906 107.542C248.118 107.753 248.369 107.92 248.645 108.034C248.921 108.148 249.217 108.207 249.516 108.206H356.686C357.289 108.206 357.867 107.967 358.294 107.54C358.72 107.114 358.96 106.536 358.96 105.933C358.96 105.33 358.72 104.752 358.294 104.326C357.867 103.899 357.289 103.66 356.686 103.66H249.516Z"
            fill="#107CE8" />
        <path
            d="M249.516 117.299C248.913 117.299 248.335 117.539 247.909 117.965C247.482 118.391 247.243 118.97 247.243 119.573C247.243 120.176 247.482 120.754 247.909 121.18C248.335 121.606 248.913 121.846 249.516 121.846H295.632C296.235 121.846 296.813 121.606 297.239 121.18C297.666 120.754 297.905 120.176 297.905 119.573C297.905 118.97 297.666 118.391 297.239 117.965C296.813 117.539 296.235 117.299 295.632 117.299H249.516Z"
            fill="#107CE8" />
        <path
            d="M149.54 118.219L116.114 135.99L115.691 121.181C126.601 119.36 136.98 116.189 146.578 111.026L150.074 102.389C150.455 101.448 151.074 100.622 151.87 99.9928C152.667 99.3632 153.613 98.9516 154.617 98.7983C155.621 98.645 156.647 98.7554 157.595 99.1186C158.543 99.4817 159.381 100.085 160.025 100.87C160.968 102.018 161.439 103.481 161.344 104.963C161.248 106.446 160.592 107.836 159.509 108.853L149.54 118.219Z"
            fill="#FEE6CC" />
        <path
            d="M67.8678 220.819C67.6239 219.925 67.5722 218.989 67.7159 218.074C67.8596 217.158 68.1955 216.283 68.7016 215.506L76.0442 204.238C77.7809 201.572 80.4457 199.647 83.5216 198.836C86.5976 198.024 89.8653 198.384 92.6908 199.846C89.6049 205.099 90.0351 209.707 93.7565 213.711C87.9794 216.531 82.64 220.171 77.9038 224.518C77.0391 225.108 76.0461 225.482 75.0075 225.61C73.9689 225.738 72.9148 225.616 71.9329 225.254C70.951 224.892 70.0698 224.301 69.3627 223.53C68.6556 222.758 68.1431 221.829 67.8678 220.819Z"
            fill="#616160" />
        <path
            d="M151.062 206.085C149.951 207.937 148.383 209.472 146.507 210.544C144.632 211.615 142.513 212.186 140.353 212.202L91.574 212.572L89.4585 200.302L111.037 193.955L92.8433 179.993L112.729 156.722L148.848 190.386C150.96 192.354 152.331 194.986 152.734 197.844C153.137 200.702 152.547 203.611 151.062 206.085Z"
            fill="#FED8D7" />
        <path
            d="M83.958 290.001H72.5342C62.2772 219.693 51.8365 149.189 82.6887 122.873L119.076 128.797L114.422 159.684L94.1126 182.954L83.958 290.001Z"
            fill="#FED8D7" />
        <path
            d="M94.0002 305.927C93.1059 306.171 92.1701 306.223 91.2543 306.079C90.3385 305.936 89.4636 305.6 88.6869 305.094L76.2829 303.426C73.6175 301.69 71.6922 299.025 70.8805 295.949C70.0689 292.873 70.4287 289.606 71.8902 286.78C77.1431 289.866 81.7511 289.435 85.7554 285.714C88.5847 291.427 93.2464 291.078 97.6986 295.891C98.2881 296.756 98.6624 297.749 98.7905 298.787C98.9185 299.826 98.7966 300.88 98.4347 301.862C98.0729 302.844 97.4817 303.725 96.7103 304.432C95.9389 305.139 95.0098 305.652 94.0002 305.927Z"
            fill="#333333" />
        <path
            d="M111.037 75.9082L89.8815 70.831C93.395 63.639 93.6844 55.6364 91.997 47.137L106.383 46.7139C106.833 57.2831 108.197 67.1575 111.037 75.9082Z"
            fill="#FEE6CC" />
        <path
            d="M116.851 141.536C101.451 152.03 90.5694 141.895 82.2656 126.258C83.4195 116.689 81.5512 105.239 78.091 92.7966C76.5521 87.3088 77.1266 81.4434 79.7011 76.3585C82.2756 71.2735 86.663 67.3386 91.9971 65.3306L110.191 72.9465C125.639 85.5388 128.68 99.1787 122.884 113.565L116.851 141.536Z"
            fill="#107CE8" />
        <path
            d="M72.5341 86.486L55.6098 95.3713L85.6504 113.142L89.8304 123.452C90.1093 124.141 90.2453 124.878 90.2298 125.621C90.2144 126.363 90.0479 127.095 89.7405 127.771C89.4331 128.447 88.9912 129.053 88.4419 129.552C87.8925 130.052 87.2472 130.435 86.5452 130.677C85.7472 130.952 84.8963 131.039 84.0592 130.93C83.2221 130.821 82.4215 130.521 81.7201 130.051C81.0186 129.581 80.4355 128.956 80.0162 128.223C79.5969 127.49 79.353 126.671 79.3034 125.828L78.8807 118.642L40.6995 106.042C39.4131 105.618 38.2401 104.906 37.2695 103.961C36.2988 103.016 35.5559 101.863 35.0971 100.588C34.4282 98.7303 34.3942 96.7031 35.0003 94.8238C35.6064 92.9445 36.8184 91.3192 38.4466 90.2021L69.1493 69.1387L72.5341 86.486Z"
            fill="#FEE6CC" />
        <path
            d="M89.4583 88.1786C82.3999 85.0852 75.9814 88.4455 67.8799 91.1403L66.6106 68.7156C74.6551 64.428 82.3249 63.272 89.4584 66.6001L89.4583 88.1786Z"
            fill="#107CE8" />
        <path
            d="M97.9019 57.8216C105.362 57.8216 111.409 51.7744 111.409 44.3147C111.409 36.8551 105.362 30.8079 97.9019 30.8079C90.4423 30.8079 84.395 36.8551 84.395 44.3147C84.395 51.7744 90.4423 57.8216 97.9019 57.8216Z"
            fill="#FEE6CC" />
        <path d="M114.061 42.6105C100.688 43.9203 90.4974 41.7332 83.9849 35.5058V30.4907H112.926L114.061 42.6105Z"
            fill="#333333" />
    </g>
    <defs>
        <clipPath id="clip0_10_509">
            <rect width="450" height="313.088" fill="white" />
        </clipPath>
    </defs>
</svg>