<svg width="318" height="71" viewBox="0 0 318 71" fill="none" xmlns="http://www.w3.org/2000/svg">
<path d="M300.005 0H17.9949C8.05659 0 0 9.75569 0 21.7899V48.6901C0 60.7243 8.05659 70.48 17.9949 70.48H300.005C309.943 70.48 318 60.7243 318 48.6901V21.7899C318 9.75569 309.943 0 300.005 0Z" fill="#DEEEFF"/>
<path d="M66.0196 14.8809H20.1883C17.7643 14.8809 15.7993 17.2603 15.7993 20.1955V21.3811C15.7993 24.3162 17.7643 26.6957 20.1883 26.6957H66.0196C68.4436 26.6957 70.4086 24.3162 70.4086 21.3811V20.1955C70.4086 17.2603 68.4436 14.8809 66.0196 14.8809Z" fill="#79BAFB"/>
<path d="M166.698 14.8809H120.867C118.443 14.8809 116.478 17.2603 116.478 20.1955V21.3811C116.478 24.3162 118.443 26.6957 120.867 26.6957H166.698C169.122 26.6957 171.087 24.3162 171.087 21.3811V20.1955C171.087 17.2603 169.122 14.8809 166.698 14.8809Z" fill="#79BAFB"/>
<path d="M279.157 14.8809H233.326C230.902 14.8809 228.937 17.2603 228.937 20.1955V21.3811C228.937 24.3162 230.902 26.6957 233.326 26.6957H279.157C281.581 26.6957 283.546 24.3162 283.546 21.3811V20.1955C283.546 17.2603 281.581 14.8809 279.157 14.8809Z" fill="#79BAFB"/>
<path d="M101.707 11.7139V58.7891" stroke="#79BAFB" stroke-width="0.75" stroke-linecap="round" stroke-linejoin="round"/>
<path d="M212.882 11.7139V58.7891" stroke="#79BAFB" stroke-width="0.75" stroke-linecap="round" stroke-linejoin="round"/>
<path d="M41.2448 47.2793H22.7552C19.0244 47.2793 16 49.6592 16 52.595V53.7835C16 56.7192 19.0244 59.0991 22.7552 59.0991H41.2448C44.9756 59.0991 48 56.7192 48 53.7835V52.595C48 49.6592 44.9756 47.2793 41.2448 47.2793Z" fill="#79BAFB"/>
<path d="M142.034 47.2793H122.966C119.119 47.2793 116 49.6592 116 52.595V53.7835C116 56.7192 119.119 59.0991 122.966 59.0991H142.034C145.881 59.0991 149 56.7192 149 53.7835V52.595C149 49.6592 145.881 47.2793 142.034 47.2793Z" fill="#79BAFB"/>
<path d="M254.245 47.2793H235.755C232.024 47.2793 229 49.6592 229 52.595V53.7835C229 56.7192 232.024 59.0991 235.755 59.0991H254.245C257.976 59.0991 261 56.7192 261 53.7835V52.595C261 49.6592 257.976 47.2793 254.245 47.2793Z" fill="#79BAFB"/>
</svg>
