<svg width="470" height="351" viewBox="0 0 470 351" fill="none" xmlns="http://www.w3.org/2000/svg">
<g clip-path="url(#clip0_2343_3276)">
<path d="M342.92 333.503H333.576L329.129 297.461H342.92V333.503Z" fill="#FEE6CC"/>
<path d="M347.852 349.693H341.151L339.955 343.366L336.891 349.693H319.118C318.267 349.693 317.437 349.421 316.751 348.916C316.064 348.411 315.558 347.7 315.304 346.887C315.051 346.073 315.064 345.2 315.341 344.395C315.619 343.59 316.147 342.894 316.848 342.41L331.041 332.608V326.212L345.97 327.103L347.852 349.693Z" fill="#2F2E41"/>
<path d="M398.435 321.71L390.936 327.286L365.861 301.018L376.928 292.788L398.435 321.71Z" fill="#FEE6CC"/>
<path d="M412.052 331.759L406.675 335.758L401.94 331.395L403.257 338.3L388.995 348.905C388.311 349.413 387.483 349.69 386.631 349.694C385.779 349.699 384.948 349.431 384.259 348.929C383.57 348.428 383.06 347.719 382.802 346.907C382.545 346.095 382.553 345.222 382.827 344.415L388.367 328.08L384.551 322.948L397.062 314.755L412.052 331.759Z" fill="#2F2E41"/>
<path d="M353.799 147.545C353.799 147.545 371.528 162.862 363.348 206.528L353.361 249.313L385.93 303.345L375.546 315.979L333.205 257.496L317.862 221.505L313.557 157.45L353.799 147.545Z" fill="#2F2E41"/>
<path d="M326.318 231.762L325.252 248.277L328.515 318.653L343.871 315.979L346.806 265.872L326.318 231.762Z" fill="#2F2E41"/>
<path d="M129.257 341.977L137.614 341.977L141.588 309.745L129.256 309.746L129.257 341.977Z" fill="#FEE6CC"/>
<path d="M127.125 339.249L129.477 339.249L138.66 335.515L143.582 339.249H143.582C146.364 339.249 149.031 340.354 150.998 342.32C152.965 344.287 154.07 346.954 154.07 349.736V350.077L127.125 350.078L127.125 339.249Z" fill="#2F2E41"/>
<path d="M161.641 336.712L169.791 338.552L180.769 307.988L168.739 305.271L161.641 336.712Z" fill="#FEE6CC"/>
<path d="M160.162 333.58L162.456 334.098L172.236 332.479L176.215 337.205L176.215 337.205C178.928 337.818 181.287 339.483 182.772 341.835C184.257 344.186 184.748 347.032 184.135 349.745L184.06 350.077L157.777 344.143L160.162 333.58Z" fill="#2F2E41"/>
<path d="M118.674 144.93C114.756 156.746 115.171 169.572 119.616 183.338L121.516 260.844C121.516 260.844 118.685 311.671 127.821 329.556H141.071L147.631 256.202L148.455 206.967L176.861 248.505L158.768 328.357L175.076 329.815L204.436 243.157L168.212 159.083L118.674 144.93Z" fill="#2F2E41"/>
<path d="M271.474 111.273C281.608 102.141 296.683 97.5485 309.327 102.669C296.357 109.871 286.351 121.428 281.081 135.296C279.068 140.652 277.387 146.818 272.436 149.685C269.355 151.47 265.522 151.557 262.068 150.696C258.613 149.834 255.447 148.108 252.324 146.398L251.436 146.378C255.425 133.332 261.339 120.406 271.474 111.273Z" fill="#D1FCEC"/>
<path d="M309.257 102.946C298.058 104.393 287.6 109.332 279.368 117.062C277.566 118.694 276.033 120.601 274.825 122.71C273.715 124.804 273.185 127.156 273.291 129.524C273.346 131.733 273.658 133.986 273.175 136.17C272.911 137.285 272.414 138.33 271.717 139.239C271.021 140.148 270.14 140.9 269.133 141.444C266.658 142.867 263.82 143.315 261.029 143.657C257.931 144.037 254.706 144.383 252.024 146.121C251.699 146.331 251.392 145.815 251.716 145.604C256.383 142.581 262.287 143.681 267.305 141.663C269.647 140.721 271.718 139.068 272.452 136.569C273.093 134.384 272.773 132.06 272.699 129.823C272.561 127.515 272.991 125.209 273.95 123.105C275.047 120.941 276.504 118.979 278.259 117.303C282.15 113.467 286.62 110.267 291.505 107.82C297.065 104.996 303.067 103.145 309.251 102.345C309.634 102.295 309.637 102.897 309.257 102.946Z" fill="white"/>
<path d="M281.872 114.418C280.763 112.86 280.243 110.96 280.406 109.055C280.569 107.15 281.404 105.365 282.761 104.018C283.037 103.747 283.472 104.162 283.196 104.434C281.929 105.685 281.152 107.348 281.004 109.123C280.856 110.897 281.347 112.666 282.389 114.109C282.615 114.423 282.097 114.73 281.872 114.418Z" fill="white"/>
<path d="M273.116 128.408C276.964 129.09 280.928 128.296 284.217 126.185C284.543 125.975 284.851 126.492 284.525 126.701C281.099 128.891 276.972 129.709 272.968 128.991C272.587 128.922 272.736 128.339 273.116 128.408Z" fill="white"/>
<path d="M297.114 105.792C297.417 106.484 297.888 107.09 298.484 107.555C299.079 108.02 299.781 108.33 300.526 108.457C300.908 108.521 300.759 109.103 300.379 109.04C299.557 108.896 298.782 108.553 298.123 108.04C297.464 107.528 296.94 106.862 296.598 106.101C296.559 106.032 296.549 105.951 296.568 105.874C296.587 105.797 296.635 105.731 296.702 105.688C296.77 105.648 296.852 105.636 296.929 105.656C297.006 105.675 297.073 105.724 297.114 105.792Z" fill="white"/>
<path d="M323.252 146.711C323.013 146.678 322.773 146.645 322.53 146.616C319.304 146.188 316.048 146.022 312.795 146.121C312.544 146.125 312.289 146.132 312.038 146.143C304.203 146.465 296.497 148.239 289.31 151.375C286.452 152.625 283.692 154.091 281.056 155.76C277.415 158.065 273.652 160.854 269.582 161.794C269.158 161.897 268.729 161.973 268.296 162.023L251.481 147.464C251.46 147.411 251.435 147.363 251.413 147.31L250.715 146.76C250.845 146.664 250.982 146.568 251.112 146.472C251.187 146.417 251.266 146.364 251.341 146.308C251.392 146.272 251.444 146.236 251.488 146.201C251.505 146.189 251.522 146.177 251.536 146.168C251.58 146.133 251.625 146.104 251.666 146.073C252.429 145.532 253.197 144.996 253.971 144.464C253.974 144.461 253.974 144.461 253.982 144.46C259.838 140.352 266.16 136.953 272.817 134.335C273.017 134.26 273.22 134.18 273.427 134.111C276.425 132.997 279.509 132.129 282.648 131.517C284.368 131.187 286.104 130.944 287.848 130.79C292.357 130.4 296.899 130.722 301.307 131.744C310.095 133.782 318.133 138.607 322.894 146.133C323.016 146.325 323.134 146.515 323.252 146.711Z" fill="#D1FCEC"/>
<path d="M323.029 146.891C313.215 141.304 301.892 138.951 290.665 140.167C288.244 140.385 285.872 140.984 283.637 141.942C281.49 142.945 279.651 144.504 278.31 146.458C277.024 148.255 275.916 150.242 274.215 151.695C273.334 152.426 272.307 152.962 271.204 153.268C270.101 153.575 268.945 153.644 267.813 153.473C264.981 153.119 262.445 151.768 260.01 150.361C257.308 148.798 254.525 147.133 251.337 146.906C250.951 146.878 251.016 146.28 251.402 146.308C256.948 146.703 261.001 151.137 266.222 152.547C268.659 153.204 271.308 153.132 273.398 151.578C275.226 150.219 276.37 148.171 277.657 146.341C278.936 144.415 280.668 142.832 282.7 141.73C284.879 140.662 287.224 139.973 289.634 139.692C295.051 138.972 300.546 139.108 305.92 140.095C312.059 141.188 317.967 143.323 323.386 146.408C323.721 146.599 323.362 147.081 323.029 146.891Z" fill="white"/>
<path d="M294.258 139.563C294.31 137.651 295.039 135.821 296.316 134.398C297.593 132.975 299.334 132.052 301.229 131.794C301.612 131.743 301.709 132.337 301.325 132.388C299.561 132.625 297.939 133.484 296.752 134.812C295.566 136.139 294.893 137.847 294.856 139.627C294.847 140.014 294.249 139.947 294.258 139.563Z" fill="white"/>
<path d="M278.843 145.462C281.505 148.323 285.148 150.076 289.045 150.371C289.431 150.4 289.366 150.998 288.981 150.969C284.926 150.654 281.138 148.823 278.374 145.839C278.111 145.554 278.581 145.179 278.843 145.462Z" fill="white"/>
<path d="M311.619 141.854C311.445 142.589 311.456 143.356 311.652 144.086C311.848 144.816 312.221 145.486 312.74 146.035C313.007 146.317 312.536 146.692 312.271 146.412C311.701 145.802 311.29 145.062 311.072 144.256C310.854 143.45 310.837 142.603 311.022 141.789C311.033 141.711 311.073 141.64 311.135 141.59C311.196 141.541 311.274 141.516 311.353 141.522C311.432 141.531 311.504 141.571 311.554 141.633C311.604 141.695 311.628 141.774 311.619 141.854Z" fill="white"/>
<path d="M27.9114 341.392C27.1221 344.353 25.0481 346.819 22.544 348.616C22.1357 348.91 21.7165 349.182 21.2919 349.438C21.1613 349.514 21.0306 349.596 20.8945 349.666C20.7476 349.754 20.6006 349.835 20.4536 349.911H8.67895C8.46665 349.481 8.25979 349.046 8.05293 348.616C3.00665 338.012 -0.537172 326.569 0.0670748 314.914C0.306801 310.393 1.25655 305.939 2.88145 301.713C6.11499 293.292 12.0159 286.003 20.1324 282.334C20.3338 282.241 20.5461 282.149 20.753 282.062C20.6877 282.296 20.6224 282.524 20.557 282.758C19.6863 285.895 19.0709 289.097 18.7171 292.334C18.6844 292.584 18.6572 292.835 18.6354 293.09C17.8621 300.895 18.5488 308.776 20.6605 316.329C20.6659 316.346 20.6713 316.368 20.6768 316.384C21.1395 318.055 21.6766 319.701 22.2881 321.321C22.7672 322.601 23.2843 323.863 23.8505 325.105C26.213 330.314 29.3812 335.867 27.9114 341.392Z" fill="#D1FCEC"/>
<path d="M20.9 282.307C20.7857 282.459 20.6713 282.606 20.557 282.759C18.1661 285.927 16.1357 289.352 14.5037 292.971C14.4166 293.15 14.3349 293.33 14.2641 293.515C12.0279 298.568 10.5917 303.938 10.0072 309.432C10.0009 309.47 9.99723 309.508 9.99631 309.547C9.86022 310.832 9.77856 312.127 9.74589 313.423C9.62485 315.851 9.88755 318.284 10.5243 320.63C11.105 322.546 12.1224 324.302 13.4966 325.758C13.6327 325.905 13.7688 326.052 13.9157 326.194C14.0246 326.308 14.1444 326.422 14.2587 326.531C15.3583 327.582 16.5614 328.556 17.5957 329.683C18.0697 330.188 18.4978 330.735 18.8749 331.316C19.4767 332.29 19.8655 333.381 20.0156 334.516C20.1657 335.651 20.0738 336.806 19.7459 337.903C19.0056 340.657 17.3126 342.982 15.5815 345.197C14.716 346.308 13.8232 347.429 13.0502 348.616C12.7672 349.041 12.5058 349.471 12.2663 349.912H11.5804C11.8091 349.471 12.0595 349.041 12.3317 348.616C14.3186 345.486 17.1439 342.797 18.6082 339.351C19.599 337.026 19.8984 334.392 18.6463 332.111C18.2794 331.448 17.8354 330.83 17.3235 330.271C16.3273 329.144 15.1352 328.18 14.0519 327.163C13.7797 326.907 13.5129 326.645 13.2571 326.373C11.9006 324.995 10.8539 323.343 10.1869 321.528C9.43144 319.223 9.0743 316.806 9.13079 314.381C9.13079 312.835 9.21245 311.278 9.36487 309.732C9.3812 309.536 9.40298 309.334 9.42475 309.133C10.538 299.404 14.2352 290.151 20.1324 282.334C20.2413 282.181 20.3556 282.034 20.4699 281.888C20.704 281.583 21.134 282.007 20.9 282.307Z" fill="white"/>
<path d="M9.6452 309.783C7.75969 309.466 6.04813 308.489 4.8162 307.027C3.58427 305.565 2.9122 303.713 2.91999 301.801C2.92103 301.723 2.95229 301.648 3.00719 301.593C3.06209 301.538 3.13633 301.506 3.21428 301.504C3.29223 301.502 3.3678 301.531 3.42507 301.584C3.48233 301.637 3.51682 301.71 3.52127 301.788C3.51073 303.568 4.13694 305.294 5.28689 306.653C6.43684 308.012 8.03478 308.915 9.79229 309.2C10.1742 309.262 10.0249 309.845 9.6452 309.783Z" fill="white"/>
<path d="M13.3461 325.867C16.5495 323.628 18.7913 320.264 19.6244 316.445C19.7066 316.067 20.2895 316.214 20.2074 316.592C19.333 320.564 16.993 324.061 13.6544 326.383C13.336 326.605 13.0295 326.087 13.3461 325.867Z" fill="white"/>
<path d="M14.3234 292.907C15.0274 293.181 15.7886 293.277 16.5386 293.184C17.2886 293.092 18.0039 292.815 18.6203 292.378C18.9357 292.153 19.2419 292.67 18.9286 292.894C18.2453 293.374 17.4549 293.679 16.6265 293.783C15.7981 293.887 14.9569 293.786 14.1763 293.49C14.1004 293.468 14.0356 293.418 13.9951 293.35C13.9546 293.282 13.9415 293.202 13.9583 293.125C13.9782 293.048 14.0277 292.981 14.096 292.941C14.1644 292.9 14.2461 292.888 14.3234 292.907Z" fill="white"/>
<path d="M61.7384 303.357C61.5479 303.504 61.3519 303.651 61.1614 303.804C58.5769 305.782 56.1574 307.966 53.9268 310.336C53.7526 310.516 53.5784 310.701 53.4096 310.886L53.4042 310.892C48.1151 316.633 43.9331 323.303 41.0688 330.565L41.0525 330.614C41.0471 330.63 41.0416 330.641 41.0362 330.657C39.9009 333.564 38.9856 336.552 38.298 339.596C37.6339 342.568 37.0895 345.753 36.0498 348.616C35.8919 349.057 35.7177 349.493 35.5326 349.912H11.3301C11.4117 349.482 11.4988 349.046 11.5859 348.616C12.8171 342.308 14.7413 336.156 17.3236 330.271C17.4107 330.075 17.4977 329.879 17.5957 329.683C18.9288 326.775 20.4963 323.981 22.2827 321.327L22.2831 321.325L22.2843 321.323L22.2861 321.322L22.2882 321.322C23.2691 319.874 24.3229 318.476 25.4455 317.135C28.3569 313.672 31.7959 310.688 35.6361 308.295C35.6578 308.279 35.685 308.268 35.7068 308.251C43.3497 303.51 52.408 301.251 61.0689 303.205H61.0743C61.2975 303.254 61.5153 303.303 61.7384 303.357Z" fill="#D1FCEC"/>
<path d="M61.7119 303.646C61.5268 303.695 61.3417 303.749 61.1621 303.804C57.3469 304.894 53.6645 306.404 50.1822 308.306C50.008 308.398 49.8338 308.496 49.6596 308.594C44.8472 311.28 40.4788 314.694 36.7091 318.714C36.7062 318.717 36.7042 318.721 36.7037 318.725C36.6601 318.768 36.6111 318.817 36.573 318.861C35.702 319.797 34.8637 320.772 34.0689 321.773C32.5143 323.641 31.2616 325.74 30.3564 327.995C29.6646 329.875 29.4205 331.89 29.6432 333.88C29.6596 334.081 29.6868 334.277 29.714 334.479C29.7358 334.637 29.7575 334.794 29.7848 334.958C30.144 337.141 30.7646 339.329 30.5904 341.556C30.4844 342.696 30.1381 343.802 29.5742 344.799C29.0103 345.797 28.2417 346.663 27.3188 347.342C26.6914 347.827 26.0209 348.254 25.3155 348.616C24.307 349.136 23.2563 349.569 22.1745 349.912H20.0352C20.3237 349.83 20.6067 349.748 20.8953 349.667C21.9191 349.378 22.9244 349.027 23.9056 348.616C24.4662 348.382 25.0116 348.112 25.5387 347.81C27.7271 346.553 29.5507 344.626 29.9317 342.051C30.2638 339.797 29.6215 337.544 29.2404 335.339C29.1751 334.958 29.1152 334.582 29.0825 334.207C28.8226 332.297 28.9805 330.355 29.5452 328.513C30.3285 326.215 31.4995 324.068 33.0074 322.165C33.9402 320.926 34.9359 319.736 35.9906 318.6C36.1212 318.453 36.2573 318.306 36.3988 318.159C40.2478 314.11 44.692 310.671 49.5779 307.963H49.5834C53.2164 305.94 57.0706 304.344 61.0695 303.205H61.075C61.2546 303.15 61.4397 303.096 61.6193 303.047C61.995 302.949 62.082 303.542 61.7119 303.646Z" fill="white"/>
<path d="M36.1831 318.805C34.8683 317.417 34.0897 315.607 33.9864 313.698C33.8831 311.789 34.4617 309.905 35.6191 308.383C35.8543 308.076 36.3426 308.427 36.1071 308.735C35.0268 310.15 34.4879 311.905 34.5878 313.682C34.6876 315.46 35.4196 317.143 36.6516 318.429C36.919 318.708 36.449 319.083 36.1831 318.805Z" fill="white"/>
<path d="M29.455 333.876C33.3609 334.017 37.1763 332.68 40.1405 330.133C40.434 329.88 40.8106 330.349 40.5175 330.602C37.4279 333.247 33.4545 334.629 29.3903 334.474C29.003 334.459 29.0698 333.861 29.455 333.876Z" fill="white"/>
<path d="M50.0798 308.149C50.4766 308.792 51.027 309.326 51.6814 309.704C52.3358 310.082 53.0738 310.291 53.8291 310.313C54.2165 310.324 54.1493 310.921 53.7644 310.911C52.93 310.883 52.1152 310.651 51.3913 310.235C50.6673 309.819 50.0562 309.232 49.6114 308.526C49.5639 308.463 49.5421 308.384 49.5506 308.305C49.5591 308.227 49.5972 308.154 49.6571 308.103C49.7194 308.053 49.7987 308.03 49.8779 308.039C49.957 308.047 50.0296 308.087 50.0798 308.149Z" fill="white"/>
<path d="M248.44 94.2459C247.882 94.9808 247.169 95.5842 246.351 96.0137C245.534 96.4432 244.633 96.6883 243.711 96.7318C242.789 96.7753 241.868 96.616 241.015 96.2653C240.161 95.9146 239.394 95.3809 238.769 94.7018L218.191 103.651L220.196 92.1643L239.429 85.4268C240.639 84.4519 242.165 83.9549 243.718 84.0299C245.27 84.1049 246.741 84.7467 247.852 85.8338C248.963 86.9209 249.636 88.3776 249.744 89.928C249.853 91.4784 249.389 93.0147 248.44 94.2459Z" fill="#FEE6CC"/>
<path d="M234.708 97.8327L186.914 119.122L186.812 119.085L132.339 99.6738C128.281 97.5532 125.188 93.9618 123.692 89.6349C122.196 85.3079 122.411 80.5728 124.292 76.399C125.335 74.093 126.854 72.0339 128.75 70.3574C130.646 68.6809 132.876 67.425 135.292 66.6723C137.709 65.9196 140.257 65.6872 142.77 65.9904C145.282 66.2936 147.702 67.1255 149.87 68.4314L190.409 92.8512L229.718 87.7565L234.708 97.8327Z" fill="#0064C7"/>
<path d="M469.626 350.352C469.627 350.437 469.61 350.521 469.578 350.6C469.545 350.679 469.497 350.75 469.437 350.811C469.377 350.871 469.305 350.918 469.227 350.951C469.148 350.983 469.064 351 468.979 351H0.665367C0.493561 351 0.328798 350.931 0.207312 350.81C0.085827 350.688 0.0175781 350.524 0.0175781 350.352C0.0175781 350.18 0.085827 350.015 0.207312 349.894C0.328798 349.772 0.493561 349.704 0.665367 349.704H468.979C469.064 349.704 469.148 349.72 469.227 349.753C469.305 349.785 469.377 349.833 469.437 349.893C469.497 349.953 469.545 350.025 469.578 350.104C469.61 350.182 469.627 350.267 469.626 350.352Z" fill="#CCCCCC"/>
<path d="M170.575 161.567L122.395 153.86C121.131 153.455 119.97 152.782 118.992 151.886C118.013 150.99 117.239 149.893 116.724 148.671C116.21 147.448 115.965 146.128 116.009 144.802C116.052 143.476 116.382 142.175 116.976 140.988L119.16 136.618L118.312 90.7021C118.209 84.7295 119.682 78.8354 122.581 73.6126C125.48 68.3899 129.703 64.0227 134.826 60.9504L139.524 58.1411L141.899 52.1113L163.793 52.6454L163.857 60.5535L171.698 73.0567L171.698 73.1085L171.206 141.162L169.045 148.185L172.312 156.354L170.575 161.567Z" fill="#0064C7"/>
<path d="M154.85 44.613C165.837 44.613 174.744 35.7064 174.744 24.7196C174.744 13.7328 165.837 4.82617 154.85 4.82617C143.864 4.82617 134.957 13.7328 134.957 24.7196C134.957 35.7064 143.864 44.613 154.85 44.613Z" fill="#FEE6CC"/>
<path d="M134.134 29.0562C133.541 26.5566 133.813 23.0391 134.149 20.5222C135.028 13.9238 138.692 7.65079 144.259 3.93508C145.315 3.13332 146.569 2.63484 147.887 2.49335C149.204 2.43837 150.632 3.14342 151.036 4.39809C151.368 3.57 151.866 2.8187 152.499 2.19056C153.133 1.56242 153.888 1.07076 154.719 0.745932C156.388 0.106495 158.183 -0.135324 159.962 0.0396412C163.409 0.323822 166.716 1.53608 169.53 3.54777C172.344 5.55946 174.561 8.29553 175.946 11.4656C176.477 12.7279 177.962 8.06538 178.635 9.25805C179.253 10.4978 180.333 11.4461 181.642 11.9001C182.961 12.2682 183.497 17.7032 184.016 16.4359C184.419 17.3725 184.578 18.3958 184.479 19.4105C184.379 20.4252 184.025 21.3983 183.449 22.2392C182.872 23.08 182.092 23.7613 181.181 24.2196C180.271 24.6779 179.259 24.8982 178.24 24.8601C176.897 24.8099 175.613 24.316 174.287 24.1034C169.542 23.3433 164.51 26.7834 163.496 31.4799C163.132 30.1217 162.552 28.8311 161.778 27.6579C161.385 27.0744 160.858 26.5932 160.241 26.2544C159.624 25.9155 158.936 25.7288 158.232 25.7098C156.882 25.7603 155.696 26.6428 154.82 27.6711C153.944 28.6995 153.287 29.8992 152.404 30.922C149.816 33.9231 146.314 40.9219 142.625 40.4114C139.714 40.0086 134.944 32.4692 134.134 29.0562Z" fill="#2F2E41"/>
<path d="M275.104 116.788C275.243 115.881 275.057 114.954 274.578 114.172C274.099 113.389 273.358 112.802 272.487 112.513L218.914 94.6703C218.401 94.4985 217.857 94.436 217.318 94.4869L203.89 95.7567L196.185 96.4876L181.967 97.8313C181.108 97.9134 180.302 98.2781 179.673 98.8682C179.044 99.4583 178.628 100.24 178.492 101.092L171.273 146.186C171.136 147.065 171.304 147.965 171.748 148.737C172.191 149.508 172.885 150.106 173.714 150.43L227.846 171.325C228.1 171.424 228.364 171.494 228.633 171.536C229.025 171.6 229.425 171.603 229.818 171.545L264.796 166.361C265.621 166.242 266.386 165.859 266.977 165.271C267.567 164.683 267.952 163.92 268.075 163.095L275.104 116.788Z" fill="white"/>
<path d="M174.94 147.253L229.072 168.147C229.15 168.178 229.236 168.188 229.32 168.176L264.294 162.993C264.398 162.979 264.494 162.931 264.568 162.857C264.642 162.783 264.691 162.687 264.705 162.584L271.738 116.276C271.754 116.163 271.73 116.048 271.671 115.95C271.611 115.853 271.52 115.779 271.412 115.742L271.052 115.62L217.836 97.903C217.812 97.8944 217.786 97.8883 217.761 97.8849C217.72 97.8773 217.678 97.8752 217.636 97.8784L184.884 100.978L182.285 101.221C182.179 101.233 182.079 101.279 182.001 101.352C181.923 101.426 181.871 101.523 181.853 101.629L174.635 146.721C174.617 146.831 174.638 146.944 174.693 147.041C174.749 147.138 174.836 147.212 174.94 147.253Z" fill="#107CE8"/>
<path d="M184.885 100.978L217.636 97.8784C217.678 97.8752 217.72 97.8773 217.761 97.8849C217.787 97.8883 217.812 97.8944 217.836 97.903L271.052 115.62L257.015 117.106L251.761 117.659L236.813 119.239C236.769 119.241 236.725 119.24 236.682 119.237C236.655 119.229 236.629 119.221 236.597 119.212L184.885 100.978Z" fill="#2F2E41"/>
<path d="M173.712 150.433L227.844 171.327C228.099 171.425 228.364 171.494 228.634 171.534C229.026 171.598 229.425 171.603 229.819 171.548L264.793 166.365C265.618 166.245 266.383 165.862 266.974 165.273C267.565 164.685 267.951 163.921 268.074 163.097L275.102 116.788C275.206 116.106 275.127 115.408 274.874 114.765C274.839 114.68 274.803 114.594 274.762 114.514C274.483 113.927 274.059 113.422 273.529 113.045C273.211 112.817 272.859 112.637 272.487 112.514L272.423 112.491L218.916 94.6701C218.698 94.6004 218.474 94.5461 218.248 94.5078C217.939 94.464 217.626 94.458 217.315 94.4897L203.889 95.7552L196.185 96.4901L181.964 97.8328C181.383 97.8871 180.821 98.0727 180.321 98.3758C180.283 98.3944 180.246 98.4165 180.211 98.4418C180.186 98.4579 180.163 98.4758 180.14 98.4952C179.704 98.793 179.333 99.1765 179.05 99.6223C178.766 100.068 178.577 100.567 178.493 101.088L171.269 146.186C171.132 147.066 171.3 147.966 171.744 148.739C172.188 149.511 172.883 150.108 173.712 150.433ZM179.451 101.246C179.539 100.705 179.778 100.201 180.142 99.7914C180.252 99.6597 180.376 99.5395 180.51 99.4328C180.877 99.1359 181.312 98.9333 181.775 98.8428C181.866 98.8239 181.959 98.8108 182.052 98.8036L205.996 96.5417L217.408 95.4556C217.486 95.4466 217.557 95.4479 217.628 95.4439C217.801 95.4402 217.974 95.4531 218.144 95.4822C218.301 95.5025 218.455 95.5392 218.604 95.5917L272.174 113.435C272.217 113.45 272.253 113.465 272.296 113.48C272.783 113.661 273.211 113.972 273.533 114.38C273.788 114.692 273.974 115.054 274.079 115.443C274.184 115.832 274.206 116.239 274.143 116.637L267.11 162.95C267.017 163.567 266.729 164.139 266.287 164.58C265.845 165.021 265.273 165.309 264.655 165.4L229.676 170.583C229.176 170.655 228.665 170.597 228.194 170.414L174.061 149.526C173.441 149.281 172.922 148.833 172.59 148.255C172.257 147.676 172.132 147.002 172.233 146.343L179.451 101.246Z" fill="#3F3D56"/>
<path d="M180.024 98.7413C180.053 98.6592 180.103 98.5865 180.17 98.531C180.192 98.5133 180.216 98.4973 180.24 98.483C180.263 98.4743 180.286 98.4601 180.309 98.4513C180.418 98.4076 180.538 98.4056 180.649 98.4455L181.775 98.843L236.819 118.26L249.702 116.899L256.911 116.139L272.169 114.523L273.533 114.38L273.799 114.351C273.913 114.341 274.027 114.37 274.122 114.435C274.217 114.5 274.286 114.596 274.317 114.707C274.324 114.732 274.329 114.758 274.331 114.785C274.343 114.889 274.32 114.995 274.266 115.086C274.212 115.176 274.13 115.247 274.032 115.287C273.989 115.304 273.944 115.317 273.897 115.323L272.041 115.517L257.015 117.106L251.762 117.659L236.813 119.239C236.77 119.241 236.726 119.24 236.682 119.237C236.656 119.229 236.629 119.221 236.597 119.212L180.51 99.433L180.32 99.3656C180.276 99.3513 180.236 99.3289 180.2 99.2995C180.116 99.2373 180.053 99.1496 180.021 99.0492C179.989 98.9489 179.99 98.841 180.024 98.7413Z" fill="#3F3D56"/>
<path d="M228.781 171.676C228.654 171.655 228.541 171.586 228.465 171.482C228.389 171.379 228.357 171.25 228.377 171.123L236.279 118.682C236.298 118.554 236.367 118.439 236.471 118.363C236.575 118.286 236.705 118.254 236.833 118.273L236.837 118.274C236.964 118.294 237.077 118.363 237.153 118.467C237.229 118.571 237.26 118.7 237.241 118.827L229.339 171.268C229.319 171.395 229.25 171.51 229.146 171.587C229.043 171.663 228.913 171.696 228.785 171.676L228.781 171.676Z" fill="#3F3D56"/>
<path d="M248.812 168.349L243.557 168.903L249.704 116.897C249.704 116.897 256.724 115.627 256.911 116.136C257.027 116.44 248.862 168.015 248.812 168.349Z" fill="#3F3D56"/>
<path d="M180.321 99.3652L180.18 123.082L222.165 139.08L237.242 118.827L180.321 99.3652Z" fill="#3F3D56"/>
<path d="M273.534 114.381C273.183 113.94 272.711 113.611 272.175 113.435L218.606 95.5922C218.456 95.5416 218.301 95.504 218.144 95.4797C217.974 95.4504 217.8 95.4374 217.627 95.441L217.714 94.8981L218.25 94.5098L230.971 85.2998L273.454 98.3194L273.527 113.045L273.534 114.381Z" fill="#3F3D56"/>
<path d="M182.462 137.437C182.522 137.443 182.582 137.456 182.639 137.474L199.076 142.873C199.282 142.94 199.452 143.087 199.55 143.28C199.648 143.473 199.665 143.698 199.597 143.903C199.53 144.109 199.383 144.28 199.19 144.377C198.997 144.475 198.772 144.492 198.567 144.425L182.13 139.026C181.939 138.964 181.778 138.833 181.678 138.659C181.577 138.485 181.545 138.28 181.586 138.083C181.627 137.887 181.739 137.712 181.9 137.593C182.062 137.474 182.262 137.418 182.462 137.437Z" fill="white"/>
<path d="M248.777 236.928C252.384 236.928 255.309 234.003 255.309 230.396C255.309 226.788 252.384 223.863 248.777 223.863C245.169 223.863 242.244 226.788 242.244 230.396C242.244 234.003 245.169 236.928 248.777 236.928Z" fill="#F5FAFF"/>
<path d="M82.2004 260.88C85.8081 260.88 88.7328 257.956 88.7328 254.348C88.7328 250.74 85.8081 247.815 82.2004 247.815C78.5926 247.815 75.668 250.74 75.668 254.348C75.668 257.956 78.5926 260.88 82.2004 260.88Z" fill="#F5FAFF"/>
<path d="M218.292 44.7669C221.9 44.7669 224.825 41.8423 224.825 38.2345C224.825 34.6268 221.9 31.7021 218.292 31.7021C214.684 31.7021 211.76 34.6268 211.76 38.2345C211.76 41.8423 214.684 44.7669 218.292 44.7669Z" fill="#F5FAFF"/>
<path d="M229.01 147.045C228.164 147.413 227.247 147.591 226.324 147.566C225.401 147.541 224.495 147.314 223.669 146.901C222.844 146.488 222.119 145.899 221.545 145.175C220.972 144.452 220.564 143.612 220.351 142.713L198.025 140.458L205.391 131.418L225.462 134.946C226.995 134.687 228.569 135 229.886 135.824C231.204 136.649 232.173 137.928 232.61 139.42C233.048 140.911 232.923 142.511 232.259 143.916C231.596 145.322 230.44 146.435 229.01 147.045Z" fill="#FEE6CC"/>
<path d="M215.28 143.459L163.179 138.658L163.108 138.576L125.083 95.0068C122.581 91.173 121.639 86.5276 122.45 82.0218C123.261 77.5159 125.763 73.4905 129.446 70.7698C131.483 69.2682 133.815 68.2151 136.289 67.6798C138.762 67.1446 141.321 67.1393 143.797 67.6643C146.273 68.1893 148.61 69.2327 150.653 70.7258C152.697 72.219 154.401 74.128 155.653 76.3272L179.073 117.451L215.854 132.229L215.28 143.459Z" fill="#0064C7"/>
<path d="M346.048 59.6716C344.755 50.1812 343.132 39.9919 336.438 33.1409C334.314 30.9671 331.772 29.2459 328.965 28.0811C326.158 26.9163 323.144 26.3321 320.105 26.3635C317.066 26.395 314.065 27.0415 311.282 28.2642C308.5 29.4868 305.994 31.2602 303.916 33.4775C299.043 38.6755 296.891 45.9744 296.694 53.0964C296.497 60.2184 298.084 67.2613 299.843 74.1653C309.155 74.3513 318.398 72.532 326.945 68.8308C329.082 67.9032 331.185 66.8545 333.443 66.2797C335.701 65.7051 337.31 67.1512 339.411 68.1596L340.564 65.952C341.508 67.7084 344.43 67.1878 345.49 65.4989C346.55 63.8101 346.318 61.6473 346.048 59.6716Z" fill="#2F2E41"/>
<path d="M309.136 112.644L271.098 113.457C270.514 112.447 269.649 111.629 268.608 111.102C267.567 110.575 266.396 110.362 265.236 110.488C264.077 110.615 262.979 111.075 262.076 111.814C261.174 112.554 260.505 113.539 260.153 114.651C259.8 115.763 259.778 116.953 260.09 118.078C260.401 119.202 261.033 120.211 261.908 120.983C262.782 121.755 263.863 122.255 265.017 122.425C266.171 122.594 267.349 122.424 268.409 121.935C273.454 122.222 312.923 127.824 315.277 124.213C317.667 120.549 330.424 107.618 330.424 107.618L320.618 93.6582L309.136 112.644Z" fill="#FEE6CC"/>
<path d="M318.407 69.0616C328.277 69.0616 336.278 61.0602 336.278 51.19C336.278 41.3198 328.277 33.3184 318.407 33.3184C308.537 33.3184 300.535 41.3198 300.535 51.19C300.535 61.0602 308.537 69.0616 318.407 69.0616Z" fill="#FEE6CC"/>
<path d="M347.03 85.5766C344.924 81.3851 343.9 76.2069 339.41 74.8481C336.378 73.9305 324.115 75.3056 321.352 76.8545C316.756 79.4311 320.921 84.2592 318.209 88.7773C315.261 93.689 307.25 103.546 304.302 108.458C302.276 111.834 309.102 121.745 308.006 125.528C306.91 129.31 306.858 133.556 308.724 137.023C310.395 140.127 307.978 142.872 309.658 145.971C311.405 149.193 313.55 161.242 311.923 164.527L310.835 167.794C321.639 168.428 330.723 155.521 341.46 154.162C344.126 153.824 346.896 153.383 349.093 151.835C352.33 149.555 353.61 145.417 354.41 141.539C358.259 122.584 355.661 102.886 347.03 85.5766Z" fill="#0064C7"/>
<path d="M363.228 129.834C361.723 125.727 358.999 107.768 358.999 107.768L341.947 107.268L350.284 127.829L327.534 159.676C327.534 159.676 327.577 159.746 327.653 159.871C326.457 159.679 325.231 159.853 324.135 160.369C323.039 160.886 322.125 161.721 321.512 162.766C320.898 163.81 320.615 165.016 320.698 166.224C320.781 167.433 321.227 168.588 321.977 169.539C322.728 170.49 323.748 171.192 324.904 171.554C326.06 171.915 327.299 171.919 328.457 171.566C329.616 171.212 330.64 170.516 331.397 169.571C332.154 168.625 332.608 167.473 332.699 166.265C332.783 166.313 332.881 166.33 332.976 166.314C333.071 166.297 333.158 166.248 333.221 166.175C335.752 162.999 364.733 133.942 363.228 129.834Z" fill="#FEE6CC"/>
<path d="M364.962 118.492C363.397 111.887 361.82 105.245 359.181 98.99C356.543 92.7352 352.765 86.8273 347.452 82.6016C345.753 81.2506 343.854 80.0582 341.725 79.6382C339.596 79.2181 337.196 79.6882 335.701 81.2611C333.307 83.778 334.028 87.8181 334.905 91.1783C337.493 101.086 340.081 110.994 342.669 120.901C350.143 120.109 357.617 119.317 365.091 118.525L364.962 118.492Z" fill="#0064C7"/>
<path d="M340.305 53.6686C339.647 49.3453 338.959 44.9857 337.413 40.9149C335.867 36.844 333.374 33.0311 329.799 30.725C324.138 27.0739 316.81 27.778 310.463 29.8782C305.555 31.5025 300.764 33.9711 297.302 37.9399C293.841 41.9088 291.897 47.5718 293.185 52.7612C299.955 51.1617 306.725 49.5622 313.494 47.9627L312.753 48.4864C314.976 49.5948 316.917 51.1951 318.429 53.1657C319.941 55.1364 320.985 57.4256 321.48 59.8597C321.964 62.3233 321.895 64.8638 321.276 67.2972C320.658 69.7307 319.507 71.9964 317.906 73.9303C322.523 72.2924 327.14 70.6546 331.757 69.0167C334.607 68.0058 337.657 66.8409 339.347 64.2478C341.307 61.2413 340.851 57.2565 340.305 53.6686Z" fill="#2F2E41"/>
</g>
<defs>
<clipPath id="clip0_2343_3276">
<rect width="469.627" height="351" fill="white"/>
</clipPath>
</defs>
</svg>
