<svg width="490" height="260" viewBox="0 0 490 260" fill="none" xmlns="http://www.w3.org/2000/svg">
    <g clip-path="url(#clip0_7_2957)">
        <path
            d="M486.092 259.328H213.664C212.825 259.327 212.02 258.993 211.427 258.4C210.833 257.806 210.499 257.001 210.498 256.162V3.16639C210.499 2.32695 210.833 1.5222 211.427 0.928625C212.02 0.33505 212.825 0.00109864 213.664 0H486.092C486.931 0.00109864 487.736 0.33505 488.33 0.928625C488.923 1.5222 489.257 2.32695 489.258 3.16639V256.161C489.257 257.001 488.923 257.806 488.33 258.399C487.736 258.993 486.931 259.327 486.092 259.328ZM213.664 1.26406C213.161 1.26516 212.679 1.4655 212.323 1.82123C211.968 2.17697 211.767 2.65914 211.766 3.16223V256.161C211.767 256.664 211.968 257.147 212.323 257.502C212.679 257.858 213.161 258.058 213.664 258.059H486.092C486.595 258.059 487.077 257.858 487.433 257.502C487.789 257.147 487.989 256.664 487.99 256.161V3.16639C487.989 2.6633 487.789 2.18113 487.433 1.82539C487.077 1.46965 486.595 1.26931 486.092 1.26822L213.664 1.26406Z"
            fill="#D9D9D9" />
        <path
            d="M342.391 65.7417C341.821 65.7417 341.274 65.9682 340.871 66.3713C340.468 66.7745 340.242 67.3212 340.242 67.8914C340.242 68.4615 340.468 69.0083 340.871 69.4114C341.274 69.8146 341.821 70.0411 342.391 70.0411H460.348C460.919 70.0411 461.465 69.8146 461.869 69.4114C462.272 69.0083 462.498 68.4615 462.498 67.8914C462.498 67.3212 462.272 66.7745 461.869 66.3713C461.465 65.9682 460.919 65.7417 460.348 65.7417H342.391Z"
            fill="#107CE8" />
        <path
            d="M342.391 78.6409C341.821 78.6409 341.274 78.8674 340.871 79.2705C340.468 79.6736 340.242 80.2204 340.242 80.7906C340.242 81.3607 340.468 81.9075 340.871 82.3106C341.274 82.7137 341.821 82.9402 342.391 82.9402H402.611C403.181 82.9402 403.728 82.7137 404.131 82.3106C404.534 81.9075 404.761 81.3607 404.761 80.7906C404.761 80.2204 404.534 79.6736 404.131 79.2705C403.728 78.8674 403.181 78.6409 402.611 78.6409H342.391Z"
            fill="#107CE8" />
        <path
            d="M239.293 141.075C238.723 141.075 238.176 141.302 237.773 141.705C237.37 142.108 237.143 142.655 237.143 143.225C237.143 143.795 237.37 144.342 237.773 144.745C238.176 145.148 238.723 145.375 239.293 145.375H460.463C461.033 145.375 461.58 145.148 461.983 144.745C462.386 144.342 462.613 143.795 462.613 143.225C462.613 142.655 462.386 142.108 461.983 141.705C461.58 141.302 461.033 141.075 460.463 141.075H239.293Z"
            fill="#107CE8" />
        <path
            d="M239.293 153.975C238.723 153.975 238.176 154.201 237.773 154.604C237.37 155.007 237.143 155.554 237.143 156.124C237.143 156.694 237.37 157.241 237.773 157.644C238.176 158.047 238.723 158.274 239.293 158.274H402.726C403.296 158.274 403.843 158.047 404.246 157.644C404.649 157.241 404.875 156.694 404.875 156.124C404.875 155.554 404.649 155.007 404.246 154.604C403.843 154.201 403.296 153.975 402.726 153.975H239.293Z"
            fill="#107CE8" />
        <path
            d="M239.293 166.582C238.723 166.582 238.176 166.809 237.773 167.212C237.37 167.615 237.143 168.162 237.143 168.732C237.143 169.302 237.37 169.849 237.773 170.252C238.176 170.655 238.723 170.881 239.293 170.881H460.463C461.033 170.881 461.58 170.655 461.983 170.252C462.386 169.849 462.613 169.302 462.613 168.732C462.613 168.162 462.386 167.615 461.983 167.212C461.58 166.809 461.033 166.582 460.463 166.582H239.293Z"
            fill="#107CE8" />
        <path
            d="M239.293 179.481C238.723 179.481 238.176 179.708 237.773 180.111C237.37 180.514 237.143 181.061 237.143 181.631C237.143 182.201 237.37 182.748 237.773 183.151C238.176 183.554 238.723 183.781 239.293 183.781H402.726C403.296 183.781 403.843 183.554 404.246 183.151C404.649 182.748 404.875 182.201 404.875 181.631C404.875 181.061 404.649 180.514 404.246 180.111C403.843 179.708 403.296 179.481 402.726 179.481H239.293Z"
            fill="#107CE8" />
        <path
            d="M312.581 111.033H141.586C140.747 111.032 139.942 110.698 139.348 110.105C138.755 109.511 138.421 108.706 138.42 107.867V32.8256C138.421 31.9861 138.755 31.1812 139.348 30.5876C139.942 29.994 140.747 29.6601 141.586 29.6592H312.581C313.42 29.6601 314.225 29.994 314.819 30.5876C315.412 31.1812 315.746 31.9861 315.747 32.8256V107.867C315.746 108.706 315.412 109.511 314.819 110.105C314.225 110.698 313.42 111.032 312.581 111.033Z"
            fill="#0064C7" />
        <path
            d="M459.096 229.669H394.28C393.441 229.668 392.636 229.334 392.042 228.741C391.449 228.147 391.115 227.342 391.114 226.503V216.118C391.115 215.278 391.449 214.473 392.042 213.88C392.636 213.286 393.441 212.952 394.28 212.951H459.096C459.935 212.952 460.74 213.286 461.334 213.88C461.927 214.473 462.261 215.278 462.262 216.118V226.503C462.261 227.342 461.927 228.147 461.334 228.741C460.74 229.334 459.935 229.668 459.096 229.669Z"
            fill="#0064C7" />
        <path
            d="M74.9989 127.005C72.2057 124.92 71.3859 121.024 73.1679 118.302C73.345 118.036 73.5452 117.785 73.7663 117.554L73.9448 62.1157L82.1855 63.6542L82.5475 118.179C84.4249 120.357 84.804 123.531 83.2834 125.853C81.5013 128.575 77.7923 129.09 74.9989 127.005Z"
            fill="#FEE6CC" />
        <path d="M117.854 251.093L126.35 251.093L130.392 218.324L117.853 218.325L117.854 251.093Z" fill="#FED8D7" />
        <path
            d="M115.688 248.319L132.418 248.319H132.419C135.247 248.319 137.959 249.442 139.958 251.442C141.958 253.441 143.081 256.153 143.081 258.981V259.327L115.688 259.328L115.688 248.319Z"
            fill="#333333" />
        <path d="M38.8567 251.093L47.3528 251.093L51.3941 218.324L38.8555 218.325L38.8567 251.093Z" fill="#FED8D7" />
        <path
            d="M36.6899 248.319L53.4208 248.319H53.4215C56.2492 248.319 58.9611 249.442 60.9606 251.442C62.9601 253.441 64.0835 256.153 64.0837 258.981V259.327L36.6905 259.328L36.6899 248.319Z"
            fill="#333333" />
        <path
            d="M117.359 241.94L116.647 237.668C115.915 237.413 115.294 236.914 114.886 236.255C114.121 235.047 113.999 233.347 114.523 231.201L108.791 182.793L78.8649 151.743L59.6665 198.05L52.0665 234.693V239.987L36.8927 241.936L37.5832 236.946C37.0027 236.697 36.5191 236.266 36.2054 235.718C35.3336 234.267 35.3455 232.018 36.2407 229.034L36.2795 228.904L36.23 228.459C36.1952 228.146 36.4234 198.216 45.3211 183.386L54.2322 138.362C54.0008 137.728 52.8583 134.037 54.9536 127.798C57.0214 121.642 62.8047 111.724 78.6134 99.4377L78.6677 99.3957L78.735 99.3815C78.9101 99.3453 96.3461 95.8789 105.364 107.671L105.425 107.751V107.851C105.425 108.58 105.409 125.546 104.067 129.31L125.465 168.655C125.882 169.096 129.623 173.416 128.294 184.774L131.751 223.489C132.146 224.244 135.724 231.355 131.78 234.17L132.487 239.059L117.359 241.94Z"
            fill="#FED8D7" />
        <path
            d="M81.5625 79.2484C77.5448 79.2484 72.2056 77.8284 68.9373 71.2828L68.873 71.1542L76.9249 54.0861C77.968 51.8749 79.8352 50.1597 82.1268 49.3075C84.4185 48.4553 86.9527 48.5339 89.1872 49.5264C91.4216 50.5189 93.1789 52.3465 94.0831 54.6181C94.9873 56.8898 94.9665 59.4251 94.0252 61.6816L87.0639 78.3697L86.9427 78.4146C85.2041 78.973 83.3885 79.2544 81.5625 79.2484Z"
            fill="#107CE8" />
        <path
            d="M103.867 113.088L78.4832 101.102L81.9723 58.5345L88.3333 50.76L89.5656 50.4961C95.2287 49.2837 101.113 49.6096 106.608 51.4401L106.729 51.4803L117.177 73.77C117.243 73.8812 124.778 87.1846 114.361 94.1985L103.867 113.088Z"
            fill="#107CE8" />
        <path
            d="M138.763 99.5227C138.46 99.6489 138.167 99.7989 137.888 99.9711L111.14 87.7358L110.454 80.6233L99.5843 80.2559L99.5754 92.9653C99.5747 93.9921 99.9071 94.9913 100.523 95.8131C101.138 96.6349 102.004 97.2349 102.989 97.5229L135.109 106.91C135.439 108.13 136.132 109.222 137.097 110.038C138.063 110.855 139.254 111.358 140.512 111.481C141.77 111.605 143.036 111.342 144.141 110.728C145.247 110.114 146.139 109.179 146.699 108.046C147.26 106.912 147.462 105.635 147.279 104.384C147.096 103.133 146.537 101.968 145.675 101.043C144.813 100.117 143.691 99.4764 142.456 99.2049C141.221 98.9334 139.933 99.0442 138.763 99.5227Z"
            fill="#FEE6CC" />
        <path
            d="M106.046 83.6586C102.998 83.6586 99.5579 82.6046 96.2563 79.303L96.1545 79.2013L98.3854 60.4618C98.6744 58.0339 99.9021 55.8155 101.806 54.2813C103.71 52.7471 106.138 52.0189 108.572 52.2526C111.006 52.4862 113.252 53.6631 114.829 55.5314C116.406 57.3998 117.189 59.8112 117.011 62.2497L115.694 80.2831L115.593 80.3639C115.529 80.4158 111.39 83.6586 106.046 83.6586Z"
            fill="#107CE8" />
        <path
            d="M114.202 35.9314C118.711 27.6835 115.679 17.3423 107.432 12.8336C99.1836 8.32486 88.8424 11.3561 84.3337 19.604C79.825 27.8518 82.8562 38.1931 91.1041 42.7018C99.3519 47.2105 109.693 44.1793 114.202 35.9314Z"
            fill="#FEE6CC" />
        <path
            d="M116.59 18.7498C115.745 13.8377 111.802 9.76571 107.105 8.09961C102.407 6.4335 97.1097 6.97534 92.5096 8.89398C91.7436 9.21494 90.9946 9.57508 90.2655 9.97297C88.5842 6.76812 84.4621 4.90937 80.6918 5.10998C76.137 5.35234 72.0235 7.76237 68.0677 10.0338C64.1118 12.3051 59.8669 14.5651 55.3065 14.4593C47.0654 14.2682 40.9344 6.62784 33.0099 4.35722C29.4822 3.34646 25.7286 3.44871 22.2611 4.65001C18.7937 5.85131 15.7813 8.09316 13.635 11.0697C11.4888 14.0462 10.3131 17.6124 10.2684 21.2818C10.2237 24.9512 11.3123 28.545 13.3855 31.5728C16.7667 25.5134 24.7071 23.4668 31.597 24.2917C38.4867 25.1167 44.9079 28.1367 51.6576 29.7453C58.4077 31.354 66.225 31.285 71.4533 26.723C74.4191 24.1353 76.1604 20.4367 78.7423 17.466C80.4888 15.4566 82.9751 13.7599 85.5155 13.3606C83.0132 15.614 81.1029 18.4476 79.9524 21.6123C77.9154 27.3999 79.0044 34.3489 83.2302 38.7974C87.7605 43.5666 94.8708 44.8376 101.448 44.7605L101.586 44.6206C99.5719 41.6063 97.9827 37.4265 100.2 34.5584C102.389 31.7273 106.705 32.1444 110.057 30.8916C114.726 29.1468 117.434 23.6619 116.59 18.7498Z"
            fill="#333333" />
        <path
            d="M162.531 260H0.593179C0.435858 260 0.28498 259.938 0.173738 259.826C0.062495 259.715 0 259.564 0 259.407C0 259.25 0.062495 259.099 0.173738 258.987C0.28498 258.876 0.435858 258.814 0.593179 258.814H162.531C162.688 258.814 162.839 258.876 162.95 258.987C163.062 259.099 163.124 259.25 163.124 259.407C163.124 259.564 163.062 259.715 162.95 259.826C162.839 259.938 162.688 260 162.531 260Z"
            fill="#9C9C9C" />
        <path
            d="M219.411 55.9783C218.668 55.9806 218.067 56.945 218.069 58.1322C218.07 59.3161 218.67 60.2753 219.411 60.2776H282.803C283.546 60.2752 284.147 59.3109 284.145 58.1237C284.144 56.9398 283.544 55.9806 282.803 55.9783H219.411Z"
            fill="white" />
        <path
            d="M219.411 68.4351C218.668 68.4374 218.067 69.4018 218.069 70.589C218.07 71.7729 218.67 72.7321 219.411 72.7344H282.803C283.546 72.732 284.147 71.7677 284.145 70.5805C284.144 69.3966 283.544 68.4374 282.803 68.4351H219.411Z"
            fill="white" />
        <path
            d="M219.411 80.7412C218.668 80.7436 218.067 81.7079 218.069 82.8951C218.07 84.0791 218.67 85.0382 219.411 85.0406H246.689C247.431 85.0382 248.032 84.0739 248.031 82.8866C248.029 81.7027 247.429 80.7435 246.689 80.7412H219.411Z"
            fill="white" />
        <path
            d="M187.224 87.5484C196.724 87.5484 204.426 79.8467 204.426 70.3462C204.426 60.8457 196.724 53.144 187.224 53.144C177.723 53.144 170.021 60.8457 170.021 70.3462C170.021 79.8467 177.723 87.5484 187.224 87.5484Z"
            fill="white" />
    </g>
    <defs>
        <clipPath id="clip0_7_2957">
            <rect width="489.258" height="260" fill="white" />
        </clipPath>
    </defs>
</svg>