<svg width="384" height="374" viewBox="0 0 384 374" fill="none" xmlns="http://www.w3.org/2000/svg">
    <g clip-path="url(#clip0_791_2907)">
        <path
            d="M244.921 83.8374H224.489V257.943C224.489 260.675 223.951 263.38 222.905 265.904C221.859 268.427 220.326 270.721 218.394 272.652C216.461 274.584 214.167 276.116 211.642 277.161C209.117 278.207 206.411 278.745 203.678 278.745H47.4688V278.944C47.4687 281.675 48.007 284.38 49.0529 286.904C50.0988 289.428 51.6318 291.721 53.5643 293.653C55.4969 295.584 57.7911 297.116 60.3161 298.162C62.8411 299.207 65.5473 299.745 68.2804 299.745H244.921C247.654 299.745 250.36 299.207 252.885 298.162C255.41 297.116 257.705 295.584 259.637 293.653C261.57 291.721 263.103 289.428 264.149 286.904C265.194 284.38 265.733 281.675 265.733 278.944V104.639C265.733 99.1219 263.54 93.831 259.637 89.93C255.734 86.029 250.441 83.8374 244.921 83.8374Z"
            fill="#D9D9D9" />
        <path
            d="M341.777 360.519C342.139 360.535 342.497 360.44 342.803 360.247C343.108 360.053 343.347 359.77 343.487 359.436C343.627 359.102 343.66 358.734 343.583 358.38C343.506 358.026 343.323 357.705 343.057 357.459L342.936 356.978C342.952 356.94 342.968 356.901 342.984 356.863C343.348 356.003 343.959 355.269 344.739 354.755C345.519 354.24 346.434 353.968 347.368 353.971C348.303 353.975 349.216 354.254 349.992 354.774C350.768 355.295 351.374 356.033 351.732 356.896C353.162 360.34 354.984 363.79 355.432 367.431C355.63 369.041 355.547 370.673 355.186 372.254C358.547 364.927 360.292 356.964 360.303 348.904C360.303 346.882 360.191 344.861 359.966 342.851C359.78 341.203 359.522 339.567 359.192 337.943C357.391 329.129 353.524 320.869 347.908 313.839C345.19 312.357 342.992 310.078 341.611 307.308C341.11 306.313 340.756 305.25 340.56 304.153C340.867 304.194 341.716 299.527 341.485 299.24C341.912 298.592 342.677 298.27 343.143 297.638C345.464 294.493 348.662 295.042 350.331 299.316C353.897 301.114 353.931 304.098 351.743 306.967C350.351 308.792 350.16 311.262 348.939 313.216C349.064 313.377 349.195 313.533 349.321 313.693C351.618 316.646 353.62 319.816 355.298 323.158C354.89 319.414 355.377 315.626 356.719 312.106C358.079 308.826 360.629 306.063 362.875 303.227C363.469 302.466 364.275 301.897 365.192 301.593C366.11 301.29 367.096 301.264 368.028 301.521C368.959 301.778 369.794 302.305 370.426 303.035C371.057 303.766 371.458 304.667 371.578 305.626C371.583 305.667 371.587 305.709 371.591 305.751C371.258 305.939 370.931 306.139 370.612 306.35C370.211 306.618 369.9 307.001 369.72 307.448C369.54 307.896 369.5 308.388 369.604 308.858C369.708 309.329 369.953 309.758 370.305 310.088C370.657 310.418 371.101 310.633 371.578 310.707L371.627 310.714C371.508 311.916 371.298 313.107 370.998 314.276C373.879 325.411 367.66 329.466 358.78 329.649C358.584 329.749 358.393 329.849 358.197 329.945C359.883 334.721 360.941 339.696 361.343 344.745C361.571 347.723 361.558 350.715 361.303 353.692L361.318 353.586C361.961 350.277 363.728 347.29 366.319 345.131C370.168 341.972 375.605 340.808 379.757 338.268C380.198 337.985 380.711 337.834 381.235 337.832C381.76 337.831 382.274 337.98 382.716 338.261C383.159 338.542 383.512 338.943 383.734 339.418C383.955 339.893 384.037 340.422 383.968 340.941L383.951 341.052C383.332 341.304 382.729 341.594 382.146 341.921C381.813 342.109 381.486 342.309 381.167 342.52C380.766 342.788 380.455 343.171 380.275 343.619C380.095 344.066 380.054 344.558 380.159 345.029C380.263 345.5 380.508 345.928 380.86 346.258C381.212 346.588 381.656 346.804 382.133 346.877L382.181 346.885C382.217 346.89 382.247 346.895 382.282 346.9C381.224 349.424 379.74 351.747 377.894 353.767C376.093 363.487 368.357 364.409 360.082 361.579H360.077C359.169 365.522 357.853 369.361 356.151 373.033H342.128C342.078 372.877 342.033 372.716 341.987 372.561C343.285 372.642 344.589 372.565 345.868 372.33C344.827 371.054 343.787 369.767 342.746 368.491C342.723 368.468 342.701 368.442 342.681 368.416C342.153 367.763 341.621 367.115 341.093 366.462L341.092 366.461C341.064 364.459 341.295 362.462 341.777 360.519Z"
            fill="#D1FCEC" />
        <path
            d="M187.326 60.154C187.838 60.9293 188.513 61.5842 189.303 62.0734C190.093 62.5626 190.98 62.8744 191.902 62.9872C192.825 63.1001 193.761 63.0113 194.646 62.727C195.53 62.4428 196.343 61.9698 197.027 61.3408L226.181 74.4876L231.802 67.3216L197.061 51.9599C195.916 50.888 194.417 50.2731 192.849 50.2317C191.281 50.1903 189.752 50.7253 188.552 51.7354C187.352 52.7454 186.565 54.1603 186.339 55.7119C186.113 57.2635 186.464 58.8441 187.326 60.154Z"
            fill="#FEE6CC" />
        <path
            d="M312.444 68.3518L315.336 84.7293C315.471 85.4933 315.444 86.2771 315.258 87.0304C315.072 87.7836 314.73 88.4896 314.255 89.1031C313.78 89.7166 313.182 90.224 312.499 90.5927C311.816 90.9614 311.063 91.1833 310.289 91.2441L261.156 95.1059L203.402 69.2712L210.3 56.1831L260.436 72.0517L312.444 68.3518Z"
            fill="#0064C7" />
        <path
            d="M197.452 56.6145H20.8116C9.31768 56.6145 0 65.9276 0 77.4158V251.721C0 263.209 9.31768 272.522 20.8116 272.522H197.452C208.946 272.522 218.264 263.209 218.264 251.721V77.4158C218.264 65.9276 208.946 56.6145 197.452 56.6145Z"
            fill="#D9D9D9" />
        <path
            d="M20.812 60.8923C18.641 60.8923 16.4913 61.3197 14.4856 62.1501C12.4798 62.9805 10.6574 64.1976 9.12229 65.732C7.58718 67.2663 6.36946 69.0878 5.53866 71.0926C4.70786 73.0973 4.28027 75.246 4.28027 77.4159V251.721C4.28027 256.103 6.022 260.306 9.12229 263.405C12.2226 266.504 16.4275 268.245 20.812 268.245H133.548C144.111 268.245 154.571 266.165 164.33 262.125C174.089 258.085 182.956 252.163 190.425 244.697C197.894 237.232 203.819 228.369 207.861 218.615C211.904 208.861 213.984 198.406 213.984 187.849V77.4159C213.984 75.246 213.556 73.0973 212.726 71.0926C211.895 69.0878 210.677 67.2663 209.142 65.732C207.607 64.1976 205.785 62.9805 203.779 62.1501C201.773 61.3197 199.623 60.8923 197.452 60.8923H20.812Z"
            fill="#F7F7F7" />
        <path
            d="M158.511 113.791H59.3667C58.457 113.791 57.5845 113.43 56.9412 112.787C56.2979 112.144 55.9365 111.272 55.9365 110.362C55.9365 109.453 56.2979 108.581 56.9412 107.938C57.5845 107.295 58.457 106.934 59.3667 106.934H158.511C159.421 106.934 160.294 107.295 160.937 107.938C161.58 108.581 161.942 109.453 161.942 110.362C161.942 111.272 161.58 112.144 160.937 112.787C160.294 113.43 159.421 113.791 158.511 113.791Z"
            fill="#D9D9D9" />
        <path
            d="M158.511 186.903H59.3667C58.457 186.903 57.5845 186.542 56.9412 185.899C56.2979 185.256 55.9365 184.384 55.9365 183.475C55.9365 182.566 56.2979 181.694 56.9412 181.051C57.5845 180.408 58.457 180.046 59.3667 180.046H158.511C159.421 180.046 160.294 180.408 160.937 181.051C161.58 181.694 161.942 182.566 161.942 183.475C161.942 184.384 161.58 185.256 160.937 185.899C160.294 186.542 159.421 186.903 158.511 186.903Z"
            fill="#D9D9D9" />
        <path
            d="M198.772 150.371H19.106C18.1962 150.371 17.3238 150.01 16.6805 149.367C16.0372 148.724 15.6758 147.852 15.6758 146.943C15.6758 146.033 16.0372 145.161 16.6805 144.518C17.3238 143.875 18.1962 143.514 19.106 143.514H198.772C199.682 143.514 200.554 143.875 201.197 144.518C201.841 145.161 202.202 146.033 202.202 146.943C202.202 147.852 201.841 148.724 201.197 149.367C200.554 150.01 199.682 150.371 198.772 150.371Z"
            fill="#D9D9D9" />
        <path d="M306.237 140.537L288.339 178.649L357.19 171.679L342.817 135.092L306.237 140.537Z" fill="#FEE6CC" />
        <path d="M322.244 359.589L315.716 359.534L312.826 333.78L322.46 333.862L322.244 359.589Z" fill="#FEE6CC" />
        <path
            d="M301.334 369.964C301.328 370.737 301.63 371.482 302.172 372.033C302.715 372.585 303.454 372.899 304.228 372.907L317.207 373.015L319.479 368.412L320.313 373.038L325.21 373.083L323.974 356.581L322.27 356.467L315.32 355.988L313.078 355.838L313.039 360.507L302.613 367.576C302.222 367.841 301.902 368.196 301.679 368.612C301.456 369.028 301.338 369.492 301.334 369.964Z"
            fill="#333333" />
        <path d="M250.002 359.618L243.778 357.648L248.586 332.183L257.772 335.09L250.002 359.618Z" fill="#FEE6CC" />
        <path
            d="M226.965 363.395C226.732 364.133 226.802 364.933 227.158 365.619C227.514 366.306 228.128 366.823 228.866 367.058L241.24 370.973L244.765 367.24L244.203 371.907L248.871 373.388L252.54 357.251L250.944 356.642L244.442 354.144L242.343 353.342L240.933 357.793L228.89 361.488C228.438 361.626 228.027 361.872 227.692 362.204C227.357 362.537 227.108 362.945 226.965 363.395Z"
            fill="#333333" />
        <path
            d="M354.054 160.961L291.452 172.427C291.452 172.427 281.411 179.934 284.097 182.622C286.783 185.311 287.199 184.895 285.435 186.658C283.67 188.422 279.854 190.78 279.817 192.323C279.779 193.867 251.765 263.09 251.765 263.09C251.765 263.09 254.877 261.535 252.543 263.868C250.208 266.201 250.208 268.129 250.208 268.129L239.314 341.647L257.007 342.688L274.332 275.664L312.976 213.048C312.976 213.048 316.81 268.885 316.971 272.599C317.132 276.313 319.466 271.646 317.132 276.313C314.797 280.979 313.241 277.868 314.797 280.979C316.353 284.091 309.191 347.43 309.191 347.43H325.34L359.977 216.145C359.977 216.145 372.3 178.613 354.054 160.961Z"
            fill="#FED8D7" />
        <path
            d="M335.612 55.9502L310.535 53.3459L304.038 61.7766L296.47 65.8058C293.267 67.5109 290.623 70.102 288.854 73.2693C287.086 76.4365 286.268 80.0459 286.497 83.6657L295.342 135.093C295.342 135.093 287.871 151.908 293.008 156.093C298.145 160.278 289.036 170.643 300.012 165.427C310.987 160.21 358.375 166.204 358.375 166.204L348.259 137.426L355.816 109.147L356.647 85.4361C356.803 81.0053 355.487 76.6476 352.906 73.0422C350.324 69.4368 346.622 66.7863 342.376 65.5038L341.319 65.1846L335.612 55.9502Z"
            fill="#0064C7" />
        <path
            d="M370.135 36.7352C370.299 43.7998 367.658 50.6405 363.863 56.649C362.736 53.1413 360.709 49.9489 358.595 46.9056C359.66 53.4891 358.525 60.24 355.365 66.1137C355.254 66.1933 355.138 66.2673 355.02 66.3353C351.926 68.195 348.005 68.9482 344.659 67.605C351.572 60.1563 352.452 47.815 346.656 39.4601C345.015 37.0894 342.893 34.9927 341.876 32.2947C340.271 27.99 341.814 23.2504 342.787 18.7623C343.697 14.5853 343.856 9.61453 341.053 6.55326C341.352 6.12546 341.76 5.78492 342.235 5.56656C342.709 5.34819 343.233 5.25984 343.753 5.31056C345.482 5.55462 346.74 7.05643 347.541 8.6032C348.343 10.1499 348.871 11.8642 349.988 13.2002C352.057 15.7008 355.579 16.292 358.547 17.6099C365.736 20.8102 369.963 28.8741 370.135 36.7352Z"
            fill="#2F2E41" />
        <path
            d="M184.935 373.075C184.934 373.196 184.958 373.317 185.004 373.429C185.051 373.542 185.119 373.644 185.205 373.73C185.291 373.816 185.393 373.884 185.506 373.93C185.618 373.977 185.739 374 185.861 374H382.965C383.211 374 383.446 373.903 383.62 373.729C383.793 373.555 383.891 373.32 383.891 373.075C383.891 372.829 383.793 372.594 383.62 372.42C383.446 372.246 383.211 372.149 382.965 372.149H185.861C185.739 372.149 185.618 372.172 185.506 372.219C185.393 372.265 185.291 372.333 185.205 372.419C185.119 372.505 185.051 372.607 185.004 372.72C184.958 372.832 184.934 372.953 184.935 373.075Z"
            fill="#D9D9D9" />
        <path
            d="M371.687 200.474C375.555 200.474 378.691 197.34 378.691 193.474C378.691 189.608 375.555 186.474 371.687 186.474C367.819 186.474 364.684 189.608 364.684 193.474C364.684 197.34 367.819 200.474 371.687 200.474Z"
            fill="#0064C7" />
        <path
            d="M309.626 32.6959C310.037 31.2589 307.205 40.0433 308.571 40.2018C314.794 40.9154 323.336 44.6299 327.671 46.3629C327.866 46.3402 328.061 46.3176 328.25 46.2892C328.715 46.2383 329.169 46.1646 329.617 46.0797C339.709 44.1712 343.589 28.6765 343.589 28.535C343.589 27.8384 341.917 8.7067 339.282 8.42359C338.59 8.34853 337.894 8.31072 337.198 8.31032H330.66C329.307 8.01891 327.935 7.82023 326.555 7.71569H326.544C313.381 6.71329 303.002 14.7323 303.972 24.49C303.977 24.5013 303.989 24.5127 303.995 24.524C304.276 24.9431 304.523 25.3395 304.741 25.7189C304.953 26.0757 305.131 26.4155 305.286 26.7383C306.486 29.2301 303.402 32.3656 305.447 32.9508C308.167 33.7292 298.294 59.313 309.059 59.313C303.823 60.8011 308.493 36.6602 309.626 32.6959Z"
            fill="#2F2E41" />
        <path
            d="M321.376 47.7073C329.926 47.7073 336.857 40.7798 336.857 32.2343C336.857 23.6887 329.926 16.7612 321.376 16.7612C312.826 16.7612 305.896 23.6887 305.896 32.2343C305.896 40.7798 312.826 47.7073 321.376 47.7073Z"
            fill="#FEE6CC" />
        <path
            d="M303.972 25.3338C304.23 25.4697 304.483 25.5943 304.741 25.7189C305.011 25.8491 305.281 25.9794 305.55 26.0983C310.734 28.4486 314.953 28.7091 317.514 25.3338C317.582 23.5578 317.981 21.8102 318.69 20.1803C318.565 22.0017 319.046 23.8134 320.057 25.3338H325.212C330.522 28.8563 333.249 29.2244 329.563 40.7886C328.535 44.011 324.45 62.7618 326.057 65.5424C326.522 65.4915 331.469 44.9535 331.917 44.8686C342.009 42.9601 348.421 26.3418 347.6 25.4018C347.604 22.7284 346.989 20.0904 345.803 17.6942C344.303 14.6583 341.964 12.1153 339.064 10.366C337.335 9.52811 335.532 8.85132 333.679 8.34425C333.633 8.33291 333.593 8.32157 333.547 8.31027C332.979 8.15735 332.399 8.01578 331.819 7.89685C330.621 7.64406 329.41 7.46064 328.191 7.34753C328.105 7.34186 328.019 7.33618 327.939 7.33618C327.452 7.33732 326.974 7.46832 326.555 7.71564C326.549 7.71564 326.549 7.72128 326.544 7.72128C326.244 7.89622 325.983 8.12918 325.774 8.40651C325.408 8.87315 325.209 9.44986 325.212 10.0432H319.471C319.259 10.0432 319.046 10.0488 318.834 10.0602C315.003 10.191 311.358 11.7462 308.613 14.4213C305.869 17.0965 304.222 20.699 303.995 24.524C303.977 24.7958 303.972 25.062 303.972 25.3338Z"
            fill="#2F2E41" />
        <path
            d="M337.819 20.3875C343.452 20.3875 348.018 15.8236 348.018 10.1937C348.018 4.56389 343.452 0 337.819 0C332.187 0 327.621 4.56389 327.621 10.1937C327.621 15.8236 332.187 20.3875 337.819 20.3875Z"
            fill="#2F2E41" />
        <path
            d="M371.766 196.361C372.264 195.576 372.585 194.693 372.707 193.772C372.83 192.851 372.751 191.915 372.476 191.027C372.201 190.14 371.737 189.323 371.114 188.633C370.492 187.943 369.728 187.396 368.874 187.03L368.924 155.062L360.081 152.874L360.298 190.843C359.789 192.327 359.842 193.945 360.447 195.392C361.052 196.838 362.167 198.013 363.58 198.693C364.994 199.373 366.608 199.511 368.116 199.081C369.625 198.652 370.924 197.683 371.766 196.361Z"
            fill="#FEE6CC" />
        <path
            d="M327.973 78.928L341.735 69.5802C342.377 69.1441 343.103 68.847 343.866 68.708C344.63 68.569 345.414 68.5911 346.169 68.7729C346.924 68.9548 347.632 69.2923 348.248 69.7639C348.865 70.2355 349.376 70.8307 349.748 71.5113L373.408 114.724L373.498 177.967L358.727 177.042L352.663 124.829L327.973 78.928Z"
            fill="#0064C7" />
        <path
            d="M222.283 222.353H75.2072C72.0083 222.353 68.9403 223.623 66.6783 225.884C64.4163 228.145 63.1455 231.212 63.1455 234.409C63.1455 237.606 64.4163 240.673 66.6783 242.934C68.9403 245.195 72.0083 246.465 75.2072 246.465H222.283C225.482 246.465 228.55 245.195 230.812 242.934C233.074 240.673 234.344 237.606 234.344 234.409C234.344 231.212 233.074 228.145 230.812 225.884C228.55 223.623 225.482 222.353 222.283 222.353Z"
            fill="#F7F7F7" />
        <path
            d="M222.282 247.243H75.2071C71.8017 247.243 68.5359 245.89 66.1279 243.484C63.72 241.077 62.3672 237.813 62.3672 234.409C62.3672 231.005 63.72 227.741 66.1279 225.334C68.5359 222.928 71.8017 221.575 75.2071 221.575H222.282C225.688 221.575 228.954 222.928 231.362 225.334C233.77 227.741 235.122 231.005 235.122 234.409C235.122 237.813 233.77 241.077 231.362 243.484C228.954 245.89 225.688 247.243 222.282 247.243ZM75.2071 223.131C72.2145 223.131 69.3445 224.319 67.2284 226.434C65.1123 228.549 63.9235 231.418 63.9235 234.409C63.9235 237.4 65.1123 240.269 67.2284 242.384C69.3445 244.499 72.2145 245.687 75.2071 245.687H222.282C225.275 245.687 228.145 244.499 230.261 242.384C232.377 240.269 233.566 237.4 233.566 234.409C233.566 231.418 232.377 228.549 230.261 226.434C228.145 224.319 225.275 223.131 222.282 223.131H75.2071Z"
            fill="#0064C7" />
        <path
            d="M230.955 274.965H166.05C165.141 274.965 164.268 274.604 163.625 273.961C162.982 273.318 162.62 272.446 162.62 271.537C162.62 270.628 162.982 269.756 163.625 269.113C164.268 268.47 165.141 268.108 166.05 268.108H230.955C231.865 268.108 232.737 268.47 233.381 269.113C234.024 269.756 234.385 270.628 234.385 271.537C234.385 272.446 234.024 273.318 233.381 273.961C232.737 274.604 231.865 274.965 230.955 274.965Z"
            fill="#0064C7" />
    </g>
    <defs>
        <clipPath id="clip0_791_2907">
            <rect width="384" height="374" fill="white" />
        </clipPath>
    </defs>
</svg>