<svg width="60" height="60" viewBox="0 0 60 60" fill="none" xmlns="http://www.w3.org/2000/svg">
<path d="M37.5 10H12.5V50H47.5V20H37.5V10ZM7.5 7.4795C7.5 6.11013 8.61873 5 9.99625 5H40L52.4993 17.5L52.5 52.4813C52.5 53.8722 51.3877 55 50.0165 55H9.9835C8.6119 55 7.5 53.8617 7.5 52.5205V7.4795ZM33.8225 36.116C29.9878 38.381 24.9658 37.866 21.671 34.571C17.7658 30.6657 17.7658 24.3342 21.671 20.4289C25.5763 16.5237 31.9077 16.5237 35.813 20.4289C39.108 23.7238 39.623 28.7458 37.358 32.5805L42.8843 38.1065L39.3488 41.6423L33.8225 36.116ZM32.2775 31.0355C34.2303 29.083 34.2303 25.917 32.2775 23.9645C30.325 22.0118 27.1592 22.0118 25.2065 23.9645C23.2539 25.917 23.2539 29.083 25.2065 31.0355C27.1592 32.9882 30.325 32.9882 32.2775 31.0355Z" fill="#0064C7"/>
</svg>
