<svg width="60" height="60" viewBox="0 0 60 60" fill="none" xmlns="http://www.w3.org/2000/svg">
<path d="M49.8453 20H52.5C55.2615 20 57.5 22.2386 57.5 25V35C57.5 37.7615 55.2615 40 52.5 40H49.8453C48.615 49.8657 40.199 57.5 30 57.5V52.5C38.2842 52.5 45 45.7842 45 37.5V22.5C45 14.2157 38.2842 7.5 30 7.5C21.7157 7.5 15 14.2157 15 22.5V40H7.5C4.73857 40 2.5 37.7615 2.5 35V25C2.5 22.2386 4.73857 20 7.5 20H10.1547C11.385 10.1342 19.801 2.5 30 2.5C40.199 2.5 48.615 10.1342 49.8453 20ZM7.5 25V35H10V25H7.5ZM50 25V35H52.5V25H50ZM19.3986 39.4622L22.049 35.2218C24.354 36.6655 27.0795 37.5 30 37.5C32.9205 37.5 35.646 36.6655 37.951 35.2218L40.6015 39.4622C37.528 41.3872 33.894 42.5 30 42.5C26.106 42.5 22.472 41.3872 19.3986 39.4622Z" fill="#0064C7"/>
</svg>
