<svg version="1.1" xmlns="http://www.w3.org/2000/svg" xmlns:xlink="http://www.w3.org/1999/xlink" x="0px" y="0px"
    viewBox="0 0 256 256" enable-background="new 0 0 256 256" xml:space="preserve">
    <metadata> Svg Vector Icons : http://www.onlinewebfonts.com/icon </metadata>
    <g>
        <g>
            <g>
                <path fill="#000000"
                    d="M85.1,44c-25.2,3.1-47.2,16.5-61,37c-28,41.7-13.1,99.1,31.6,121.7c11.8,5.9,22,8.6,35,9.1l7.3,0.3v-6.3c0-3.4,0.1-6.6,0.3-7c0.2-0.6-0.6-0.7-5.3-0.9c-4.8-0.1-5.6-0.3-6.1-1.1c-3.1-5-7.3-13-9.2-17.5c-2.4-5.6-6.1-16.3-6.1-17.5c0-0.5,3.4-0.6,18.4-0.6c11.4,0,18.4-0.2,18.4-0.5c0-0.6,6.2-5.5,8.7-6.9c1.1-0.6,5.1-2.3,9-3.9c8.2-3.4,7.4-1.9,8.3-15.5c0.5-8.9,0.5-9.3-0.4-11.2c-1.4-2.8-3.4-9.8-4.1-14.1c-0.7-4.5-0.2-8.4,1.3-11.9c0.9-2,1-2.6,0.5-2.6c-0.4,0-0.9-0.9-1.2-2.1c-2.1-8.2-6.6-20.6-9.7-26.8c-0.7-1.4-1.2-2.6-1.1-2.8c0.4-0.4,7.8,3.2,12.1,6c2.3,1.5,4.3,2.8,4.5,2.8c0.1,0,1-1.4,2-3.1c1-1.7,2.8-4.3,4-5.7l2.1-2.6l-4.2-2.8c-5.3-3.5-14.1-7.7-20-9.6c-8.1-2.6-14.4-3.6-24.3-3.8C90.9,43.8,86.1,43.9,85.1,44z M99.7,58.1c1.4,0.5,6.3,9,9.9,16.9c2.6,5.8,6.4,16.8,6.4,18.5c0,1-0.2,1-21.9,1c-17.7,0-21.9-0.1-21.9-0.6c0-0.8,2.4-8,4.4-12.9c3.2-8,11.1-22.4,12.7-23C90.3,57.5,98.5,57.6,99.7,58.1z M67,67.7C63.6,75,60.9,81.9,59,88.7l-1.6,5.5l-12.3,0.1c-7.5,0-12.3-0.1-12.3-0.3c0-1.2,6.6-10.1,10.6-14.3c6.8-7.1,14.5-12.7,22.6-16.1c1.9-0.8,3.4-1.4,3.5-1.5C69.6,62.1,68.5,64.6,67,67.7z M54.1,111.5c-0.6,3.8-0.7,27.1-0.2,32.2l0.3,3.6l-13.8-0.1L26.6,147l-0.8-3.7c-1.5-6.5-2-14.1-1.4-21c0.5-5.3,1.7-12.5,2.4-13.5c0.1-0.2,6.4-0.3,14-0.3h13.8L54.1,111.5z M120,113.4c1,8.8,0.6,26.1-0.7,32.5l-0.3,1.4h-25c-20.7,0-25.1-0.1-25.3-0.7c-0.1-0.3-0.5-3.8-0.9-7.6c-0.6-7.5-0.4-18.5,0.6-26l0.6-4.6h25.2h25.2L120,113.4z M58.1,165.7c1.7,6.4,5,15.6,7.7,21.4c1.3,2.9,2.4,5.4,2.3,5.6c-0.2,0.6-9.2-4.1-13.6-7.1c-5.6-3.8-14.8-13.1-18.5-18.8c-1.7-2.5-3.1-4.9-3.1-5.1c0-0.3,4.6-0.4,12-0.3l12,0.1L58.1,165.7z" />
                <path fill="#000000"
                    d="M170.8,57.1c-10.4,3.3-20.7,13-24.4,22.7c-0.5,1.4-1.2,4.4-1.6,6.6c-0.6,3.9-0.4,6.2,0.8,12.2c0.2,1.1,0.1,1.3-1.1,1.6c-2.8,0.5-3.3,4-1.6,10.9c1.4,5.4,3,9.2,4.8,10.8c1,1,1.7,2.5,2.5,5.6c3.8,14.4,14.4,23.4,27.7,23.4c12.8,0,23.2-8.9,26.5-22.8c0.7-3.1,1-3.6,1.9-3.6c3.1,0,7.3-9.7,7.4-17.1c0-3.4-0.1-4-1-4.8c-1-0.8-1-0.9-0.3-4.8c0.4-2.1,0.7-6.7,0.7-10.2c0-6.9-0.6-10.5-2.8-14.2c-1.2-2.2-4.7-5.2-6-5.2c-0.3,0-2.2-1.6-4.3-3.6c-6.3-6.1-11.9-8.3-21.2-8.3C175.2,56.2,172.7,56.4,170.8,57.1z" />
                <path fill="#000000"
                    d="M150.1,152.1c-4.9,2.8-12.6,6.4-18.8,8.9c-10,3.9-13.5,6.5-16.2,11.6c-3.2,5.9-4.6,15.6-4.6,31.8v7.6h67.7H246v-7.6c0-10.1-0.8-20.4-2-24.9c-2.5-9.8-6.3-13.4-18.9-18.5c-5.7-2.3-14.5-6.4-19.3-9.2c-1.9-1.1-3.7-1.9-3.8-1.7c-0.1,0.2-2,6.2-4.3,13.3c-9.2,29.1-10.1,31.8-10.5,31.1c-0.2-0.4-1.5-4-2.9-8l-2.6-7.3l1.8-2.9c2.1-3.3,3.7-7.5,3.7-9.7c0-4.1-3.3-6.5-9-6.5c-9.6,0-11.7,6.9-5.1,16.6l1.6,2.3l-2.8,8c-1.7,4.9-3,7.8-3.2,7.3c-0.2-0.3-3.4-10.4-7.2-22.3c-3.8-11.9-7-21.8-7.2-22C154.3,149.9,152.3,150.8,150.1,152.1z" />
            </g>
        </g>
    </g>
</svg>