<svg width="652" height="582" viewBox="0 0 652 582" fill="none" xmlns="http://www.w3.org/2000/svg">
<g clip-path="url(#clip0_381_2064)">
<path d="M133.151 541.528C133.038 554.392 132.096 567.236 130.33 579.979C130.268 580.427 130.201 580.874 130.139 581.322L9.66355 580.649C9.30982 580.204 8.96164 579.755 8.6243 579.299C7.49953 577.793 6.44529 576.244 5.4776 574.641C0.826222 566.921 -1.30323 557.882 0.83069 551.645L0.868929 551.548C1.32956 550.183 2.0554 548.921 3.00479 547.837C7.87008 542.36 17.7072 543.273 26.6342 547.694C18.6273 538.929 12.2517 527.87 11.7672 517.998C11.2922 508.369 16.3272 501.491 21.7881 495.645C21.9673 495.452 22.1465 495.264 22.3256 495.076C22.4126 494.979 22.5048 494.888 22.5915 494.792C26.8522 490.337 31.8195 485.945 39.0092 486.477C46.8945 487.06 55.637 493.665 61.7668 501.361C67.8967 509.052 71.9702 517.79 76.0991 526.317C80.2333 534.838 84.7061 543.577 91.3402 550.861C82.3548 539.496 75.1102 526.565 72.4341 513.988C69.7579 501.411 72.1131 489.332 80.1212 483.409C82.5524 481.667 85.3656 480.531 88.3255 480.099C88.6709 480.042 89.0219 479.995 89.3783 479.954C96.7916 479.11 105.643 481.674 113.174 487.803C121.467 494.551 127.217 504.555 130.078 514.051C132.939 523.548 133.243 532.69 133.151 541.528Z" fill="#F5FAFF"/>
<path d="M54.3294 580.898L52.0257 580.886C51.2942 580.428 50.5592 579.976 49.8209 579.53C49.3638 579.241 48.9013 578.963 48.4387 578.68C40.7972 574.013 33.108 569.537 25.371 565.25C17.641 560.961 9.87213 556.869 2.06445 552.974C1.85749 552.884 1.68867 552.724 1.58727 552.523C1.48588 552.321 1.45834 552.09 1.50945 551.87C1.51782 551.841 1.53078 551.814 1.54784 551.789C1.65674 551.585 1.90015 551.5 2.25539 551.675C3.21306 552.155 4.17627 552.635 5.13387 553.126C12.9629 557.087 20.7583 561.246 28.5202 565.603C36.2766 569.957 43.9889 574.504 51.657 579.243C51.8183 579.341 51.9797 579.445 52.1409 579.543C52.8721 579.995 53.5981 580.447 54.3294 580.898Z" fill="white"/>
<path d="M84.0326 581.064L82.6081 581.056C82.2868 580.607 81.971 580.157 81.6497 579.707C74.1009 569.122 66.5536 558.536 59.008 547.95C46.6511 530.62 34.2979 513.289 21.9483 495.959C21.8751 495.866 21.8207 495.759 21.7881 495.645C21.6825 495.261 21.9643 495.036 22.3256 495.076C22.4779 495.098 22.6238 495.152 22.7536 495.234C22.8834 495.317 22.9941 495.426 23.0783 495.555C30.0062 505.274 36.9324 514.989 43.8569 524.701C56.1494 541.945 68.4402 559.187 80.7293 576.427C81.511 577.521 82.2926 578.621 83.0743 579.715C83.3956 580.165 83.7169 580.615 84.0326 581.064Z" fill="white"/>
<path d="M115.768 572.792C115.695 575.193 115.537 577.555 115.329 579.896C115.289 580.343 115.249 580.791 115.208 581.239L113.714 581.23C113.759 580.783 113.805 580.335 113.845 579.887C114.161 576.506 114.385 573.086 114.416 569.574C114.455 559.835 113.506 550.118 111.583 540.571C109.539 530.292 106.603 520.21 102.81 510.44C98.8292 500.136 94.0293 490.167 88.4567 480.629C88.3517 480.473 88.305 480.286 88.3247 480.099C88.3864 479.673 88.9536 479.547 89.3776 479.954C89.4614 480.034 89.5335 480.125 89.5919 480.225C90.2813 481.41 90.9582 482.6 91.6225 483.792C96.9896 493.383 101.583 503.387 105.361 513.708C108.958 523.51 111.695 533.607 113.539 543.884C115.267 553.419 116.014 563.105 115.768 572.792Z" fill="white"/>
<path d="M439.451 19C439.451 15.2422 440.566 11.5687 442.653 8.44417C444.741 5.31964 447.708 2.88436 451.18 1.4463C454.652 0.00823092 458.472 -0.36803 462.158 0.365089C465.844 1.09821 469.229 2.90778 471.886 5.56498C474.543 8.22218 476.353 11.6076 477.086 15.2933C477.819 18.9789 477.443 22.7992 476.005 26.271C474.567 29.7428 472.132 32.7102 469.007 34.7979C465.882 36.8857 462.209 38 458.451 38C453.414 37.9943 448.584 35.9907 445.022 32.4287C441.461 28.8668 439.457 24.0374 439.451 19ZM475.451 19C475.451 15.6377 474.454 12.3509 472.586 9.5553C470.718 6.75967 468.063 4.58073 464.957 3.29404C461.85 2.00735 458.432 1.6707 455.135 2.32665C451.837 2.9826 448.808 4.6017 446.43 6.97919C444.053 9.35669 442.434 12.3858 441.778 15.6835C441.122 18.9811 441.459 22.3993 442.745 25.5056C444.032 28.612 446.211 31.267 449.006 33.135C451.802 35.003 455.089 36 458.451 36C462.958 35.9949 467.279 34.2022 470.466 31.0152C473.653 27.8282 475.446 23.5071 475.451 19Z" fill="#CCCCCC"/>
<path d="M458.451 30C464.526 30 469.451 25.0751 469.451 19C469.451 12.9249 464.526 8 458.451 8C452.376 8 447.451 12.9249 447.451 19C447.451 25.0751 452.376 30 458.451 30Z" fill="#0064C7"/>
<path d="M394.451 37C404.392 37 412.451 28.9411 412.451 19C412.451 9.05887 404.392 1 394.451 1C384.51 1 376.451 9.05887 376.451 19C376.451 28.9411 384.51 37 394.451 37Z" fill="#CCCCCC"/>
<path d="M330.451 37C340.392 37 348.451 28.9411 348.451 19C348.451 9.05887 340.392 1 330.451 1C320.51 1 312.451 9.05887 312.451 19C312.451 28.9411 320.51 37 330.451 37Z" fill="#CCCCCC"/>
<path d="M634.451 346H175.451C170.944 345.995 166.623 344.202 163.436 341.015C160.249 337.828 158.456 333.507 158.451 329V88C158.456 83.4929 160.249 79.1718 163.436 75.9848C166.623 72.7978 170.944 71.0051 175.451 71H634.451C638.958 71.0051 643.279 72.7978 646.466 75.9848C649.653 79.1718 651.446 83.4929 651.451 88V329C651.446 333.507 649.653 337.828 646.466 341.015C643.279 344.202 638.958 345.995 634.451 346ZM175.451 73C171.474 73.0045 167.662 74.5863 164.85 77.3984C162.037 80.2104 160.456 84.0231 160.451 88V329C160.456 332.977 162.037 336.79 164.85 339.602C167.662 342.414 171.474 343.996 175.451 344H634.451C638.428 343.996 642.241 342.414 645.053 339.602C647.865 336.79 649.447 332.977 649.451 329V88C649.447 84.0231 647.865 80.2104 645.053 77.3984C642.241 74.5863 638.428 73.0045 634.451 73H175.451Z" fill="#107CE8"/>
<path d="M331.451 282H213.451C208.944 281.995 204.623 280.202 201.436 277.015C198.249 273.828 196.456 269.507 196.451 265V147C196.456 142.493 198.249 138.172 201.436 134.985C204.623 131.798 208.944 130.005 213.451 130H331.451C335.958 130.005 340.279 131.798 343.466 134.985C346.653 138.172 348.446 142.493 348.451 147V265C348.446 269.507 346.653 273.828 343.466 277.015C340.279 280.202 335.958 281.995 331.451 282ZM213.451 132C209.474 132.004 205.662 133.586 202.85 136.398C200.037 139.21 198.456 143.023 198.451 147V265C198.456 268.977 200.037 272.79 202.85 275.602C205.662 278.414 209.474 279.995 213.451 280H331.451C335.428 279.995 339.241 278.414 342.053 275.602C344.865 272.79 346.447 268.977 346.451 265V147C346.447 143.023 344.865 139.21 342.053 136.398C339.241 133.586 335.428 132.004 331.451 132H213.451Z" fill="#CCCCCC"/>
<path d="M622.439 194H395.439C393.318 194 391.283 193.157 389.783 191.657C388.282 190.157 387.439 188.122 387.439 186C387.439 183.878 388.282 181.843 389.783 180.343C391.283 178.843 393.318 178 395.439 178H622.439C624.561 178 626.596 178.843 628.096 180.343C629.597 181.843 630.439 183.878 630.439 186C630.439 188.122 629.597 190.157 628.096 191.657C626.596 193.157 624.561 194 622.439 194Z" fill="#CCCCCC"/>
<path d="M507.439 160H395.439C393.318 160 391.283 159.157 389.783 157.657C388.282 156.157 387.439 154.122 387.439 152C387.439 149.878 388.282 147.843 389.783 146.343C391.283 144.843 393.318 144 395.439 144H507.439C509.561 144 511.596 144.843 513.096 146.343C514.597 147.843 515.439 149.878 515.439 152C515.439 154.122 514.597 156.157 513.096 157.657C511.596 159.157 509.561 160 507.439 160Z" fill="#CCCCCC"/>
<path d="M622.439 261H395.439C393.318 261 391.283 260.157 389.783 258.657C388.282 257.157 387.439 255.122 387.439 253C387.439 250.878 388.282 248.843 389.783 247.343C391.283 245.843 393.318 245 395.439 245H622.439C624.561 245 626.596 245.843 628.096 247.343C629.597 248.843 630.439 250.878 630.439 253C630.439 255.122 629.597 257.157 628.096 258.657C626.596 260.157 624.561 261 622.439 261Z" fill="#CCCCCC"/>
<path d="M507.439 227H395.439C393.318 227 391.283 226.157 389.783 224.657C388.282 223.157 387.439 221.122 387.439 219C387.439 216.878 388.282 214.843 389.783 213.343C391.283 211.843 393.318 211 395.439 211H507.439C509.561 211 511.596 211.843 513.096 213.343C514.597 214.843 515.439 216.878 515.439 219C515.439 221.122 514.597 223.157 513.096 224.657C511.596 226.157 509.561 227 507.439 227Z" fill="#CCCCCC"/>
<path d="M343.016 277.051C342.883 277.051 342.752 277.025 342.63 276.974C342.507 276.922 342.397 276.847 342.304 276.753L202.686 135.254C202.594 135.161 202.521 135.05 202.472 134.929C202.423 134.807 202.398 134.677 202.398 134.545C202.399 134.414 202.426 134.284 202.477 134.163C202.528 134.042 202.603 133.933 202.696 133.84C202.79 133.748 202.9 133.675 203.022 133.626C203.144 133.577 203.274 133.552 203.405 133.552C203.536 133.553 203.666 133.58 203.787 133.631C203.908 133.682 204.018 133.757 204.11 133.85L343.727 275.349C343.866 275.489 343.96 275.667 343.997 275.861C344.035 276.054 344.014 276.255 343.938 276.437C343.862 276.619 343.734 276.774 343.57 276.883C343.406 276.993 343.213 277.051 343.016 277.051Z" fill="#CCCCCC"/>
<path d="M201.887 277.051C201.69 277.051 201.497 276.993 201.333 276.883C201.168 276.774 201.04 276.619 200.964 276.437C200.888 276.255 200.867 276.054 200.905 275.861C200.942 275.667 201.036 275.489 201.175 275.349L340.788 133.85C340.88 133.756 340.99 133.682 341.111 133.63C341.232 133.579 341.362 133.552 341.493 133.551C341.625 133.55 341.755 133.575 341.877 133.625C341.998 133.674 342.109 133.747 342.203 133.839C342.296 133.932 342.371 134.041 342.422 134.162C342.473 134.284 342.5 134.414 342.501 134.545C342.501 134.676 342.476 134.807 342.427 134.928C342.377 135.05 342.304 135.161 342.212 135.254L202.599 276.753C202.506 276.847 202.395 276.923 202.273 276.974C202.15 277.025 202.019 277.051 201.887 277.051Z" fill="#CCCCCC"/>
<path d="M615.451 316.5H551.451C547.34 316.5 543.398 314.867 540.491 311.96C537.584 309.053 535.951 305.111 535.951 301C535.951 296.889 537.584 292.947 540.491 290.04C543.398 287.133 547.34 285.5 551.451 285.5H615.451C619.562 285.5 623.505 287.133 626.411 290.04C629.318 292.947 630.951 296.889 630.951 301C630.951 305.111 629.318 309.053 626.411 311.96C623.505 314.867 619.562 316.5 615.451 316.5Z" fill="#0064C7"/>
<path d="M8.35547 581.224H309.355C309.621 581.224 309.875 581.119 310.063 580.932C310.25 580.744 310.355 580.49 310.355 580.224C310.355 579.959 310.25 579.705 310.063 579.517C309.875 579.33 309.621 579.224 309.355 579.224H8.35547C8.09025 579.224 7.83588 579.33 7.64835 579.517C7.46081 579.705 7.35547 579.959 7.35547 580.224C7.35547 580.49 7.46081 580.744 7.64835 580.932C7.83588 581.119 8.09025 581.224 8.35547 581.224Z" fill="#3F3D56"/>
<path d="M196.283 569.773L208.543 569.772L214.375 522.484L196.281 522.485L196.283 569.773Z" fill="#FEE6CC"/>
<path d="M232.188 581.155L193.657 581.157L193.656 566.27L217.3 566.269C221.248 566.269 225.035 567.837 227.827 570.629C230.619 573.421 232.187 577.207 232.188 581.155Z" fill="#333333"/>
<path d="M107.328 555.885L118.479 560.979L143.433 520.389L126.974 512.872L107.328 555.885Z" fill="#FEE6CC"/>
<path d="M135.258 581.157L100.21 565.149L106.395 551.608L127.902 561.431C131.493 563.071 134.286 566.071 135.665 569.77C137.045 573.47 136.898 577.566 135.258 581.157Z" fill="#333333"/>
<path d="M143.031 410.329C141.856 409.445 140.89 408.315 140.2 407.017C139.509 405.719 139.112 404.285 139.036 402.817C138.959 401.349 139.206 399.882 139.758 398.52C140.309 397.157 141.153 395.932 142.23 394.931L127.818 362.231L146.127 365.334L157.006 395.91C158.568 397.83 159.371 400.257 159.263 402.729C159.156 405.202 158.145 407.55 156.423 409.327C154.7 411.104 152.386 412.188 149.917 412.373C147.449 412.557 144.999 411.83 143.031 410.329Z" fill="#FEE6CC"/>
<path d="M192.594 553.316L180.831 450.592C180.737 449.765 180.351 449 179.742 448.432C179.134 447.864 178.344 447.532 177.512 447.494C176.681 447.457 175.864 447.716 175.207 448.227C174.55 448.737 174.096 449.465 173.927 450.279L168.097 478.373C168.014 478.771 167.878 479.155 167.692 479.516L133.56 545.885C133.057 546.862 132.214 547.621 131.191 548.019C130.167 548.418 129.033 548.429 128.002 548.049L116.134 543.676C115.574 543.47 115.061 543.154 114.624 542.748C114.187 542.342 113.836 541.852 113.59 541.309C113.344 540.765 113.208 540.178 113.191 539.582C113.174 538.986 113.276 538.392 113.491 537.835L141.276 465.782C141.423 465.401 141.502 464.997 141.51 464.589L142.929 389.354C142.95 388.251 143.376 387.194 144.125 386.384C144.874 385.574 145.894 385.068 146.992 384.96L220.726 377.767C221.379 377.703 222.037 377.783 222.655 378C223.273 378.217 223.837 378.567 224.306 379.024C224.775 379.482 225.138 380.036 225.371 380.649C225.603 381.262 225.699 381.918 225.652 382.571L213.265 553.13C213.178 554.263 212.669 555.321 211.837 556.095C211.005 556.868 209.912 557.3 208.776 557.304H197.065C195.96 557.304 194.893 556.898 194.069 556.162C193.244 555.427 192.719 554.413 192.594 553.316Z" fill="#333333"/>
<path d="M191.233 249.211C204.798 249.211 215.794 238.215 215.794 224.65C215.794 211.086 204.798 200.089 191.233 200.089C177.668 200.089 166.672 211.086 166.672 224.65C166.672 238.215 177.668 249.211 191.233 249.211Z" fill="#FEE6CC"/>
<path d="M212.518 262.629C211.845 262.308 211.178 261.999 210.515 261.702C202.45 258.074 193.564 256.662 184.771 257.611C175.979 258.561 167.599 261.837 160.495 267.104C147.414 276.847 141.108 291.516 143.196 307.35C147.597 340.723 142.558 385.993 142.035 390.502C182.411 409.068 217.833 385.726 220.978 383.557L212.518 262.629Z" fill="#0064C7"/>
<path d="M140.936 390.072C140.2 389.956 139.505 389.657 138.914 389.205C138.322 388.753 137.852 388.16 137.546 387.481L116.936 341.816C116.164 340.107 115.823 338.235 115.944 336.364C116.064 334.493 116.642 332.681 117.626 331.085L142.936 290.018C143.732 288.539 144.958 287.336 146.452 286.567C147.946 285.799 149.638 285.502 151.304 285.715C152.971 285.928 154.534 286.641 155.787 287.76C157.04 288.879 157.924 290.352 158.323 291.984C158.775 293.843 158.574 295.801 157.753 297.529L139.031 336.846L151.336 378.493C151.554 379.238 151.576 380.026 151.401 380.782C151.227 381.537 150.86 382.235 150.338 382.809L144.965 388.67C144.545 389.13 144.033 389.498 143.463 389.749C142.893 390 142.276 390.13 141.653 390.13C141.413 390.13 141.173 390.11 140.936 390.072Z" fill="#0064C7"/>
<path opacity="0.2" d="M198.308 380.529L194.498 304.329L195.486 304.2L212.615 384.804H202.802C201.648 384.805 200.537 384.361 199.7 383.565C198.864 382.77 198.365 381.683 198.308 380.529Z" fill="black"/>
<path d="M211.881 404.843C210.916 403.735 210.205 402.428 209.799 401.015C209.393 399.602 209.302 398.117 209.532 396.665C209.763 395.213 210.308 393.829 211.131 392.611C211.954 391.393 213.034 390.37 214.295 389.614L206.986 354.635L224.252 361.471L228.545 393.64C229.674 395.843 229.956 398.383 229.338 400.779C228.719 403.176 227.243 405.262 225.189 406.643C223.135 408.024 220.646 408.604 218.193 408.272C215.74 407.94 213.495 406.72 211.881 404.843Z" fill="#FEE6CC"/>
<path d="M208.431 381.07L194.002 284.878L193.988 284.787L196.777 271.957C197.476 268.743 199.322 265.893 201.97 263.942C204.618 261.99 207.886 261.07 211.163 261.354C214.44 261.638 217.502 263.106 219.775 265.484C222.047 267.862 223.376 270.986 223.512 274.273L227.842 379.055C227.885 380.192 227.497 381.304 226.756 382.168C226.014 383.032 224.974 383.584 223.843 383.713L213.378 384.876C213.209 384.895 213.04 384.904 212.87 384.904C211.793 384.905 210.752 384.518 209.937 383.814C209.122 383.11 208.587 382.136 208.431 381.07Z" fill="#0064C7"/>
<path d="M181.138 246.956C177.797 246.928 174.533 245.954 171.723 244.147C168.913 242.34 166.671 239.775 165.259 236.747C162.982 231.931 161.717 228.095 161.498 225.343C160.911 217.951 165.088 206.334 170.62 199.976C176.688 193 186.293 192.027 195.582 191.086C198.12 190.829 200.744 190.563 203.228 190.177C205.36 189.846 208.012 189.434 210.267 190.27C210.918 190.509 211.514 190.878 212.018 191.355C212.522 191.832 212.924 192.407 213.199 193.044C213.287 193.268 213.421 193.471 213.591 193.642C213.761 193.812 213.964 193.946 214.188 194.035C214.381 194.109 214.588 194.142 214.794 194.132C215.001 194.122 215.203 194.07 215.389 193.978C215.766 193.786 216.183 193.686 216.606 193.686C217.029 193.686 217.446 193.785 217.823 193.977C218.156 194.145 218.445 194.389 218.666 194.689C218.887 194.99 219.033 195.338 219.093 195.706C219.133 195.959 219.211 196.204 219.326 196.432C219.52 196.788 219.788 197.098 220.111 197.342C220.434 197.587 220.805 197.76 221.2 197.851C221.803 197.985 222.336 198.335 222.698 198.835C223.061 199.335 223.228 199.95 223.169 200.565C223.02 201.827 222.956 203.188 222.894 204.505C222.662 209.46 222.423 214.583 217.442 214.5C216.168 214.447 214.907 214.224 213.692 213.838C211.887 213.337 210.462 212.939 208.542 214.136C205.591 215.976 205.109 219.822 204.684 223.216L204.609 223.809C204.112 227.69 202.061 232.361 197.914 232.752C196.597 232.795 195.286 232.568 194.06 232.084C192.8 231.526 191.401 231.358 190.045 231.602C187.767 232.252 186.671 234.972 186.765 237.324C186.826 238.287 186.949 239.245 187.134 240.191C187.469 241.691 187.577 243.233 187.452 244.765C187.334 245.696 186.264 246.311 184.084 246.697C183.111 246.869 182.126 246.956 181.138 246.956Z" fill="#333333"/>
</g>
<defs>
<clipPath id="clip0_381_2064">
<rect width="651.451" height="581.322" fill="white"/>
</clipPath>
</defs>
</svg>
